<?xml version="1.0" encoding="utf-8"?>
<!-- Generator: Adobe Illustrator 17.0.0, SVG Export Plug-In . SVG Version: 6.00 Build 0)  -->
<!DOCTYPE svg PUBLIC "-//W3C//DTD SVG 1.1//EN" "http://www.w3.org/Graphics/SVG/1.1/DTD/svg11.dtd">
<svg version="1.1" id="Layer_1" xmlns="http://www.w3.org/2000/svg" xmlns:xlink="http://www.w3.org/1999/xlink" x="0px" y="0px"
	 width="72px" height="72px" viewBox="0 0 72 72" enable-background="new 0 0 72 72" xml:space="preserve">
<circle fill="#3A3A3A" cx="35.496" cy="36.625" r="35.496"/>
<circle fill="#FFFFFF" cx="35.496" cy="36.625" r="31.582"/>
<path id="Facebook_3_" fill="#3A3A3A" d="M26.264,21.28c0,1.316,0,7.193,0,7.193h-5.27v8.796h5.27v26.137h10.825V37.269h7.264
	c0,0,0.68-4.217,1.01-8.829c-0.946,0-8.233,0-8.233,0s0-5.117,0-6.014c0-0.898,1.18-2.108,2.347-2.108c1.164,0,3.622,0,5.898,0
	c0-1.198,0-5.336,0-9.157c-3.039,0-6.495,0-8.019,0C25.996,11.162,26.264,19.966,26.264,21.28z"/>
</svg>
