<?xml version="1.0" encoding="utf-8"?>
<!-- Generator: Adobe Illustrator 17.0.0, SVG Export Plug-In . SVG Version: 6.00 Build 0)  -->
<!DOCTYPE svg PUBLIC "-//W3C//DTD SVG 1.1//EN" "http://www.w3.org/Graphics/SVG/1.1/DTD/svg11.dtd">
<svg version="1.1" id="Layer_1" xmlns="http://www.w3.org/2000/svg" xmlns:xlink="http://www.w3.org/1999/xlink" x="0px" y="0px"
	 width="71.12px" height="40.04px" viewBox="0 0 71.12 40.04" enable-background="new 0 0 71.12 40.04" xml:space="preserve">
<g>
	<g>
		<path fill="#FFFFFF" d="M59.329,21.93c0,0-0.333-1.084-1.154-2.893c-0.82-1.801-2.13-4.334-4.167-7.036
			c-1.035-1.332-2.216-2.734-3.647-4.019c-1.433-1.276-3.044-2.506-4.874-3.493c-1.842-0.96-3.867-1.68-5.989-2.118
			c-2.14-0.344-4.348-0.475-6.545-0.235c-1.098,0.079-2.182,0.343-3.265,0.508c-1.064,0.3-2.134,0.541-3.167,0.891
			c-1.023,0.39-2.052,0.722-3.04,1.138c-0.98,0.438-1.948,0.87-2.9,1.296c-0.935,0.47-1.855,0.933-2.755,1.386
			c-0.904,0.446-1.734,0.994-2.585,1.446c-1.701,0.909-3.208,1.954-4.657,2.828c-1.438,0.893-2.689,1.82-3.846,2.576
			c-1.164,0.749-2.114,1.493-2.935,2.057c-1.616,1.163-2.57,1.801-2.57,1.801l-0.141-0.161c0,0,0.791-0.824,2.23-2.219
			c0.719-0.699,1.57-1.576,2.648-2.464c0.534-0.452,1.101-0.933,1.7-1.441c0.602-0.505,1.222-1.053,1.929-1.547
			c1.394-1.016,2.864-2.182,4.573-3.2c0.844-0.524,1.685-1.105,2.618-1.581c0.927-0.487,1.873-0.985,2.836-1.491
			c0.999-0.438,2.033-0.847,3.069-1.279c1.042-0.419,2.156-0.704,3.245-1.061c1.106-0.313,2.256-0.518,3.386-0.788
			c1.163-0.134,2.315-0.361,3.491-0.4c2.346-0.171,4.71,0.048,6.979,0.5c2.255,0.547,4.385,1.392,6.294,2.476
			c1.892,1.116,3.547,2.448,4.965,3.847c1.42,1.402,2.565,2.899,3.558,4.309c1.95,2.856,3.149,5.476,3.892,7.332
			c0.741,1.859,1.027,2.973,1.027,2.973L59.329,21.93z"/>
	</g>
	<g>
		<path fill="#FFFFFF" d="M14.601,8.587c0,0,0.333,1.063,1.111,2.852c0.797,1.774,2.008,4.298,3.92,7.019
			c0.94,1.368,2.066,2.774,3.391,4.119c1.31,1.357,2.827,2.658,4.565,3.722c1.723,1.076,3.65,1.968,5.722,2.422
			c2.057,0.477,4.223,0.675,6.366,0.424c1.076-0.041,2.129-0.32,3.183-0.514c1.048-0.233,2.064-0.609,3.08-0.909
			c0.986-0.411,1.964-0.819,2.931-1.222c0.939-0.473,1.866-0.94,2.778-1.399c0.89-0.509,1.766-1.009,2.623-1.499
			c0.435-0.235,0.847-0.499,1.245-0.775c0.407-0.263,0.81-0.522,1.207-0.779c1.615-0.985,3.029-2.097,4.394-3.042
			c1.356-0.959,2.522-1.949,3.609-2.76c1.095-0.805,1.977-1.596,2.747-2.2c1.51-1.242,2.405-1.928,2.405-1.928l0.151,0.151
			c0,0-0.721,0.86-2.038,2.322c-0.658,0.732-1.433,1.649-2.434,2.589c-0.494,0.478-1.02,0.986-1.574,1.521
			c-0.557,0.534-1.131,1.11-1.795,1.638c-1.304,1.084-2.675,2.316-4.296,3.413c-1.546,1.198-3.353,2.214-5.194,3.31
			c-0.972,0.459-1.961,0.925-2.962,1.397c-1.027,0.42-2.099,0.772-3.16,1.16c-1.107,0.27-2.201,0.611-3.333,0.819
			c-1.143,0.165-2.275,0.409-3.443,0.411c-2.312,0.184-4.661-0.11-6.858-0.706c-2.216-0.573-4.246-1.604-6.027-2.807
			c-1.792-1.197-3.343-2.599-4.626-4.073c-1.304-1.457-2.387-2.953-3.279-4.393c-1.814-2.866-2.912-5.47-3.63-7.295
			c-0.697-1.837-0.982-2.927-0.982-2.927L14.601,8.587z"/>
	</g>
	<g>
		<path fill="#FFFFFF" d="M49.035,19.375c0,0-0.159-0.485-0.544-1.294c-0.383-0.806-0.991-1.937-1.906-3.155
			c-0.915-1.21-2.145-2.513-3.711-3.535c-0.779-0.512-1.637-0.959-2.559-1.27c-0.911-0.338-1.885-0.531-2.863-0.627
			c-0.492-0.035-0.981-0.074-1.473-0.044c-0.49-0.006-0.978,0.047-1.46,0.111c-0.962,0.126-1.903,0.316-2.798,0.57
			c-0.455,0.093-0.889,0.247-1.321,0.373c-0.431,0.128-0.855,0.25-1.258,0.403c-0.817,0.276-1.581,0.57-2.281,0.866
			c-0.711,0.269-1.34,0.576-1.911,0.823c-0.576,0.24-1.065,0.479-1.473,0.668c-0.812,0.387-1.295,0.588-1.295,0.588l-0.078-0.119
			c0,0,0.393-0.339,1.112-0.897c0.354-0.289,0.793-0.626,1.328-0.968c0.533-0.344,1.122-0.762,1.82-1.122
			c0.346-0.188,0.706-0.385,1.078-0.588c0.389-0.174,0.791-0.353,1.204-0.538c0.408-0.198,0.85-0.351,1.303-0.504
			c0.45-0.162,0.914-0.315,1.403-0.424c0.969-0.234,1.993-0.415,3.047-0.461c0.527-0.03,1.056-0.049,1.591-0.014
			c0.534,0.001,1.067,0.074,1.599,0.145c1.059,0.159,2.108,0.426,3.076,0.843c0.979,0.389,1.877,0.918,2.678,1.506
			c1.619,1.168,2.797,2.622,3.649,3.928c0.852,1.315,1.387,2.503,1.718,3.345c0.331,0.843,0.459,1.348,0.459,1.348L49.035,19.375z"
			/>
	</g>
	<g>
		<path fill="#FFFFFF" d="M24.967,12.127c0,0,0.118,0.527,0.426,1.421c0.315,0.889,0.808,2.153,1.628,3.538
			c0.404,0.694,0.89,1.417,1.479,2.113c0.58,0.702,1.251,1.393,2.039,1.978c1.544,1.208,3.559,1.975,5.626,2.035
			c1.031,0.067,2.069-0.076,3.072-0.262c0.501-0.108,0.989-0.263,1.478-0.375c0.479-0.161,0.952-0.32,1.417-0.476
			c0.92-0.352,1.815-0.684,2.643-1.071c0.842-0.352,1.606-0.763,2.329-1.115c0.726-0.346,1.357-0.733,1.943-1.034
			c0.588-0.298,1.076-0.601,1.495-0.828c0.825-0.472,1.316-0.722,1.316-0.722l0.086,0.114c0,0-0.392,0.382-1.111,1.017
			c-0.357,0.322-0.787,0.718-1.327,1.115c-0.54,0.393-1.12,0.887-1.825,1.321c-0.695,0.45-1.446,0.945-2.303,1.371
			c-0.829,0.475-1.772,0.855-2.751,1.231c-0.505,0.15-1.019,0.302-1.539,0.456c-0.534,0.112-1.073,0.229-1.623,0.311
			c-1.108,0.124-2.245,0.223-3.381,0.084c-2.274-0.177-4.471-1.148-6.061-2.527c-1.63-1.354-2.701-3.03-3.438-4.497
			c-0.746-1.475-1.16-2.787-1.419-3.705c-0.251-0.922-0.336-1.464-0.336-1.464L24.967,12.127z"/>
	</g>
	<circle fill="#FFFFFF" cx="36.681" cy="16.235" r="2.688"/>
	<g>
		<path fill="#FFFFFF" d="M19.366,35.191c-0.018-0.387-0.344-0.676-0.731-0.676c-1.026,0-1.106,1.333-1.106,2.083
			c0,0.731,0.074,2.022,1.069,2.022c0.461,0,0.811-0.344,0.83-0.799h0.289c-0.061,0.651-0.485,1.045-1.143,1.045
			c-1.168,0-1.352-1.34-1.352-2.237c0-0.94,0.166-2.36,1.413-2.36c0.541,0,0.971,0.381,1.02,0.922H19.366z"/>
		<path fill="#FFFFFF" d="M20.804,36.567c0-1.008,0.123-2.298,1.315-2.298c1.303,0,1.297,1.549,1.297,2.298
			c0,1.88-0.59,2.298-1.297,2.298C21.419,38.866,20.804,38.46,20.804,36.567z M22.119,38.62c0.59,0,0.989-0.461,0.989-2.053
			c0-1.647-0.424-2.053-0.989-2.053c-0.639,0-1.008,0.528-1.008,2.053C21.111,38.22,21.566,38.62,22.119,38.62z"/>
		<path fill="#FFFFFF" d="M24.78,34.355h1.051c0.744,0,1.174,0.498,1.174,1.217c0,0.559-0.313,1.057-0.854,1.229l1.192,1.979H26.98
			l-1.1-1.911h-0.811v1.911H24.78V34.355z M25.069,36.622h0.719c0.393,0,0.91-0.301,0.91-1.075c0-0.516-0.246-0.946-0.866-0.946
			h-0.762V36.622z"/>
		<path fill="#FFFFFF" d="M28.418,34.355h0.996c0.916,0,1.217,0.651,1.217,1.321c0,0.873-0.535,1.303-1.364,1.303h-0.559v1.801
			h-0.289V34.355z M28.707,34.601v2.132h0.516c0.774,0,1.1-0.424,1.1-1.051c0-0.83-0.443-1.082-0.891-1.082H28.707z"/>
		<path fill="#FFFFFF" d="M33.98,34.982c-0.277-0.24-0.59-0.467-0.971-0.467c-0.449,0-0.817,0.307-0.817,0.774
			c0,0.344,0.154,0.572,0.694,0.903l0.363,0.221c0.7,0.424,1.02,0.676,1.02,1.223c0,0.762-0.498,1.229-1.254,1.229
			c-0.522,0-0.934-0.246-1.248-0.651l0.221-0.178c0.234,0.338,0.602,0.584,1.026,0.584c0.516,0,0.946-0.381,0.946-0.909
			c0-0.418-0.049-0.578-0.866-1.063l-0.412-0.246c-0.424-0.252-0.799-0.547-0.799-1.082c0-0.664,0.504-1.051,1.143-1.051
			c0.418,0,0.823,0.221,1.125,0.498L33.98,34.982z"/>
		<path fill="#FFFFFF" d="M36.635,36.475c0.412,0,0.756,0.344,0.756,0.756c0,0.424-0.344,0.756-0.756,0.756
			c-0.424,0-0.756-0.332-0.756-0.756C35.879,36.819,36.223,36.475,36.635,36.475z"/>
		<path fill="#FFFFFF" d="M41.514,34.601H39.64v1.782h1.346v0.246H39.64v1.905h1.917v0.246h-2.206v-4.425h2.163V34.601z"/>
		<path fill="#FFFFFF" d="M44.876,34.982c-0.277-0.24-0.59-0.467-0.971-0.467c-0.449,0-0.817,0.307-0.817,0.774
			c0,0.344,0.154,0.572,0.694,0.903l0.363,0.221c0.7,0.424,1.02,0.676,1.02,1.223c0,0.762-0.498,1.229-1.254,1.229
			c-0.522,0-0.934-0.246-1.248-0.651l0.221-0.178c0.234,0.338,0.602,0.584,1.026,0.584c0.516,0,0.946-0.381,0.946-0.909
			c0-0.418-0.049-0.578-0.866-1.063l-0.412-0.246c-0.424-0.252-0.799-0.547-0.799-1.082c0-0.664,0.504-1.051,1.143-1.051
			c0.418,0,0.823,0.221,1.125,0.498L44.876,34.982z"/>
		<path fill="#FFFFFF" d="M46.578,34.355h0.996c0.916,0,1.217,0.651,1.217,1.321c0,0.873-0.535,1.303-1.364,1.303h-0.559v1.801
			h-0.289V34.355z M46.867,34.601v2.132h0.516c0.774,0,1.1-0.424,1.1-1.051c0-0.83-0.443-1.082-0.891-1.082H46.867z"/>
		<path fill="#FFFFFF" d="M50.204,34.355h1.051c0.744,0,1.174,0.498,1.174,1.217c0,0.559-0.313,1.057-0.854,1.229l1.192,1.979
			h-0.363l-1.1-1.911h-0.811v1.911h-0.289V34.355z M50.493,36.622h0.719c0.393,0,0.91-0.301,0.91-1.075
			c0-0.516-0.246-0.946-0.866-0.946h-0.762V36.622z"/>
		<path fill="#FFFFFF" d="M55.55,34.601h-0.615v3.933h0.615v0.246h-1.518v-0.246h0.615v-3.933h-0.615v-0.246h1.518V34.601z"/>
		<path fill="#FFFFFF" d="M59.846,34.601h-1.278v4.179h-0.289v-4.179h-1.272v-0.246h2.839V34.601z"/>
	</g>
</g>
</svg>
