<?xml version="1.0" encoding="utf-8"?>
<!-- Generator: Adobe Illustrator 17.0.0, SVG Export Plug-In . SVG Version: 6.00 Build 0)  -->
<!DOCTYPE svg PUBLIC "-//W3C//DTD SVG 1.1//EN" "http://www.w3.org/Graphics/SVG/1.1/DTD/svg11.dtd">
<svg version="1.1" id="Layer_1" xmlns="http://www.w3.org/2000/svg" xmlns:xlink="http://www.w3.org/1999/xlink" x="0px" y="0px"
	 width="72px" height="72px" viewBox="0 0 72 72" enable-background="new 0 0 72 72" xml:space="preserve">
<ellipse fill="#FFFFFF" cx="35.971" cy="35.645" rx="34.68" ry="34.355"/>
<path d="M70.147,56.911c-0.326-0.106-0.66-0.231-1.014-0.363c-0.484-0.181-0.986-0.368-1.498-0.518
	c-1.805-0.569-3.211-0.07-4.07,1.442c0.572-0.115,0.958-0.137,1.725-0.141c0.205-0.001,0.356-0.169,0.5-0.332
	c0.084-0.094,0.17-0.191,0.267-0.255l0.07-0.047l-0.039,0.076c-0.1,0.194-0.201,0.398-0.3,0.608
	c0.325,0.037,0.642,0.078,0.944,0.121c0.048,0.007,0.279-0.124,0.484-0.241c0.186-0.106,0.397-0.226,0.556-0.295l0.155-0.067
	l-0.133,0.106c-0.217,0.173-0.43,0.36-0.636,0.556c0.408,0.056,0.833,0.107,1.299,0.157c0.155,0.016,0.335-0.076,0.51-0.167
	c0.095-0.049,0.194-0.1,0.289-0.134l0.125-0.044l-0.104,0.083c-0.121,0.096-0.241,0.196-0.359,0.298
	c0.774,0.048,1.419,0.02,2.025-0.088c-0.612,0.124-1.263,0.218-2.066,0.2c0.161,0.213,0.321,0.412,0.476,0.593l0.084,0.097
	l-0.11-0.062c-0.123-0.069-0.248-0.18-0.368-0.288c-0.191-0.171-0.388-0.347-0.581-0.358c-0.417-0.022-0.834-0.054-1.258-0.087
	c0.279,0.433,0.554,0.832,0.82,1.186l0.118,0.158l-0.149-0.127c-0.183-0.155-0.41-0.402-0.629-0.642
	c-0.272-0.297-0.552-0.604-0.65-0.612c-0.29-0.022-0.575-0.039-0.847-0.05c0.152,0.387,0.304,0.765,0.453,1.124l0.064,0.155
	l-0.102-0.132c-0.101-0.133-0.215-0.321-0.324-0.504c-0.181-0.301-0.385-0.642-0.506-0.655c-0.774-0.083-1.543-0.028-2.296,0.164
	c0.95-1.241,1.813-2.542,2.583-3.89c0.094-0.156,0.181-0.316,0.266-0.477c0.019-0.034,0.038-0.067,0.056-0.1l-0.002-0.005
	c0.423-0.824,0.735-1.701,0.919-2.614c0.036-0.184-0.372-0.646-0.732-1.054c-0.219-0.246-0.445-0.502-0.593-0.714L65.42,48.76
	l0.199,0.167c0.462,0.388,0.949,0.789,1.451,1.194c0.11-0.408,0.218-0.837,0.321-1.276c0.034-0.148-0.289-0.707-0.601-1.247
	c-0.252-0.436-0.512-0.886-0.656-1.229l-0.117-0.282l0.177,0.249c0.399,0.558,0.86,1.152,1.371,1.765
	c0.149-0.643,0.297-1.274,0.458-1.901c0.074-0.289-0.095-0.664-0.258-1.025c-0.103-0.229-0.209-0.465-0.255-0.679l-0.04-0.192
	l0.104,0.168c0.194,0.315,0.414,0.644,0.654,0.98c0.348-1.194,0.791-2.114,1.26-2.96c-0.442,0.846-0.784,1.786-1.074,2.954
	c0.205-0.127,0.409-0.259,0.607-0.392l0.172-0.116l-0.124,0.165c-0.094,0.125-0.215,0.247-0.332,0.365
	c-0.215,0.216-0.436,0.44-0.484,0.676c-0.144,0.711-0.266,1.364-0.375,1.993c0.387-0.212,0.763-0.441,1.119-0.681l0.218-0.147
	l-0.171,0.197c-0.176,0.202-0.452,0.459-0.696,0.685c-0.267,0.248-0.569,0.529-0.581,0.603c-0.076,0.466-0.164,0.954-0.261,1.453
	c0.356-0.048,0.706-0.102,1.039-0.159l0.131-0.023l-0.102,0.082c-0.14,0.113-0.324,0.196-0.501,0.275
	c-0.308,0.138-0.627,0.281-0.724,0.585c-0.363,1.132-0.576,1.693-1.014,2.485c2.636-0.565,4.029-2.412,4.031-5.346
	c0.016-0.828-0.027-1.657-0.069-2.457c-0.03-0.584-0.058-1.137-0.063-1.668c-0.025-1.282,0.091-2.349,0.342-3.176
	c-1.747,1.037-4.03,2.792-5.159,5.331c-1.055,2.359-1.301,4.001,0.158,6.95c0.012,0.026,0.02,0.053,0.023,0.081
	c-1.264,2.003-2.745,3.883-4.429,5.598c-0.072-0.384-0.107-0.721,0.021-0.771c1.37-0.532,1.753-1.268,2.051-2.618
	c0.324-1.45,0.008-3.077-0.32-4.204c-0.147,0.423-0.412,0.884-0.789,1.368c-0.154,0.203-0.323,0.404-0.502,0.618
	c-0.245,0.292-0.497,0.594-0.73,0.92c-0.841,1.133-0.872,2.426-0.089,3.74c0.071-0.487,0.156-0.792,0.35-1.381
	c0.052-0.157-0.021-0.345-0.092-0.526c-0.041-0.105-0.083-0.213-0.101-0.315l-0.013-0.074l0.041,0.063
	c0.103,0.16,0.213,0.326,0.327,0.493c0.108-0.233,0.217-0.458,0.323-0.669c0.017-0.033-0.01-0.268-0.035-0.474
	c-0.022-0.189-0.047-0.403-0.053-0.554l-0.006-0.148l0.037,0.147c0.059,0.241,0.127,0.486,0.206,0.728
	c0.142-0.288,0.285-0.591,0.438-0.925c0.051-0.111,0.036-0.29,0.021-0.463c-0.008-0.094-0.017-0.191-0.015-0.279l0.003-0.115
	l0.029,0.116c0.032,0.134,0.068,0.269,0.105,0.404c0.231-0.571,0.378-1.077,0.463-1.587c-0.075,0.522-0.18,1.061-0.398,1.667
	c0.183-0.03,0.356-0.065,0.517-0.106l0.085-0.022l-0.07,0.057c-0.078,0.064-0.184,0.111-0.287,0.157
	c-0.162,0.071-0.33,0.146-0.387,0.289c-0.122,0.309-0.25,0.614-0.381,0.924c0.36-0.024,0.695-0.062,0.998-0.112l0.135-0.022
	l-0.123,0.06c-0.15,0.073-0.373,0.138-0.588,0.202c-0.267,0.078-0.543,0.16-0.574,0.232c-0.089,0.212-0.174,0.422-0.251,0.626
	c0.296,0.052,0.586,0.1,0.863,0.142l0.12,0.018l-0.115,0.02c-0.114,0.02-0.268,0.025-0.418,0.029
	c-0.246,0.008-0.525,0.016-0.565,0.102c-0.342,0.747-0.514,1.596-0.515,2.525c-2.647,2.632-5.78,4.865-9.349,6.548
	c-4.191,1.977-8.584,3.01-12.94,3.189c-0.794,0.054-1.594,0.083-2.402,0.083c-19.39,0-35.109-15.719-35.109-35.109
	c0-0.628,0.018-1.251,0.05-1.87c-0.901,6.455,0.002,13.236,2.99,19.571c8.179,17.341,28.867,24.768,46.208,16.589
	c4.917-2.319,9.034-5.645,12.226-9.614c0.444-0.322,0.907-0.632,1.082-0.463c1.531,1.47,2.589,1.637,4.244,1.446
	c1.78-0.201,3.303-1.265,4.279-2.139C71.61,57.311,70.93,57.175,70.147,56.911z"/>
<path d="M3.02,14.318c0.481,0.189,0.979,0.384,1.489,0.543c1.796,0.598,3.21,0.122,4.093-1.375c-0.574,0.106-0.96,0.122-1.726,0.113
	c-0.205-0.002-0.359,0.163-0.505,0.323c-0.085,0.092-0.173,0.188-0.27,0.251l-0.072,0.046l0.041-0.076
	c0.103-0.192,0.208-0.395,0.31-0.603c-0.325-0.042-0.642-0.088-0.942-0.137c-0.048-0.008-0.281,0.12-0.487,0.233
	c-0.188,0.103-0.401,0.219-0.561,0.285l-0.156,0.065l0.134-0.103c0.219-0.169,0.436-0.353,0.645-0.546
	c-0.407-0.062-0.831-0.12-1.296-0.178C3.562,13.14,3.38,13.23,3.204,13.317c-0.096,0.048-0.195,0.097-0.291,0.129l-0.126,0.042
	l0.106-0.082c0.122-0.094,0.244-0.192,0.363-0.292c-0.773-0.061-1.418-0.044-2.026,0.054c0.613-0.114,1.267-0.197,2.068-0.167
	c-0.157-0.216-0.313-0.418-0.467-0.6L2.75,12.306l0.109,0.064c0.122,0.071,0.245,0.185,0.364,0.294
	c0.188,0.174,0.383,0.353,0.575,0.367c0.416,0.029,0.832,0.067,1.257,0.107c-0.272-0.438-0.54-0.841-0.801-1.199L4.137,11.78
	l0.148,0.129c0.18,0.158,0.403,0.409,0.618,0.652c0.266,0.301,0.542,0.613,0.64,0.622c0.29,0.027,0.574,0.048,0.846,0.064
	c-0.146-0.389-0.291-0.77-0.434-1.131L5.893,11.96l0.099,0.134c0.099,0.135,0.209,0.325,0.315,0.509
	c0.176,0.304,0.375,0.648,0.495,0.663c0.773,0.096,1.542,0.053,2.299-0.126c-0.971,1.226-1.854,2.512-2.646,3.848
	c-0.096,0.155-0.187,0.313-0.274,0.472c-0.019,0.034-0.039,0.066-0.058,0.099l0.002,0.005c-0.437,0.817-0.763,1.689-0.962,2.599
	c-0.04,0.183,0.361,0.652,0.715,1.066c0.214,0.25,0.436,0.509,0.581,0.724l0.145,0.214l-0.197-0.17
	c-0.455-0.395-0.936-0.805-1.43-1.217c-0.117,0.406-0.232,0.833-0.342,1.27c-0.037,0.148,0.277,0.711,0.58,1.256
	c0.245,0.44,0.498,0.894,0.636,1.239l0.113,0.283L5.79,24.576c-0.389-0.564-0.84-1.165-1.341-1.787
	c-0.16,0.641-0.318,1.269-0.489,1.893c-0.078,0.288,0.084,0.665,0.241,1.029c0.099,0.23,0.202,0.468,0.243,0.683l0.037,0.193
	l-0.101-0.17c-0.189-0.318-0.404-0.65-0.638-0.991c-0.368,1.188-0.825,2.101-1.308,2.939c0.456-0.838,0.814-1.773,1.123-2.936
	c-0.207,0.123-0.414,0.252-0.614,0.382l-0.174,0.114l0.127-0.163c0.097-0.123,0.219-0.243,0.338-0.359
	c0.219-0.213,0.444-0.432,0.495-0.668c0.156-0.709,0.288-1.359,0.407-1.987c-0.39,0.206-0.77,0.429-1.131,0.663l-0.219,0.143
	L2.96,23.36c0.179-0.2,0.459-0.452,0.707-0.674c0.27-0.244,0.578-0.519,0.591-0.593c0.084-0.465,0.18-0.952,0.284-1.448
	c-0.357,0.042-0.707,0.09-1.041,0.142L3.37,20.808l0.103-0.081c0.142-0.111,0.327-0.19,0.506-0.267
	c0.31-0.133,0.631-0.271,0.733-0.573c0.382-1.125,0.604-1.683,1.054-2.468c-2.645,0.522-4.068,2.346-4.118,5.279
	c-0.029,0.828,0,1.657,0.028,2.458c0.02,0.585,0.039,1.138,0.036,1.669c0.003,1.282-0.129,2.347-0.394,3.17
	c1.764-1.009,4.075-2.726,5.245-5.246c1.094-2.342,1.366-3.979-0.044-6.952c-0.012-0.026-0.019-0.053-0.022-0.081
	c1.297-1.982,2.808-3.837,4.52-5.525c0.065,0.385,0.095,0.723-0.034,0.771c-1.379,0.509-1.774,1.239-2.094,2.584
	c-0.348,1.444-0.059,3.076,0.252,4.209c0.154-0.421,0.426-0.877,0.81-1.355c0.158-0.201,0.33-0.399,0.512-0.609
	c0.249-0.288,0.507-0.585,0.745-0.908c0.86-1.119,0.911-2.411,0.15-3.738c-0.079,0.486-0.168,0.79-0.372,1.375
	c-0.055,0.157,0.015,0.345,0.083,0.528c0.039,0.105,0.079,0.214,0.096,0.317l0.012,0.074l-0.04-0.064
	c-0.1-0.162-0.207-0.33-0.319-0.499c-0.112,0.231-0.224,0.454-0.334,0.664c-0.017,0.033,0.006,0.268,0.028,0.475
	c0.019,0.189,0.041,0.403,0.044,0.555l0.002,0.147l-0.034-0.148c-0.055-0.242-0.119-0.488-0.194-0.732
	c-0.146,0.285-0.294,0.586-0.453,0.918c-0.053,0.11-0.041,0.289-0.028,0.462c0.007,0.094,0.013,0.192,0.011,0.279l-0.005,0.115
	l-0.027-0.117c-0.03-0.134-0.063-0.27-0.098-0.406c-0.24,0.567-0.396,1.07-0.488,1.579c0.083-0.52,0.197-1.058,0.425-1.66
	c-0.183,0.027-0.357,0.06-0.518,0.098l-0.086,0.021l0.071-0.056c0.079-0.063,0.186-0.108,0.289-0.152
	c0.163-0.069,0.332-0.141,0.391-0.282c0.127-0.307,0.26-0.61,0.396-0.918c-0.36,0.019-0.695,0.051-1,0.095l-0.135,0.02l0.124-0.058
	c0.151-0.07,0.375-0.132,0.591-0.192c0.268-0.074,0.545-0.151,0.576-0.222c0.093-0.21,0.181-0.419,0.262-0.622
	c-0.295-0.057-0.584-0.109-0.86-0.156l-0.119-0.02l0.114-0.019c0.114-0.018,0.269-0.02,0.419-0.022
	c0.246-0.004,0.525-0.007,0.566-0.093c0.354-0.742,0.54-1.588,0.557-2.516c2.69-2.588,5.858-4.769,9.455-6.394
	c4.223-1.908,8.632-2.87,12.991-2.977c0.795-0.041,1.596-0.056,2.403-0.043c19.387,0.317,34.847,16.291,34.53,35.678
	c-0.01,0.627-0.038,1.25-0.081,1.869c1.007-6.439,0.214-13.234-2.67-19.617C60.041,2.958,39.478-4.807,22.005,3.088
	c-4.954,2.238-9.125,5.496-12.382,9.413c-0.449,0.315-0.917,0.617-1.09,0.445c-1.507-1.495-2.561-1.679-4.22-1.515
	C2.53,11.604,0.991,12.643,0,13.5c0.556,0.015,1.234,0.163,2.012,0.439C2.337,14.05,2.669,14.18,3.02,14.318z"/>
<g>
	<g>
		<path d="M15.976,44.204c0.848,0.499,1.669,1.055,2.413,1.715c0.368,0.334,0.72,0.692,1.011,1.111
			c0.272,0.413,0.554,0.919,0.442,1.497c-0.102,0.589-0.596,0.966-1.042,1.203c-0.464,0.249-0.956,0.379-1.446,0.508
			c-0.492,0.113-0.987,0.193-1.484,0.257c-0.483,0.051-1.013,0.103-1.5,0.104c-0.495,0.001-0.976,0.05-1.484,0.013
			c-0.506-0.051-1.022-0.051-1.524-0.149c-0.498-0.119-1.011-0.165-1.493-0.38c-0.242-0.097-0.495-0.166-0.728-0.289l-0.689-0.402
			c-0.429-0.319-0.842-0.681-1.151-1.137c-0.321-0.443-0.537-0.956-0.681-1.479c-0.13-0.526-0.187-1.065-0.164-1.597
			c0.014-0.54,0.09-1.042,0.252-1.594l-0.01,0.035c0.149-0.475,0.351-0.824,0.617-1.181c0.257-0.352,0.587-0.649,0.946-0.896
			c0.732-0.489,1.6-0.7,2.43-0.731c0.415,0.003,0.83,0.009,1.228,0.084c0.409,0.041,0.791,0.156,1.18,0.252
			c0.393,0.089,0.751,0.252,1.128,0.375l1.061,0.376c0.363,0.142,0.692,0.189,1.038,0.291c0.342,0.09,0.707,0.126,1.059,0.193
			c0.713,0.067,1.432,0.109,2.137,0.014c0.355-0.024,0.702-0.108,1.048-0.179c0.344-0.084,0.681-0.19,1.011-0.316
			c0.327-0.132,0.647-0.278,0.951-0.451c0.295-0.167,0.612-0.376,0.83-0.556l0.039-0.033c0.54-0.361,0.997-0.489,1.503-0.658
			c0.498-0.096,0.999-0.237,1.498-0.261c0.498-0.015,1.002-0.088,1.494-0.05l1.476,0.114c0.487,0.058,0.96,0.183,1.44,0.272
			c0.476,0.106,0.965,0.169,1.419,0.34l2.732,0.89c0.449,0.152,0.902,0.316,1.335,0.41c0.436,0.118,0.876,0.226,1.332,0.291
			c0.45,0.093,0.905,0.131,1.359,0.17c0.454,0.044,0.91,0.028,1.364,0.028c0.454-0.022,0.907-0.05,1.354-0.127
			c0.447-0.07,0.892-0.163,1.322-0.3c0.436-0.122,0.853-0.296,1.261-0.485c0.395-0.194,0.807-0.434,1.116-0.681l0.05-0.04
			l0.014-0.008c0.378-0.206,0.717-0.326,1.085-0.447c0.361-0.117,0.728-0.205,1.097-0.279c0.369-0.071,0.74-0.125,1.113-0.154
			c0.371-0.049,0.746-0.034,1.118-0.053c0.745,0.012,1.485,0.075,2.215,0.197c0.731,0.122,1.442,0.322,2.146,0.535l1.034,0.381
			c0.348,0.116,0.673,0.29,1.008,0.436c0.675,0.284,1.301,0.664,1.943,1.008c0.612,0.36,1.29,0.607,1.981,0.798
			c0.347,0.096,0.7,0.165,1.058,0.209c0.356,0.065,0.719,0.05,1.081,0.078c-0.361-0.003-0.727,0.038-1.089-0.002
			c-0.364-0.019-0.726-0.063-1.085-0.135c-0.717-0.14-1.422-0.368-2.081-0.705c-0.653-0.306-1.287-0.647-1.964-0.89
			c-0.336-0.126-0.661-0.279-1.007-0.374l-1.024-0.317l-1.041-0.242c-0.349-0.069-0.702-0.11-1.051-0.173
			c-0.703-0.093-1.41-0.131-2.114-0.119c-0.35,0.031-0.704,0.026-1.05,0.084c-0.349,0.039-0.693,0.101-1.033,0.177
			c-0.339,0.08-0.675,0.172-0.999,0.289c-0.318,0.112-0.658,0.255-0.911,0.405l0.064-0.048c-0.421,0.361-0.832,0.605-1.277,0.847
			c-0.444,0.225-0.9,0.431-1.373,0.581c-0.468,0.166-0.952,0.283-1.438,0.376c-0.487,0.099-0.978,0.147-1.472,0.186
			c-0.492,0.016-0.989,0.03-1.478-0.009c-0.491-0.036-0.982-0.073-1.464-0.167c-0.96-0.14-1.961-0.414-2.836-0.712l-2.687-0.845
			c-0.438-0.162-0.898-0.212-1.348-0.308c-0.452-0.078-0.903-0.193-1.356-0.243l-1.362-0.091c-0.454-0.032-0.897,0.044-1.345,0.059
			c-0.448,0.024-0.868,0.156-1.298,0.238l-0.603,0.214c-0.166,0.08-0.404,0.19-0.495,0.257l0.039-0.032
			c-0.363,0.31-0.685,0.516-1.052,0.72c-0.359,0.198-0.732,0.365-1.111,0.512c-0.382,0.141-0.77,0.258-1.165,0.351
			c-0.396,0.079-0.794,0.167-1.197,0.192c-0.804,0.097-1.611,0.044-2.406-0.042c-0.393-0.077-0.787-0.121-1.178-0.227
			c-0.381-0.112-0.807-0.197-1.15-0.337l-1.081-0.397c-0.343-0.115-0.679-0.274-1.027-0.354C12.455,42.11,12.109,42,11.76,41.964
			c-0.35-0.072-0.694-0.076-1.039-0.085c-0.682,0.02-1.34,0.181-1.882,0.532c-0.266,0.18-0.512,0.393-0.706,0.654
			c-0.196,0.244-0.369,0.568-0.451,0.817l-0.011,0.035c-0.12,0.389-0.222,0.865-0.241,1.308c-0.035,0.451,0,0.9,0.092,1.332
			c0.105,0.427,0.262,0.841,0.507,1.201c0.232,0.372,0.559,0.674,0.906,0.954l0.575,0.361c0.197,0.114,0.424,0.18,0.634,0.274
			c0.415,0.207,0.897,0.263,1.35,0.389c0.46,0.106,0.937,0.118,1.406,0.185c0.472,0.053,0.978,0.02,1.466,0.035
			c0.498,0.016,0.949-0.023,1.447-0.049c0.483-0.036,0.963-0.089,1.436-0.171c0.466-0.097,0.938-0.198,1.356-0.396
			c0.411-0.192,0.799-0.476,0.886-0.887c0.114-0.407-0.087-0.871-0.326-1.269c-0.25-0.404-0.573-0.772-0.916-1.117
			C17.559,45.376,16.787,44.759,15.976,44.204z"/>
	</g>
	<g>
		<path d="M22.406,46.015c0,0-0.02,0.153-0.006,0.438c0.014,0.283,0.049,0.703,0.202,1.2c0.152,0.493,0.438,1.07,0.957,1.535
			c0.509,0.477,1.259,0.786,2.115,0.907c0.851,0.156,1.817,0.083,2.822-0.033c0.504-0.096,1.018-0.173,1.545-0.29
			c0.537-0.121,1.086-0.244,1.645-0.369c2.23-0.507,4.617-1.027,7.054-1.427c1.229-0.122,2.449-0.347,3.666-0.377
			c1.215-0.055,2.411-0.14,3.565-0.072c1.153,0.048,2.273,0.042,3.322,0.166c1.048,0.116,2.04,0.226,2.955,0.328
			c0.916,0.081,1.741,0.267,2.477,0.395c0.734,0.135,1.373,0.253,1.9,0.35c1.049,0.209,1.649,0.328,1.649,0.328
			s-0.611-0.035-1.68-0.096c-0.533-0.038-1.179-0.084-1.921-0.137c-0.742-0.043-1.575-0.135-2.488-0.152
			c-0.91-0.037-1.896-0.077-2.939-0.119c-1.041-0.063-2.139,0.016-3.271-0.003c-1.135-0.037-2.297,0.118-3.482,0.171
			c-1.187,0.042-2.375,0.279-3.572,0.408c-1.194,0.195-2.384,0.388-3.561,0.619c-1.18,0.223-2.341,0.443-3.464,0.655
			c-0.563,0.102-1.116,0.203-1.658,0.301c-0.554,0.09-1.11,0.142-1.642,0.211c-0.54,0.031-1.07,0.049-1.58,0.034
			c-0.515-0.062-1.01-0.072-1.479-0.218c-0.94-0.2-1.774-0.658-2.292-1.268c-0.532-0.596-0.765-1.26-0.867-1.795
			c-0.111-0.54-0.063-0.973-0.04-1.258C22.364,46.163,22.406,46.015,22.406,46.015z"/>
	</g>
	<g>
		<path d="M30.558,43.932c0,0,0.093,0.052,0.277,0.125c0.176,0.086,0.46,0.16,0.799,0.287c0.356,0.088,0.774,0.228,1.278,0.296
			c0.493,0.107,1.065,0.133,1.676,0.201c0.618,0.01,1.285,0.049,1.989-0.004c0.715-0.05,1.424-0.104,2.216-0.228
			c0.793-0.088,1.564-0.26,2.385-0.373c0.827-0.132,1.674-0.242,2.533-0.312c0.857-0.084,1.714-0.049,2.557-0.079
			c0.84,0.012,1.662,0.086,2.458,0.124c0.797,0.038,1.555,0.162,2.279,0.24c0.722,0.088,1.406,0.165,2.031,0.276
			c1.251,0.209,2.286,0.436,3.013,0.57c0.725,0.146,1.137,0.246,1.137,0.246s-0.425,0.006-1.164-0.013
			c-0.738-0.031-1.795-0.04-3.053-0.114c-0.629-0.021-1.311-0.043-2.033-0.067c-0.72-0.018-1.48-0.07-2.261-0.077
			c-0.781-0.007-1.587-0.013-2.407-0.02c-0.813,0.043-1.644,0.024-2.464,0.116c-0.821,0.052-1.645,0.145-2.458,0.261
			c-0.822,0.109-1.659,0.22-2.439,0.275c-0.774,0.093-1.591,0.082-2.323,0.072c-0.741,0.002-1.443-0.121-2.08-0.209
			c-0.636-0.134-1.214-0.26-1.705-0.453c-0.501-0.153-0.91-0.365-1.252-0.512C30.881,44.209,30.558,43.932,30.558,43.932z"/>
	</g>
	<g>
		<path d="M20.595,41.124c0,0,0.786-0.58,2.206-1.531c0.711-0.475,1.566-1.064,2.577-1.694c1.012-0.631,2.115-1.398,3.444-2.064
			c1.288-0.743,2.766-1.349,4.075-2.277c1.355-0.912,2.555-2.169,3.685-3.541c0.273-0.353,0.548-0.709,0.826-1.068
			c0.247-0.383,0.495-0.768,0.745-1.155c0.527-0.757,0.928-1.611,1.382-2.437c0.877-1.685,1.734-3.495,2.881-5.143
			c0.571-0.827,1.234-1.611,2.004-2.312c0.781-0.682,1.778-1.256,2.899-1.365c1.119-0.113,2.209,0.266,3.057,0.819
			c0.42,0.282,0.815,0.592,1.183,0.913c0.345,0.359,0.691,0.64,1.024,1.056c0.284,0.358,0.566,0.714,0.845,1.066
			c0.273,0.361,0.576,0.673,0.789,1.096c0.452,0.799,0.947,1.567,1.26,2.349c0.721,1.55,1.272,3.006,1.98,4.264
			c0.292,0.665,0.763,1.179,1.102,1.742c0.185,0.271,0.35,0.547,0.538,0.796c0.206,0.234,0.407,0.462,0.601,0.682
			c0.39,0.443,0.754,0.857,1.092,1.24c0.326,0.396,0.717,0.669,1.022,0.964c1.264,1.147,1.986,1.803,1.986,1.803
			s-0.778-0.591-2.141-1.626c-0.327-0.276-0.741-0.524-1.098-0.901c-0.369-0.365-0.768-0.759-1.195-1.181
			c-0.214-0.212-0.435-0.43-0.662-0.655c-0.21-0.241-0.4-0.511-0.609-0.777c-0.204-0.271-0.413-0.549-0.627-0.834
			c-0.226-0.278-0.422-0.584-0.595-0.914c-0.785-1.265-1.423-2.756-2.181-4.215c-0.346-0.766-0.827-1.426-1.264-2.145
			c-0.459-0.705-1.107-1.378-1.668-2.088c-1.116-1.24-2.709-2.475-4.318-2.297c-0.797,0.082-1.568,0.505-2.239,1.099
			c-0.661,0.612-1.262,1.329-1.797,2.109c-1.108,1.546-1.955,3.264-2.872,4.971c-0.481,0.85-0.907,1.72-1.467,2.505
			c-0.266,0.399-0.53,0.797-0.793,1.191c-0.296,0.372-0.589,0.742-0.881,1.108c-1.191,1.441-2.536,2.702-4.007,3.609
			c-1.478,0.949-2.987,1.482-4.26,2.154c-1.311,0.603-2.47,1.289-3.518,1.843c-1.049,0.557-1.941,1.084-2.681,1.508
			C21.442,40.64,20.595,41.124,20.595,41.124z"/>
	</g>
	<g>
		<path d="M30.558,38.86c0.746-0.523,1.511-1.012,2.282-1.49c0.774-0.473,1.551-0.942,2.344-1.382
			c0.789-0.446,1.588-0.88,2.403-1.286c0.4-0.212,0.825-0.4,1.238-0.6c0.397-0.198,0.895-0.359,1.359-0.526l-0.413,0.353
			c0.245-0.576,0.498-1.089,0.796-1.602c0.295-0.509,0.618-0.999,0.95-1.482c0.34-0.478,0.7-0.941,1.089-1.381
			c0.186-0.227,0.398-0.431,0.595-0.647c0.197-0.217,0.406-0.423,0.624-0.619c0.422-0.406,0.888-0.765,1.344-1.13
			c0.233-0.177,0.483-0.331,0.724-0.495c0.238-0.168,0.488-0.318,0.746-0.456c0.5-0.3,1.031-0.541,1.566-0.761
			c0.526-0.239,1.099-0.367,1.643-0.536c-0.493,0.304-1.009,0.537-1.474,0.864l-0.709,0.459l-0.673,0.507
			c-0.461,0.316-0.857,0.719-1.283,1.072c-0.4,0.388-0.808,0.764-1.171,1.185c-0.761,0.807-1.432,1.692-2.06,2.602
			c-0.305,0.462-0.602,0.929-0.869,1.412c-0.269,0.475-0.539,0.977-0.746,1.448l-0.105,0.239l-0.308,0.115
			c-0.384,0.143-0.755,0.242-1.173,0.439c-0.41,0.173-0.823,0.327-1.233,0.516l-2.471,1.089
			C33.919,37.491,32.26,38.213,30.558,38.86z"/>
	</g>
	<g>
		<path d="M45.05,29.1c0,0,0.627,0.962,1.677,2.268c0.263,0.327,0.551,0.674,0.866,1.033c0.3,0.37,0.666,0.716,1.007,1.103
			c0.359,0.371,0.751,0.733,1.14,1.105c0.412,0.347,0.8,0.737,1.251,1.045c0.424,0.344,0.858,0.675,1.318,0.952
			c0.228,0.141,0.442,0.301,0.667,0.437c0.23,0.127,0.458,0.253,0.681,0.377c0.442,0.263,0.892,0.466,1.325,0.656
			c0.215,0.099,0.425,0.195,0.628,0.287c0.21,0.074,0.413,0.146,0.608,0.215c0.394,0.128,0.75,0.283,1.077,0.379
			c0.331,0.087,0.62,0.163,0.857,0.225c0.481,0.141,0.756,0.221,0.756,0.221s-0.283,0.014-0.786,0.016
			c-0.253-0.003-0.56-0.006-0.912-0.01c-0.351-0.021-0.741-0.095-1.172-0.165c-0.216-0.037-0.44-0.075-0.673-0.114
			c-0.225-0.069-0.458-0.14-0.697-0.213c-0.481-0.144-0.993-0.295-1.481-0.548c-0.501-0.225-1.023-0.456-1.501-0.781
			c-0.502-0.288-0.977-0.629-1.44-0.988c-0.475-0.345-0.88-0.768-1.309-1.151c-0.411-0.4-0.777-0.832-1.131-1.245
			c-0.683-0.849-1.249-1.692-1.655-2.457C45.309,30.234,45.05,29.1,45.05,29.1z"/>
	</g>
	<g>
		<path d="M41.427,15.945c0,0,0.048,0.128,0.137,0.369c0.081,0.243,0.206,0.602,0.295,1.078c0.083,0.475,0.188,1.066,0.052,1.78
			c-0.073,0.347-0.235,0.765-0.621,1.043c-0.38,0.284-0.883,0.345-1.329,0.304c-0.907-0.092-1.772-0.459-2.619-0.911
			c-0.889-0.494-1.659-0.963-2.522-1.695c-0.797-0.72-1.591-1.543-2.092-2.625c-0.51-1.065-0.679-2.358-0.381-3.554
			c0.292-1.198,0.997-2.26,1.997-2.991l0.408-0.244c0.055-0.027,0.022-0.024,0.148-0.075l0.093-0.036l0.186-0.072
			c0.26-0.087,0.462-0.202,0.803-0.247c0.628-0.142,1.229-0.134,1.798-0.011c1.153,0.248,2.072,0.964,2.692,1.738
			c0.633,0.797,1.032,1.586,1.437,2.287c0.407,0.704,0.78,1.334,1.183,1.839c0.198,0.256,0.393,0.488,0.601,0.676
			c0.194,0.205,0.387,0.377,0.58,0.511c0.364,0.299,0.681,0.494,0.899,0.627c0.217,0.136,0.333,0.209,0.333,0.209
			s-0.126-0.052-0.362-0.151c-0.236-0.1-0.597-0.226-1.003-0.493c-0.216-0.115-0.437-0.266-0.665-0.453
			c-0.243-0.17-0.476-0.386-0.718-0.629c-0.492-0.476-0.966-1.088-1.43-1.764c-0.474-0.673-0.958-1.428-1.529-2.065
			c-0.586-0.644-1.368-1.135-2.222-1.292c-0.425-0.079-0.886-0.053-1.279,0.047C36.108,9.15,35.838,9.297,35.6,9.389l-0.185,0.074
			L35.322,9.5c0.062-0.031-0.022,0.017-0.026,0.021l-0.279,0.171c-0.726,0.545-1.293,1.402-1.498,2.327
			c-0.24,0.919-0.135,1.909,0.269,2.785c0.398,0.88,1.047,1.652,1.736,2.315c0.669,0.617,1.543,1.256,2.265,1.71
			c0.771,0.472,1.542,0.867,2.258,1.006c0.727,0.155,1.26-0.17,1.437-0.781c0.191-0.579,0.173-1.169,0.147-1.633
			C41.56,16.481,41.427,15.945,41.427,15.945z"/>
	</g>
</g>
</svg>
