<?xml version="1.0" encoding="utf-8"?>
<!-- Generator: Adobe Illustrator 17.0.0, SVG Export Plug-In . SVG Version: 6.00 Build 0)  -->
<!DOCTYPE svg PUBLIC "-//W3C//DTD SVG 1.1//EN" "http://www.w3.org/Graphics/SVG/1.1/DTD/svg11.dtd">
<svg version="1.1" id="Layer_1" xmlns="http://www.w3.org/2000/svg" xmlns:xlink="http://www.w3.org/1999/xlink" x="0px" y="0px"
	 width="72px" height="72px" viewBox="0 0 72 72" enable-background="new 0 0 72 72" xml:space="preserve">
<ellipse fill="#FFFFFF" cx="35.971" cy="35.645" rx="34.68" ry="34.355"/>
<g>
	<path d="M70.518,57.212c-0.327-0.107-0.664-0.232-1.019-0.365c-0.487-0.182-0.991-0.37-1.506-0.521
		c-1.815-0.572-3.228-0.071-4.092,1.449c0.575-0.116,0.963-0.138,1.734-0.142c0.206-0.001,0.357-0.17,0.503-0.333
		c0.084-0.094,0.171-0.192,0.268-0.256l0.071-0.047l-0.039,0.077c-0.1,0.195-0.202,0.4-0.301,0.611
		c0.327,0.037,0.646,0.078,0.949,0.122c0.048,0.007,0.281-0.125,0.486-0.242c0.187-0.107,0.399-0.227,0.559-0.297l0.156-0.068
		l-0.133,0.106c-0.218,0.173-0.432,0.361-0.639,0.559c0.41,0.056,0.838,0.107,1.305,0.157c0.155,0.016,0.337-0.077,0.512-0.167
		c0.096-0.049,0.195-0.1,0.29-0.134l0.126-0.045l-0.105,0.084c-0.121,0.096-0.243,0.197-0.361,0.299
		c0.778,0.048,1.426,0.02,2.036-0.088c-0.615,0.125-1.27,0.219-2.077,0.201c0.162,0.214,0.322,0.415,0.479,0.596l0.084,0.097
		l-0.111-0.063c-0.124-0.07-0.249-0.181-0.37-0.29c-0.192-0.171-0.39-0.349-0.584-0.36c-0.419-0.022-0.838-0.054-1.265-0.087
		c0.28,0.436,0.557,0.836,0.824,1.192l0.119,0.158l-0.15-0.128c-0.184-0.156-0.412-0.405-0.632-0.645
		c-0.273-0.299-0.555-0.607-0.653-0.615c-0.291-0.022-0.578-0.039-0.851-0.05c0.152,0.389,0.305,0.769,0.455,1.129l0.064,0.156
		l-0.102-0.133c-0.102-0.133-0.216-0.323-0.326-0.506c-0.182-0.303-0.387-0.645-0.508-0.658c-0.778-0.084-1.551-0.028-2.308,0.164
		c0.955-1.248,1.822-2.555,2.596-3.911c0.094-0.157,0.182-0.318,0.268-0.479c0.019-0.034,0.038-0.067,0.057-0.101l-0.002-0.005
		c0.426-0.828,0.739-1.71,0.924-2.628c0.037-0.185-0.374-0.649-0.736-1.059c-0.22-0.248-0.447-0.504-0.596-0.718l-0.149-0.213
		l0.2,0.168c0.464,0.39,0.954,0.793,1.458,1.2c0.111-0.41,0.219-0.841,0.323-1.283c0.035-0.149-0.29-0.711-0.604-1.253
		c-0.253-0.438-0.515-0.891-0.66-1.235l-0.118-0.283l0.178,0.251c0.401,0.561,0.864,1.158,1.378,1.775
		c0.15-0.647,0.299-1.281,0.461-1.911c0.074-0.291-0.095-0.667-0.259-1.031c-0.103-0.23-0.21-0.467-0.256-0.683l-0.04-0.193
		l0.105,0.169c0.195,0.316,0.416,0.647,0.657,0.986c0.35-1.201,0.795-2.126,1.267-2.976c-0.445,0.85-0.789,1.796-1.08,2.969
		c0.206-0.128,0.412-0.26,0.61-0.394l0.173-0.117l-0.125,0.166c-0.094,0.125-0.216,0.248-0.334,0.367
		c-0.216,0.217-0.439,0.442-0.486,0.68c-0.145,0.715-0.268,1.371-0.377,2.004c0.389-0.214,0.767-0.444,1.125-0.685l0.219-0.148
		l-0.172,0.198c-0.177,0.203-0.455,0.461-0.7,0.688c-0.268,0.249-0.572,0.532-0.584,0.607c-0.077,0.468-0.165,0.959-0.263,1.46
		c0.358-0.049,0.71-0.103,1.044-0.16l0.132-0.023l-0.103,0.083c-0.141,0.114-0.326,0.197-0.504,0.277
		c-0.309,0.139-0.63,0.283-0.728,0.588c-0.365,1.138-0.58,1.702-1.019,2.498c2.65-0.568,4.05-2.425,4.052-5.374
		c0.016-0.833-0.027-1.665-0.069-2.47c-0.03-0.587-0.058-1.143-0.064-1.677c-0.025-1.288,0.091-2.361,0.344-3.192
		c-1.757,1.043-4.052,2.807-5.187,5.359c-1.061,2.372-1.308,4.022,0.159,6.987c0.012,0.026,0.02,0.053,0.023,0.081
		c-1.271,2.014-2.76,3.903-4.452,5.627c-0.072-0.386-0.108-0.725,0.021-0.775c1.378-0.535,1.762-1.275,2.062-2.631
		c0.326-1.457,0.008-3.093-0.322-4.226c-0.148,0.426-0.414,0.888-0.793,1.376c-0.155,0.204-0.325,0.406-0.504,0.621
		c-0.246,0.293-0.5,0.597-0.734,0.925c-0.846,1.139-0.876,2.439-0.089,3.76c0.071-0.49,0.156-0.797,0.352-1.388
		c0.052-0.158-0.021-0.347-0.092-0.529c-0.041-0.105-0.084-0.214-0.101-0.317l-0.013-0.075l0.041,0.064
		c0.103,0.161,0.214,0.328,0.328,0.496c0.109-0.234,0.218-0.46,0.325-0.673c0.017-0.033-0.01-0.269-0.035-0.477
		c-0.022-0.19-0.048-0.405-0.053-0.557l-0.006-0.148l0.037,0.148c0.059,0.242,0.128,0.489,0.207,0.732
		c0.142-0.289,0.287-0.594,0.44-0.93c0.052-0.112,0.036-0.291,0.021-0.465c-0.008-0.095-0.017-0.192-0.015-0.28l0.003-0.116
		l0.029,0.117c0.032,0.134,0.068,0.271,0.106,0.406c0.232-0.574,0.38-1.082,0.465-1.595c-0.075,0.525-0.181,1.067-0.4,1.676
		c0.184-0.03,0.358-0.066,0.519-0.107l0.086-0.022l-0.07,0.058c-0.078,0.064-0.185,0.112-0.288,0.157
		c-0.163,0.072-0.332,0.147-0.389,0.29c-0.123,0.311-0.251,0.617-0.383,0.929c0.362-0.024,0.699-0.062,1.003-0.112l0.136-0.022
		l-0.124,0.06c-0.151,0.073-0.375,0.139-0.591,0.203c-0.269,0.079-0.546,0.161-0.577,0.233c-0.09,0.213-0.174,0.424-0.253,0.629
		c0.298,0.052,0.589,0.1,0.867,0.143l0.12,0.018l-0.115,0.021c-0.115,0.02-0.27,0.025-0.42,0.029
		c-0.247,0.008-0.528,0.016-0.568,0.103c-0.343,0.751-0.516,1.604-0.518,2.539c-2.661,2.646-5.81,4.89-9.398,6.583
		c-4.213,1.987-8.629,3.026-13.009,3.206c-0.798,0.054-1.603,0.083-2.415,0.083c-19.493,0-35.295-15.802-35.295-35.294
		c0-0.631,0.018-1.257,0.051-1.88C0.235,38.59,1.143,45.407,4.147,51.775C12.37,69.203,33.168,76.669,50.6,68.447
		c4.943-2.331,9.082-5.674,12.291-9.665c0.446-0.324,0.912-0.635,1.088-0.466c1.539,1.477,2.602,1.646,4.267,1.453
		c1.79-0.202,3.32-1.272,4.302-2.15C71.988,57.614,71.305,57.477,70.518,57.212z"/>
	<path d="M3.036,14.394c0.484,0.19,0.984,0.386,1.497,0.546c1.805,0.601,3.227,0.123,4.114-1.382
		c-0.577,0.106-0.965,0.123-1.736,0.114c-0.206-0.002-0.36,0.164-0.508,0.325c-0.085,0.093-0.174,0.189-0.272,0.252L6.06,14.294
		l0.041-0.076c0.104-0.193,0.209-0.397,0.312-0.606c-0.327-0.043-0.645-0.089-0.947-0.138c-0.048-0.008-0.283,0.121-0.49,0.234
		c-0.189,0.103-0.403,0.221-0.564,0.287L4.255,14.06l0.135-0.104c0.221-0.17,0.439-0.355,0.649-0.549
		c-0.409-0.063-0.836-0.121-1.303-0.179c-0.156-0.019-0.338,0.071-0.515,0.159c-0.097,0.048-0.196,0.097-0.293,0.13L2.801,13.56
		l0.107-0.082c0.122-0.094,0.245-0.193,0.365-0.293c-0.777-0.061-1.425-0.044-2.037,0.055c0.616-0.115,1.273-0.198,2.079-0.167
		C3.157,12.856,3,12.653,2.846,12.469l-0.082-0.098l0.11,0.064c0.123,0.072,0.246,0.186,0.366,0.296
		c0.189,0.175,0.385,0.355,0.578,0.369c0.418,0.029,0.836,0.068,1.263,0.108c-0.273-0.44-0.543-0.846-0.805-1.205l-0.117-0.16
		l0.149,0.13c0.181,0.159,0.405,0.411,0.622,0.656c0.268,0.303,0.545,0.616,0.643,0.626c0.291,0.027,0.577,0.048,0.851,0.064
		c-0.147-0.391-0.293-0.774-0.437-1.137l-0.062-0.157l0.1,0.135c0.1,0.135,0.21,0.327,0.317,0.512
		c0.177,0.305,0.377,0.651,0.498,0.666c0.777,0.096,1.551,0.053,2.311-0.127c-0.976,1.232-1.864,2.525-2.66,3.868
		c-0.097,0.156-0.188,0.315-0.276,0.475c-0.019,0.034-0.039,0.066-0.058,0.1l0.002,0.005c-0.439,0.821-0.767,1.697-0.967,2.613
		c-0.04,0.184,0.363,0.655,0.719,1.071c0.215,0.251,0.438,0.512,0.584,0.728l0.146,0.216l-0.198-0.171
		c-0.457-0.397-0.941-0.809-1.438-1.224C4.887,21.3,4.772,21.73,4.661,22.169c-0.037,0.148,0.278,0.715,0.583,1.263
		c0.246,0.442,0.5,0.899,0.639,1.246l0.114,0.285L5.822,24.71c-0.391-0.567-0.844-1.171-1.348-1.797
		c-0.161,0.644-0.32,1.276-0.492,1.903c-0.079,0.29,0.084,0.669,0.243,1.035c0.099,0.231,0.203,0.47,0.244,0.687l0.037,0.194
		l-0.101-0.171C4.216,26.239,4,25.904,3.764,25.562c-0.37,1.194-0.83,2.112-1.315,2.955c0.459-0.843,0.818-1.783,1.128-2.951
		C3.369,25.69,3.161,25.819,2.96,25.95l-0.175,0.114L2.913,25.9c0.097-0.124,0.22-0.244,0.34-0.361
		c0.22-0.214,0.446-0.435,0.498-0.672c0.156-0.713,0.29-1.367,0.409-1.997c-0.392,0.207-0.774,0.431-1.137,0.666l-0.22,0.144
		l0.175-0.195c0.18-0.201,0.462-0.454,0.711-0.677c0.272-0.245,0.581-0.522,0.594-0.597c0.084-0.467,0.181-0.957,0.286-1.456
		c-0.359,0.042-0.711,0.091-1.047,0.143L3.391,20.92l0.104-0.081c0.143-0.111,0.329-0.191,0.509-0.268
		c0.312-0.134,0.634-0.273,0.737-0.576c0.384-1.131,0.607-1.692,1.06-2.481c-2.659,0.524-4.09,2.358-4.14,5.307
		c-0.03,0.833,0,1.666,0.029,2.471c0.02,0.588,0.04,1.144,0.036,1.678c0.003,1.289-0.13,2.36-0.396,3.187
		c1.773-1.014,4.097-2.74,5.273-5.273c1.1-2.354,1.374-4-0.045-6.988c-0.012-0.026-0.019-0.054-0.022-0.082
		c1.303-1.993,2.823-3.857,4.544-5.554c0.066,0.387,0.095,0.727-0.035,0.775c-1.386,0.512-1.783,1.246-2.105,2.597
		c-0.35,1.452-0.059,3.093,0.253,4.231c0.155-0.423,0.428-0.882,0.815-1.362c0.159-0.202,0.332-0.401,0.514-0.613
		c0.25-0.289,0.51-0.589,0.749-0.913c0.865-1.125,0.916-2.424,0.151-3.758c-0.079,0.489-0.169,0.794-0.374,1.382
		c-0.056,0.158,0.015,0.347,0.083,0.531c0.039,0.106,0.08,0.215,0.096,0.318l0.012,0.075l-0.04-0.064
		c-0.101-0.163-0.208-0.332-0.32-0.501c-0.113,0.232-0.226,0.456-0.336,0.668c-0.018,0.033,0.007,0.269,0.028,0.477
		c0.02,0.19,0.041,0.405,0.044,0.558l0.002,0.148l-0.034-0.148c-0.055-0.243-0.12-0.491-0.195-0.736
		c-0.147,0.287-0.296,0.589-0.455,0.923c-0.053,0.111-0.041,0.291-0.028,0.465c0.007,0.095,0.013,0.193,0.011,0.28l-0.005,0.116
		l-0.027-0.117c-0.03-0.135-0.064-0.272-0.099-0.408c-0.242,0.57-0.398,1.076-0.491,1.587c0.083-0.523,0.198-1.064,0.427-1.669
		C9.537,17.129,9.362,17.162,9.2,17.2l-0.086,0.021l0.071-0.057c0.079-0.063,0.187-0.109,0.29-0.152
		c0.164-0.069,0.334-0.141,0.393-0.284c0.128-0.309,0.261-0.613,0.398-0.923c-0.362,0.019-0.699,0.051-1.005,0.096l-0.136,0.021
		l0.125-0.058c0.151-0.071,0.377-0.132,0.594-0.193c0.269-0.074,0.548-0.152,0.58-0.223c0.094-0.212,0.182-0.422,0.263-0.625
		c-0.297-0.057-0.587-0.11-0.865-0.157l-0.119-0.02l0.115-0.019c0.115-0.018,0.271-0.02,0.421-0.022
		c0.247-0.004,0.528-0.007,0.569-0.093c0.356-0.745,0.543-1.596,0.56-2.53c2.704-2.602,5.889-4.795,9.505-6.428
		c4.245-1.918,8.678-2.885,13.059-2.993c0.799-0.041,1.604-0.057,2.416-0.043C55.838,2.832,71.379,18.89,71.061,38.38
		c-0.01,0.631-0.038,1.257-0.081,1.879c1.012-6.473,0.215-13.304-2.684-19.721C60.359,2.973,39.686-4.832,22.122,3.104
		c-4.98,2.25-9.173,5.525-12.447,9.463c-0.451,0.316-0.922,0.62-1.095,0.448c-1.515-1.503-2.575-1.688-4.242-1.523
		C2.544,11.665,0.996,12.709,0,13.571c0.559,0.015,1.24,0.163,2.023,0.441C2.349,14.124,2.683,14.255,3.036,14.394z"/>
	<path d="M40.985,37.703c0.791-2.844,2.696-3.239,2.696-3.239l0.221-0.078c3.292-1.342,6.873-0.597,8.94,1.863
		c1.878,2.236,1.822,5.07-0.18,8.32c-0.32,0.519-0.819,0.962-1.013,1.518c-0.401,1.147-1.051,2.409-0.879,3.511
		c0.34,2.171-0.07,4.082-1.165,5.847c-0.942,1.519-2.118,2.893-3.226,4.379c0.22,0.013,0.373,0.071,0.46,0.019
		c0.408-0.241,0.818-0.488,1.193-0.777c3.596-2.774,6.599-6.065,8.693-10.124c3.224-6.249,2.245-11.312-3.106-15.798
		c-1.873-1.57-2.964-3.498-3.221-5.914c-0.05-0.473-0.202-0.953-0.158-1.416c0.447-4.716-1.815-7.995-5.176-11.062
		c-3.876-3.536-8.068-4.734-12.916-2.943c-7.9,2.918-12.509,8.838-14.556,16.851c-1.562,6.112-1.862,12.343-1.417,18.618
		c0.198,2.794-0.02,5.43-2.603,7.226c0.11,0.138,0.22,0.277,0.331,0.415c1.312-1.029,2.625-2.059,3.918-3.073
		c5.102,7.685,11.251,12.238,15.772,11.419c-0.853-0.561-1.595-1.048-2.379-1.563c1.67-0.543,3.212-1.045,4.769-1.552
		c-1.777-0.162-3.405-0.053-4.863-0.5c-2.599-0.796-4.728-2.454-6.135-4.804c-4.645-7.758-3.474-15.462,0.442-23.065
		c0.595-1.154,1.486-2.156,2.24-3.228c0.178,0.095,0.356,0.19,0.534,0.285c-3.223,4.444-4.979,9.264-3.999,14.883
		c-0.38-8.246,5.051-13.979,11.8-15.906c3.86-1.102,7.995-2.05,9.522-6.746c1.884,2.514,1.879,4.762,0.31,7.196
		c-0.537,0.834-1.016,1.761-1.256,2.713c-0.188,0.746,0.264,1.685-0.005,2.367c-0.193,0.49-1.104,0.698-1.695,1.031
		c-1.434,0.447-2.503,2.046-2.503,2.046c-1.058,2.804-1.882,3.028-4.067,1.201c-0.909-0.76-1.726-1.631-2.881-2.735
		c-0.355,1.111-0.767,1.896-0.835,2.71c-0.206,2.491,0.941,4.41,2.748,6.041c2.252,2.034,4.52,4.08,5.204,7.397
		c0.778-0.652,1.473-1.234,2.254-1.889c-3.12-0.953-4.322-4.947-2.382-7.161c0.309-0.353,0.43-0.944,0.475-1.44
		C40.976,39.604,41.007,38.651,40.985,37.703"/>
</g>
</svg>
