<?xml version="1.0" encoding="utf-8"?>
<!-- Generator: Adobe Illustrator 17.0.0, SVG Export Plug-In . SVG Version: 6.00 Build 0)  -->
<!DOCTYPE svg PUBLIC "-//W3C//DTD SVG 1.1//EN" "http://www.w3.org/Graphics/SVG/1.1/DTD/svg11.dtd">
<svg version="1.1" id="Layer_1" xmlns="http://www.w3.org/2000/svg" xmlns:xlink="http://www.w3.org/1999/xlink" x="0px" y="0px"
	 width="72px" height="72px" viewBox="0 0 72 72" enable-background="new 0 0 72 72" xml:space="preserve">
<ellipse fill="#FFFFFF" cx="35.971" cy="35.645" rx="34.68" ry="34.355"/>
<g>
	<path d="M70.054,56.551c-0.325-0.106-0.66-0.231-1.013-0.362c-0.484-0.181-0.984-0.367-1.496-0.518
		c-1.803-0.568-3.207-0.07-4.065,1.44c0.571-0.115,0.957-0.137,1.722-0.141c0.205-0.001,0.355-0.169,0.5-0.331
		c0.083-0.094,0.17-0.19,0.266-0.255l0.07-0.047L66,56.413c-0.1,0.193-0.201,0.398-0.299,0.607c0.325,0.037,0.642,0.078,0.943,0.121
		c0.048,0.007,0.279-0.124,0.483-0.24c0.186-0.106,0.396-0.226,0.555-0.295l0.155-0.067l-0.132,0.105
		c-0.216,0.172-0.43,0.359-0.635,0.555c0.407,0.055,0.832,0.107,1.297,0.156c0.154,0.016,0.335-0.076,0.509-0.166
		c0.095-0.049,0.194-0.1,0.288-0.133l0.125-0.044l-0.104,0.083c-0.121,0.096-0.241,0.196-0.358,0.297
		c0.773,0.048,1.417,0.02,2.022-0.087c-0.611,0.124-1.262,0.218-2.063,0.2c0.161,0.213,0.32,0.412,0.476,0.592l0.083,0.097
		l-0.11-0.062c-0.123-0.069-0.248-0.18-0.368-0.288c-0.191-0.17-0.388-0.347-0.58-0.357c-0.416-0.022-0.833-0.054-1.256-0.087
		c0.278,0.433,0.553,0.831,0.819,1.184l0.118,0.157l-0.149-0.127c-0.183-0.155-0.409-0.402-0.628-0.641
		c-0.271-0.297-0.552-0.603-0.649-0.611c-0.29-0.022-0.574-0.039-0.846-0.05c0.151,0.386,0.303,0.764,0.452,1.122l0.064,0.155
		l-0.102-0.132c-0.101-0.133-0.214-0.321-0.324-0.503c-0.18-0.301-0.385-0.641-0.505-0.654c-0.773-0.083-1.541-0.028-2.293,0.163
		c0.949-1.24,1.81-2.538,2.579-3.885c0.094-0.156,0.181-0.316,0.266-0.476c0.019-0.034,0.038-0.067,0.056-0.1l-0.002-0.005
		c0.423-0.823,0.734-1.699,0.918-2.611c0.036-0.184-0.371-0.645-0.731-1.052c-0.219-0.246-0.444-0.501-0.593-0.713l-0.148-0.212
		l0.199,0.167c0.461,0.387,0.948,0.788,1.449,1.192c0.11-0.408,0.218-0.836,0.32-1.274c0.034-0.148-0.288-0.706-0.6-1.245
		c-0.252-0.435-0.512-0.885-0.655-1.227l-0.117-0.281l0.177,0.249c0.399,0.557,0.858,1.15,1.369,1.763
		c0.149-0.643,0.297-1.273,0.458-1.898c0.074-0.289-0.094-0.663-0.257-1.024c-0.102-0.228-0.209-0.464-0.254-0.678l-0.04-0.192
		l0.104,0.168c0.194,0.314,0.414,0.643,0.653,0.979c0.348-1.193,0.79-2.112,1.258-2.957c-0.442,0.845-0.783,1.784-1.073,2.95
		c0.205-0.127,0.409-0.258,0.606-0.392l0.172-0.116l-0.124,0.165c-0.094,0.125-0.215,0.246-0.332,0.364
		c-0.214,0.216-0.436,0.439-0.483,0.675c-0.144,0.71-0.266,1.362-0.374,1.991c0.386-0.212,0.762-0.441,1.118-0.68l0.217-0.147
		l-0.171,0.197c-0.176,0.202-0.452,0.458-0.695,0.684c-0.266,0.248-0.568,0.528-0.58,0.603c-0.076,0.465-0.164,0.953-0.261,1.451
		c0.356-0.048,0.705-0.102,1.038-0.159l0.131-0.023l-0.102,0.082c-0.14,0.113-0.323,0.195-0.501,0.275
		c-0.307,0.138-0.626,0.281-0.723,0.584c-0.363,1.13-0.576,1.691-1.012,2.481c2.632-0.564,4.024-2.409,4.026-5.339
		c0.016-0.827-0.027-1.654-0.069-2.454c-0.03-0.583-0.058-1.135-0.063-1.666c-0.024-1.28,0.091-2.346,0.342-3.171
		c-1.745,1.036-4.025,2.788-5.152,5.324c-1.054,2.356-1.299,3.996,0.158,6.941c0.012,0.026,0.02,0.053,0.023,0.081
		c-1.262,2.001-2.741,3.877-4.423,5.59c-0.072-0.383-0.107-0.72,0.021-0.77c1.368-0.531,1.75-1.266,2.049-2.614
		c0.324-1.448,0.008-3.073-0.32-4.198c-0.147,0.423-0.411,0.882-0.787,1.367c-0.154,0.203-0.323,0.404-0.501,0.617
		c-0.244,0.291-0.497,0.593-0.729,0.919c-0.84,1.132-0.871,2.423-0.089,3.735c0.071-0.486,0.155-0.791,0.349-1.379
		c0.052-0.157-0.021-0.345-0.092-0.526c-0.041-0.104-0.083-0.213-0.1-0.315l-0.013-0.074l0.041,0.063
		c0.103,0.16,0.213,0.326,0.326,0.493c0.108-0.232,0.217-0.457,0.323-0.669c0.017-0.033-0.01-0.267-0.035-0.474
		c-0.022-0.189-0.047-0.402-0.053-0.553l-0.006-0.147l0.037,0.147c0.059,0.241,0.127,0.485,0.205,0.728
		c0.141-0.287,0.285-0.59,0.437-0.924c0.051-0.111,0.036-0.29,0.021-0.462c-0.008-0.094-0.017-0.191-0.015-0.278l0.003-0.115
		l0.029,0.116c0.032,0.134,0.068,0.269,0.105,0.403c0.23-0.571,0.378-1.075,0.462-1.585c-0.075,0.521-0.18,1.06-0.398,1.665
		c0.182-0.03,0.356-0.065,0.516-0.106l0.085-0.022l-0.07,0.057c-0.078,0.064-0.184,0.111-0.286,0.156
		c-0.162,0.071-0.33,0.146-0.386,0.288c-0.122,0.309-0.249,0.613-0.38,0.923c0.359-0.024,0.694-0.062,0.997-0.111l0.135-0.022
		l-0.123,0.06c-0.15,0.073-0.372,0.138-0.587,0.201c-0.267,0.078-0.543,0.16-0.573,0.231c-0.089,0.211-0.173,0.422-0.251,0.625
		c0.296,0.052,0.585,0.1,0.862,0.142l0.119,0.018l-0.114,0.02c-0.114,0.02-0.268,0.024-0.417,0.029
		c-0.246,0.008-0.525,0.016-0.564,0.102c-0.341,0.746-0.513,1.594-0.515,2.522c-2.643,2.628-5.772,4.858-9.337,6.539
		c-4.186,1.974-8.573,3.006-12.923,3.185c-0.793,0.054-1.592,0.083-2.399,0.083c-19.364,0-35.063-15.698-35.063-35.062
		c0-0.627,0.018-1.249,0.05-1.868c-0.9,6.446,0.002,13.218,2.986,19.545c8.168,17.318,28.829,24.735,46.147,16.567
		c4.91-2.316,9.022-5.637,12.21-9.601c0.443-0.322,0.906-0.631,1.081-0.463c1.529,1.468,2.585,1.635,4.239,1.444
		c1.778-0.201,3.299-1.263,4.274-2.136C71.515,56.95,70.836,56.814,70.054,56.551z"/>
	<path d="M3.016,14.014c0.481,0.188,0.978,0.383,1.487,0.542c1.793,0.597,3.205,0.122,4.087-1.373
		c-0.573,0.106-0.959,0.122-1.724,0.113c-0.205-0.002-0.358,0.163-0.505,0.323c-0.085,0.092-0.173,0.188-0.27,0.25L6.02,13.915
		l0.041-0.075c0.103-0.192,0.207-0.394,0.31-0.602C6.046,13.196,5.73,13.15,5.43,13.101c-0.048-0.008-0.281,0.12-0.487,0.233
		c-0.188,0.103-0.401,0.219-0.56,0.285l-0.156,0.065L4.36,13.58c0.219-0.169,0.436-0.352,0.644-0.545
		c-0.406-0.062-0.83-0.12-1.294-0.177c-0.155-0.019-0.336,0.071-0.512,0.158c-0.096,0.047-0.195,0.097-0.291,0.129l-0.126,0.042
		l0.106-0.081c0.122-0.094,0.244-0.191,0.363-0.291c-0.772-0.061-1.416-0.043-2.023,0.054c0.612-0.114,1.265-0.197,2.066-0.166
		c-0.157-0.215-0.313-0.417-0.466-0.6l-0.081-0.098l0.109,0.064c0.122,0.071,0.245,0.184,0.363,0.294
		c0.188,0.174,0.382,0.353,0.574,0.367c0.416,0.029,0.831,0.067,1.255,0.107c-0.271-0.438-0.54-0.84-0.8-1.197l-0.115-0.16
		l0.148,0.129c0.18,0.158,0.402,0.409,0.617,0.651c0.266,0.301,0.541,0.612,0.639,0.622c0.289,0.027,0.573,0.048,0.845,0.063
		c-0.146-0.388-0.291-0.769-0.434-1.129L5.886,11.66l0.099,0.134c0.099,0.134,0.209,0.324,0.315,0.508
		c0.176,0.303,0.375,0.647,0.495,0.662c0.772,0.096,1.54,0.053,2.296-0.126c-0.969,1.224-1.852,2.508-2.643,3.843
		c-0.096,0.155-0.186,0.313-0.274,0.472c-0.019,0.033-0.039,0.066-0.058,0.099l0.002,0.005c-0.436,0.816-0.762,1.686-0.96,2.596
		c-0.04,0.183,0.361,0.651,0.714,1.064c0.214,0.25,0.435,0.508,0.58,0.723l0.145,0.214l-0.196-0.17
		c-0.454-0.395-0.935-0.804-1.428-1.216c-0.117,0.406-0.232,0.832-0.341,1.269c-0.037,0.148,0.276,0.71,0.579,1.255
		c0.244,0.439,0.497,0.893,0.635,1.238l0.113,0.283L5.785,24.26c-0.389-0.564-0.839-1.164-1.339-1.785
		c-0.16,0.64-0.318,1.267-0.489,1.89c-0.078,0.288,0.084,0.664,0.241,1.028c0.099,0.23,0.201,0.467,0.243,0.682l0.037,0.192
		l-0.1-0.17c-0.189-0.317-0.404-0.65-0.638-0.99c-0.367,1.187-0.824,2.098-1.307,2.936c0.456-0.837,0.813-1.771,1.121-2.932
		c-0.207,0.123-0.413,0.251-0.613,0.381l-0.174,0.114l0.127-0.163C2.99,25.32,3.113,25.2,3.232,25.084
		c0.218-0.212,0.443-0.432,0.495-0.667c0.155-0.708,0.288-1.358,0.406-1.984c-0.39,0.206-0.769,0.428-1.129,0.662l-0.219,0.143
		l0.174-0.194c0.179-0.199,0.459-0.451,0.706-0.673c0.27-0.243,0.577-0.519,0.59-0.593c0.084-0.464,0.179-0.951,0.284-1.446
		c-0.357,0.042-0.706,0.09-1.04,0.142l-0.131,0.021l0.103-0.081c0.142-0.111,0.327-0.19,0.505-0.266
		c0.31-0.133,0.63-0.271,0.732-0.572c0.382-1.124,0.603-1.681,1.053-2.464c-2.642,0.521-4.063,2.343-4.112,5.272
		c-0.029,0.827,0,1.655,0.028,2.455c0.02,0.584,0.039,1.136,0.036,1.667c0.003,1.28-0.129,2.344-0.393,3.166
		c1.762-1.007,4.07-2.722,5.238-5.239c1.093-2.339,1.365-3.974-0.044-6.943c-0.012-0.026-0.019-0.053-0.022-0.081
		c1.295-1.98,2.805-3.832,4.514-5.517c0.065,0.384,0.095,0.722-0.034,0.77c-1.377,0.509-1.771,1.238-2.091,2.58
		c-0.347,1.443-0.059,3.072,0.251,4.203c0.154-0.421,0.426-0.876,0.809-1.353c0.158-0.2,0.329-0.398,0.511-0.609
		c0.249-0.287,0.507-0.585,0.744-0.907c0.859-1.118,0.91-2.408,0.15-3.733c-0.079,0.485-0.168,0.789-0.371,1.373
		c-0.055,0.157,0.015,0.345,0.083,0.527c0.039,0.105,0.079,0.214,0.095,0.316l0.012,0.074l-0.04-0.064
		c-0.1-0.162-0.207-0.33-0.318-0.498c-0.112,0.23-0.224,0.453-0.334,0.663c-0.017,0.033,0.006,0.267,0.028,0.474
		c0.019,0.189,0.041,0.403,0.044,0.554l0.002,0.147l-0.033-0.148c-0.055-0.242-0.119-0.488-0.194-0.731
		c-0.146,0.285-0.294,0.585-0.452,0.917c-0.053,0.11-0.041,0.289-0.028,0.462c0.007,0.094,0.013,0.191,0.011,0.279l-0.005,0.115
		L9.82,17.188c-0.03-0.134-0.063-0.27-0.098-0.405c-0.24,0.567-0.395,1.069-0.488,1.577c0.083-0.519,0.197-1.057,0.424-1.658
		c-0.183,0.027-0.357,0.06-0.517,0.097L9.055,16.82l0.071-0.056c0.079-0.063,0.185-0.108,0.288-0.151
		c0.163-0.069,0.332-0.14,0.391-0.282c0.127-0.307,0.259-0.609,0.395-0.917c-0.359,0.019-0.694,0.05-0.999,0.095l-0.135,0.02
		l0.124-0.058c0.15-0.07,0.374-0.132,0.59-0.192c0.268-0.074,0.545-0.151,0.576-0.222c0.093-0.21,0.18-0.419,0.261-0.621
		c-0.295-0.057-0.584-0.109-0.859-0.156L9.64,14.26l0.114-0.019c0.114-0.018,0.269-0.02,0.418-0.022
		c0.246-0.004,0.524-0.007,0.565-0.093c0.354-0.741,0.539-1.585,0.556-2.513c2.686-2.585,5.851-4.763,9.442-6.386
		c4.217-1.905,8.621-2.866,12.973-2.973c0.794-0.041,1.594-0.056,2.4-0.043c19.363,0.317,34.802,16.27,34.486,35.631
		c-0.01,0.627-0.038,1.249-0.081,1.867c1.005-6.431,0.213-13.216-2.667-19.591C59.962,2.669,39.425-5.085,21.976,2.799
		c-4.947,2.235-9.113,5.489-12.366,9.4c-0.448,0.314-0.916,0.616-1.088,0.445c-1.505-1.493-2.558-1.677-4.214-1.513
		C2.527,11.303,0.989,12.341,0,13.197c0.556,0.015,1.232,0.162,2.01,0.438C2.334,13.747,2.665,13.877,3.016,14.014z"/>
</g>
<g>
	<path d="M14.215,22.748c0.19-0.19,0.944,0.555,1.062,0.719c0.329,0.463,0.952,0.75,1.199,1.336c0.212,0.504,1.02,1.23,0.925,1.679
		c-0.058,0.273-0.481,0.426-0.582,0.034c-0.096-0.369-0.593-1.286-0.959-1.679c-0.424-0.454-0.939-1.202-1.336-1.644
		C14.469,23.132,14.043,22.92,14.215,22.748z"/>
	<path d="M57.793,23.125c0.575-0.138,0.071,0.27-0.034,0.377c-0.413,0.422-1.062,1.253-1.439,1.645
		c-0.336,0.349-0.789,1.052-0.993,1.576c-0.049,0.124-0.032,0.307-0.103,0.343c-0.103,0.051-0.482-0.143-0.514-0.24
		c-0.088-0.262,0.366-0.82,0.479-0.994c0.186-0.286,0.29-0.579,0.548-0.925c0.317-0.424,0.905-0.688,1.199-1.062
		C57.106,23.629,57.475,23.201,57.793,23.125z"/>
	<path d="M27.542,62.592c0.025-0.352,0.874-0.848,1.028-1.096c0.042-0.067,0.316-0.093,0.343,0.103
		C28.952,61.883,27.884,62.472,27.542,62.592z"/>
	<path d="M32.887,36.246c-0.192,0.255-0.889,0.712-1.062,1.199c-0.138,0.387,0.005,0.84-0.48,0.857
		c-0.738,0.025-0.401-0.54-0.582-1.199c-0.092-0.335-0.533-0.575-0.685-0.959c-0.188-0.472-0.216-1.161-0.24-1.678
		c-0.011-0.245-0.175-0.484-0.206-0.72c-0.231-1.76-0.363-3.322-0.308-5.036c0.014-0.442,0.218-0.876,0.24-1.336
		c0.025-0.523,0.107-1.244,0.068-1.747c-0.034-0.449-0.611-0.949-0.479-1.439c-0.725,0.927-0.951,2.591-1.268,4.077
		c-0.572,2.686-1.432,5.091-1.884,7.88c-0.17,1.049-0.428,2.747-1.576,1.884c0.653,0.468-0.186,0.977-0.788,0.548
		c-0.242-0.173-0.586-0.956-0.822-1.302c-1.395-2.043-2.859-4.227-4.248-6.372c-0.246-0.38-0.48-0.854-0.822-1.302
		c-0.347-0.455-1.248-1.202-0.685-1.405c-0.472-0.363-1.009-0.532-1.576-0.754c-0.735-0.287-1.806-0.436-2.193-1.028
		c-0.082-0.126-0.08-0.331-0.171-0.445c-0.295-0.371-1-0.331-1.37-0.685c-0.063-0.06,0.042-0.095,0-0.171
		c-0.316-0.58-1.03-0.998-0.993-1.884c0.354,0.635,0.8,1.554,1.336,1.918c0.093,0.063,0.643,0.325,0.719,0.274
		c0.082-0.055-0.459-0.913-0.48-1.028c-0.016-0.092,0.099-0.078,0.103-0.171c0.002-0.043-0.126-0.081-0.103-0.171
		c0.048-0.19,0.28-0.343,0.377-0.514c0.243-0.427,0.352-0.946,0.719-1.199c0.082,0.107-0.032,0.247-0.069,0.343
		c0.402-0.046,0.718-0.352,1.062-0.343c-0.355,0.506-1.245,0.412-1.405,1.096c-0.138,0.595,0.235,2.015,0.822,2.261
		c0.12,0.051,0.343-0.003,0.411,0.034c0.102,0.056,0.158,0.261,0.24,0.343c0.516,0.517,1.947,1.157,2.706,0.822
		c0.084-0.038,0.27-0.229,0.343-0.206c0.248,0.079,0.04,0.494,0.137,0.719c0.057,0.134,0.402,0.242,0.514,0.377
		c0.242,0.291,0.356,0.716,0.617,1.062c0.685,0.91,1.563,1.749,2.227,2.741c0.617,0.922,1.341,1.981,2.09,2.912
		c0.265,0.329,0.627,0.592,0.754,0.891c0.107,0.25,0.093,0.516,0.24,0.719c0.214,0.295,0.689,0.312,0.308,0.788
		c0.791-0.421,1.016-2.056,1.233-3.357c0.461-2.76,1.395-6.208,1.816-8.599c0.048-0.276,0.082-0.945,0.034-1.233
		c-0.05-0.303-0.221-0.491-0.137-0.754c0.056-0.174,0.549-0.495,0.719-0.548c0.15-0.047,0.375,0.037,0.445-0.034
		c0.367-0.371-1.036-0.886-1.062-1.097c-0.038-0.305,0.558-0.445,0.993-0.342c0.087,0.021,0.106,0.13,0.205,0.171
		c0.282,0.116,0.937-0.002,1.37,0.137c0.153,0.049,0.533,0.375,0.617,0.377c0.521,0.011,0.91-1.115,1.576-0.308
		c0.1-0.378,0.328-0.821,0.617-1.131c0.213-0.228,0.763-0.678,0.925-0.719c0.042-0.011,0.231,0.06,0.274,0.034
		c0.094-0.056,0.385-0.478,0.411-0.548c0.137-0.361-0.126-0.515-0.137-0.754c-0.019-0.404,0.309-0.761,0.137-1.165
		c-0.096-0.226-0.533-0.406-0.719-0.582c-0.591-0.558-0.558-0.968-0.822-1.918c-0.198-0.711-0.41-0.984-0.48-1.781
		c-0.022-0.258-0.181-0.536-0.205-0.754c-0.342-3.056,0.789-5.271,3.632-5.276c2.788-0.005,3.988,2.098,3.631,5.31
		c-0.036,0.322-0.113,0.666-0.171,1.165c-0.056,0.474-0.371,0.841-0.514,1.37c-0.238,0.879-0.186,1.26-0.685,1.781
		c-0.167,0.174-0.758,0.413-0.857,0.685c-0.159,0.443,0.151,0.83,0.137,1.131c-0.013,0.278-0.227,0.423-0.137,0.719
		c0.043,0.143,0.325,0.564,0.411,0.617c0.049,0.03,0.234-0.043,0.274-0.034c0.504,0.109,1.407,1.247,1.542,1.815
		c0.239-0.047,0.378-0.244,0.582-0.24c0.403,0.007,0.701,0.607,0.994,0.617c0.13,0.004,0.477-0.321,0.651-0.377
		c0.401-0.128,1.027-0.038,1.302-0.137c0.107-0.039,0.165-0.184,0.24-0.206c0.357-0.101,0.954,0.07,0.994,0.206
		c0.142,0.484-1.416,0.75-1.062,1.199c0.091,0.115,0.252,0.009,0.445,0.069c0.16,0.049,0.711,0.417,0.754,0.548
		c0.083,0.254-0.132,0.521-0.171,0.754c-0.036,0.212,0,0.796,0.034,1.13c0.089,0.875,0.43,1.837,0.651,2.844
		c0.389,1.772,0.86,3.945,1.165,5.824c0.217,1.342,0.399,2.849,1.268,3.46c-0.349-0.479,0.022-0.472,0.274-0.719
		c0.173-0.17,0.177-0.487,0.308-0.788c0.156-0.359,0.558-0.624,0.788-0.891c1.234-1.428,2.543-3.364,3.906-4.831
		c0.512-0.552,0.812-1.18,1.233-1.678c0.101-0.12,0.488-0.226,0.548-0.343c0.067-0.13-0.088-0.68,0.171-0.754
		c0.147-0.041,0.585,0.385,0.719,0.411c0.519,0.102,1.825-0.476,2.295-0.891c0.102-0.089,0.184-0.324,0.308-0.377
		c0.116-0.05,0.402,0.027,0.48,0c0.09-0.032,0.39-0.25,0.48-0.309c0.736-0.479,0.81-1.833,0.068-2.432
		c-0.337-0.273-0.943-0.26-1.096-0.651c0.946,0.102,1.291,0.715,1.782,1.37c0.164,0.22,0.071-1.216,0.205-1.336
		c0.336,0.617,0.05,1.538,0.034,2.158c0.529-0.456,0.444-1.359,0.719-2.021c0.099,0.663-0.111,1.302-0.274,1.816
		c0.064,0.071,0.181-0.232,0.308-0.103c-0.377,0.611-1.084,0.956-1.473,1.542c-0.266,0.4-0.327,0.9-0.822,1.13
		c-0.998,0.465-2.519,0.515-3.323,1.233c0.521,0.064-0.07,0.63-0.205,0.788c-1.179,1.373-2.017,2.855-3.118,4.317
		c-0.971,1.289-1.722,2.413-2.672,3.7c-0.389,0.527-0.783,1.512-1.508,1.507c-0.388-0.002-0.631-0.543-0.171-0.754
		c-1.568,0.907-1.598-2.259-1.884-3.597c-0.224-1.046-0.614-2.105-0.856-3.05c-0.282-1.1-0.502-2.165-0.719-3.186
		c-0.304-1.428-0.527-3.055-1.233-4.043c0.123,0.481-0.469,0.955-0.514,1.37c-0.022,0.2,0.043,0.482,0.034,0.719
		c-0.031,0.838,0.217,1.626,0.274,2.329c0.05,0.618-0.009,1.157,0.034,1.747c0.058,0.8-0.188,1.481-0.308,2.399
		c-0.044,0.335,0.015,0.683-0.034,1.028c-0.054,0.376-0.132,0.61-0.137,1.028c-0.005,0.415-0.154,0.964-0.274,1.302
		c-0.14,0.393-0.606,0.599-0.719,0.959c-0.192,0.61,0.248,1.195-0.514,1.234c-0.51,0.026-0.404-0.425-0.514-0.788
		c-0.16-0.526-0.885-0.965-1.062-1.267c-0.024,0.102,1,0.987,0.719,1.267c-0.097,0.097-0.337-0.201-0.308-0.172
		c-0.548-0.565-1.217-1.543-1.85-1.884c-0.08-0.044-0.397-0.131-0.446-0.103c0.016-0.01-0.132,0.818-0.068,0.925
		c0.065,0.109,0.745,0.002,0.685,0.342c-0.052,0.296-0.583,0.055-0.72,0.172c-0.21,0.179,0.08,0.439,0.103,0.548
		c0.023,0.11-0.022,0.54,0.069,0.617c0.277,0.234,0.653-0.085,0.754,0.172c0.12,0.305-0.329,0.445-0.788,0.411
		c0.048,0.414,0.3,0.778,0.069,1.096c0.315-0.033,0.783,0.104,0.582,0.514c-0.152,0.311-0.724-0.023-0.617,0.685
		c0.013,0.086,0.069,0.518,0.137,0.582c0.158,0.149,0.732-0.094,0.856,0.137c0.25,0.463-0.902,0.56-0.959,0.754
		c-0.062,0.21,0.308,0.241,0.377,0.479c0.012,0.04-0.141,0.169,0,0.309c0.183,0.182,0.398-0.077,0.617,0.034
		c0.42,0.213-0.142,0.663-0.411,0.822c0.249,0.013,0.558-0.033,0.754,0.034c0.078-0.678-0.109-1.267,0-1.782
		c0.113-0.535,0.839-1.142,1.165-1.233c1.015-0.286,1.873,0.224,2.261,0.754c0.402,0.548,0.968,1.588,0.857,2.467
		c-0.037,0.29-0.298,0.73-0.445,1.131c-0.162,0.438-0.256,0.852-0.411,1.165c-0.148,0.3-0.761,0.897-0.685,1.165
		c0.031,0.109,0.262,0.099,0.342,0.205c0.332,0.438,0.142,1.279,0.925,1.302c0.649,0.019,1.451-0.195,2.227-0.274
		c1.206-0.122,2.357-0.352,3.666-0.411c0.357-0.016,0.821,0.058,0.993-0.034c0.137-0.072,0.11-0.359,0.308-0.514
		c0.261-0.204,1.316-0.493,1.473-0.48c0.408,0.033,0.722,0.537,0.994,0.685c0.568,0.311,1.237,0.483,1.233,1.37
		c-0.001,0.309-0.192,0.951-0.343,1.233c-0.149,0.281-0.427,0.349-0.788,0.651c-0.209,0.175-0.371,0.498-0.651,0.582
		c-0.373,0.113-1.197,0.212-1.542,0.171c-0.096-0.011-0.18-0.132-0.308-0.137c-0.768-0.03-1.965,0.797-2.844,1.199
		c-2.454,1.124-4.361,2.084-7.023,3.015c-0.46,0.161-1.628,0.412-1.61,0.857c0.011,0.277,0.545,0.622,0.617,0.822
		c0.034,0.096-0.027,0.204,0,0.24c0.106,0.141,0.317,0.107,0.514,0.205c0.368,0.183,0.55,0.63,0.822,0.891
		c0.646,0.618,1.58,1.207,2.364,1.679c0.417,0.251,1.482,0.504,1.61,0.719c0.084,0.141,0.034,0.47,0,0.377
		c0.061,0.17,0.22,0.308,0.343,0.514c0.133,0.224,0.388,0.442,0.48,0.685c0.062,0.166,0.389,1.013,0.24,1.096
		c-0.171,0.096-0.726-0.654-0.822-0.788c-0.136-0.19-0.193-0.527-0.308-0.685c-0.551-0.754-1.446-1.195-2.364-1.747
		c-0.707-0.425-1.216-0.762-1.953-1.028c0.602,0.651,1.582,1.205,2.467,1.747c0.229,0.14,0.764,0.341,0.857,0.514
		c0.112,0.21-0.116,0.5,0.274,0.446c0.042,0.437,0.275,0.975,0.617,1.302c0.087,0.083,0.808,0.438,0.719,0.651
		c-0.077,0.185-1.153-0.587-1.199-0.651c-0.323-0.448-0.448-1.1-0.822-1.542c-0.763-0.9-1.965-1.263-2.809-1.884
		c0.313,0.809,1.589,1.045,2.33,1.645c0.211,0.171,0.3,0.413,0.411,0.719c0.205,0.566,0.935,1.231,1.405,1.747
		c-0.127-0.139,0.309,0.132,0.137,0.24c-0.082,0.051-0.625-0.316-0.617-0.308c-0.493-0.444-0.846-1.248-1.336-1.679
		c0.233,0.76,0.848,1.139,1.233,1.747c-0.427-0.01-0.684-0.48-0.959-0.754c0.072,0.294,0.343,0.388,0.446,0.651
		c-0.368-0.004-1.524-1.015-1.028-1.302c-0.638-0.227-1.147-0.908-1.782-1.541c-0.222-0.223-0.506-0.472-0.753-0.719
		c-0.353-0.354-0.534-0.648-0.959-0.719c-0.179-0.03-1.287-0.688-1.302-0.754c-0.042-0.191,0.22-0.237,0.308-0.377
		c-0.175,0.012-0.134-0.333-0.308-0.445c-0.096-0.062-0.371-0.01-0.548-0.103c-0.156-0.082-0.207-0.238-0.48-0.068
		c-0.115,0.071-0.102,0.204-0.24,0.24c-0.633,0.164-1.137-0.702-1.508-0.72c-0.305-0.015-0.651,0.413-0.822-0.034
		c-0.127,0.162,0.353,0.513,0.24,0.719c0.017-0.031-1.096,0.415-1.199,0.445c-0.693,0.2-1.112,0.583-1.918,1.097
		c-0.501,0.319-1.186,1.112-1.679,1.062c-0.206-0.021-0.223-0.205-0.309-0.205c-0.14-0.002-0.266,0.277-0.377,0.376
		c-0.34,0.305-0.668,0.547-1.062,0.788c-0.425,0.26-0.416,0.056,0.034-0.343c0.298-0.264,0.419-0.508,0.685-0.719
		c0.265-0.21,0.513-0.402,0.685-0.754c-0.67,0.274-1.599,1.435-2.09,1.781c-0.17,0.12-0.888,0.414-0.445-0.034
		c0.423-0.428,1.312-0.994,1.644-1.473c0.169-0.243,0.247-0.528,0.582-0.651c1.021-0.374,2.038-0.458,2.672-1.165
		c-0.998,0.433-2.761,0.559-3.563,1.473c-0.293,0.333-0.604,0.842-0.925,1.165c-0.09,0.09-1.053,0.722-1.199,0.514
		c-0.101-0.144,1.113-0.89,1.267-1.096c0.154-0.205,0.254-0.455,0.308-0.651c0.397,0.1,0.266-0.356,0.48-0.514
		c0.181-0.134,0.651-0.161,0.959-0.274c0.837-0.309,1.895-0.573,2.535-1.097c-1.448,0.374-3.654,0.845-4.796,1.816
		c-0.174,0.147-0.283,0.457-0.514,0.651c-0.136,0.114-0.732,0.633-0.822,0.617c-0.462-0.085,0.081-0.521,0.171-0.685
		c0.063-0.114,0.057-0.297,0.103-0.377c0.11-0.191,0.488-0.41,0.651-0.582c0.179-0.189,0.199-0.537,0.514-0.342
		c-0.134-0.563,0.162-0.54,0.719-0.617c1.638-0.225,3.503-1.241,4.728-1.987c-2.791-0.981-5.354-1.664-8.256-2.638
		c-0.377-0.126-0.82-0.346-1.336-0.48c-0.439-0.114-1.332-0.333-1.507-0.274c-0.169,0.057-0.176,0.376-0.411,0.411
		c-0.136,0.02-1.367-0.213-1.61-0.308c-0.194-0.076-0.331-0.318-0.514-0.445c-0.292-0.203-0.741-0.39-0.857-0.582
		c-0.356-0.594-0.422-1.533-0.137-1.987c0.183-0.292,0.619-0.465,0.994-0.685c0.32-0.188,0.662-0.6,0.993-0.651
		c0.307-0.047,1.099,0.249,1.405,0.411c0.096,0.051,0.131,0.184,0.24,0.206c0.27,0.054,1.002-0.158,1.61-0.24
		c1.947-0.26,4.411-0.241,6.372-0.343c0.602-0.031,1.188-0.265,1.405-0.685c0.158-0.307,0.031-0.647,0.24-0.891
		c0.097-0.113,0.33-0.033,0.377-0.171c0.081-0.239-0.558-0.896-0.685-1.131c-0.15-0.276-0.245-0.759-0.411-1.199
		c-0.16-0.423-0.44-0.875-0.48-1.131c-0.134-0.86,0.473-1.999,0.891-2.535c0.349-0.447,1.232-0.988,2.227-0.719
		c0.413,0.112,1.1,0.798,1.199,1.268c0.064,0.3-0.267,1.428-0.034,1.713c0.033,0.04,0.65-0.029,0.754,0
		c-0.209-0.15-0.84-0.596-0.411-0.822c0.096-0.051,0.37,0.116,0.548,0c0.142-0.093,0.005-0.154,0.103-0.377
		c0.094-0.214,0.403-0.249,0.377-0.411c-0.027-0.169-1.265-0.38-0.959-0.822c0.137-0.198,0.436,0.169,0.788-0.069
		c0.07-0.047,0.149-0.409,0.172-0.514c0.013-0.063,0.034-0.48,0.034-0.48c-0.067-0.157-0.605-0.235-0.651-0.343
		c-0.216-0.507,0.382-0.295,0.548-0.445c0.102-0.092-0.065-0.17-0.068-0.342c-0.005-0.226,0.269-0.61,0.171-0.754
		c-0.132-0.194-1.032,0.051-0.754-0.48c0.1-0.19,0.441,0.006,0.651-0.103c0.199-0.102,0.101-0.36,0.137-0.582
		c0.024-0.149,0.291-0.433,0.171-0.582c-0.243-0.304-0.927,0.249-0.788-0.308c0.068-0.271,0.576,0.004,0.719-0.24
		c0.045-0.078-0.098-0.28-0.103-0.411c-0.016-0.408,0.121-0.69-0.411-0.411c-0.865,0.454-1.312,1.568-2.158,2.09
		C32.1,36.943,32.619,36.631,32.887,36.246z M32.887,21.378c0.51-0.167,1.198-0.575,1.884-0.24
		C34.439,20.526,33.011,20.837,32.887,21.378z M36.963,21.138c0.691-0.3,1.334,0,1.884,0.274
		C38.768,20.805,37.302,20.546,36.963,21.138z M32.989,21.755c-0.037,1.042,0.208,0.484,0.925,0.514
		c0.071,0.003,0.239,0.077,0.274,0.069c0.113-0.027,0.184-0.199,0.274-0.206c0.286-0.022,0.25,0.266,0.514,0.206
		C34.79,21.689,33.802,21.662,32.989,21.755z M36.792,22.371c0.233-0.024,0.232-0.268,0.514-0.24c0.079,0.008,0.16,0.18,0.274,0.206
		c0.037,0.008,0.223-0.069,0.308-0.069c0.758,0.006,0.862,0.451,0.891-0.514C37.967,21.653,36.838,21.706,36.792,22.371z
		 M33.092,24.666c0.462,0.026,1.091-0.344,1.507-0.171C34.487,23.999,32.863,23.557,33.092,24.666z M37.135,24.53
		c0.487-0.268,1.048,0.21,1.542,0.137C38.866,23.57,37.247,23.987,37.135,24.53z M32.989,26.003
		c0.698,0.005,1.519-0.217,1.987,0.137c0.157-0.37-0.404-0.414-0.788-0.548c-0.504-0.177-0.761-0.29-1.13-0.343
		C32.986,25.451,33.065,25.804,32.989,26.003z M38.402,25.283c-0.193,0.049-0.414,0.159-0.822,0.308
		c-0.445,0.162-1.021,0.188-0.788,0.548c0.445-0.366,1.277-0.125,1.953-0.137C38.666,25.596,38.863,25.166,38.402,25.283z
		 M32.304,27.956c0.864,0.001,1.812-0.518,2.569-0.514c-0.05-0.319-0.135-0.315-0.514-0.343c-0.407-0.029-1.319-0.211-1.576-0.171
		C32.753,27.399,32.633,27.782,32.304,27.956z M39.087,27.647c-0.033-0.061-0.034-0.646-0.137-0.719
		c-0.202-0.145-1.231,0.148-1.61,0.171c-0.394,0.023-0.403,0.086-0.479,0.343c0.768-0.01,1.704,0.515,2.569,0.514
		C39.31,27.715,39.207,27.867,39.087,27.647z M29.906,28.024c0.075-0.232,0.345-0.456,0.034-0.617
		C29.86,27.517,29.753,27.901,29.906,28.024z M41.897,28.024C41.982,27.08,41.378,27.691,41.897,28.024L41.897,28.024z
		 M30.386,28.024c-0.415,0.065-0.486,1.294,0,1.336c0.348,0.029,0.637-0.697,0.925-0.857C31.023,28.504,30.559,27.997,30.386,28.024
		z M41.349,29.36c0.223-0.011,0.4-0.592,0.377-0.788c-0.097-0.826-0.785-0.315-1.302-0.069
		C40.728,28.654,41.002,29.377,41.349,29.36z M33.161,29.463c0.413-0.142,0.822-0.279,1.165-0.342
		c0.139-0.026,0.487-0.026,0.514-0.069c0.187-0.298-0.315-0.247-0.514-0.24c-0.579,0.019-1.58-0.149-2.021-0.069
		c-0.665,0.121-0.995,0.657-1.233,0.925C31.931,30.14,32.38,29.731,33.161,29.463z M39.396,28.744
		c-0.531-0.077-1.355,0.091-1.987,0.069c-0.188-0.007-0.385-0.064-0.446,0c-0.296,0.309,0.552,0.337,0.719,0.377
		c1.179,0.277,1.899,1.033,2.981,0.48C40.425,29.385,40.109,28.848,39.396,28.744z M29.803,30.319
		c0.461-0.321,0.372-0.909,0.069-1.336C29.664,29.36,29.63,29.886,29.803,30.319z M41.931,30.319
		c0.192-0.396,0.15-1.001-0.069-1.336C41.577,29.451,41.48,29.958,41.931,30.319z M22.883,35.698
		c-1.138-1.968-2.452-4.537-4.248-5.961C20.138,31.637,21.398,33.78,22.883,35.698z M33.161,30.045c0.32,0,0.64,0,0.959,0
		C34.036,29.619,33.316,29.844,33.161,30.045z M37.649,30.045c0.308-0.023,0.708,0.045,0.959-0.034
		C38.396,29.907,37.722,29.572,37.649,30.045z M48.92,35.801c1.511-1.95,3.044-4.059,4.488-5.961
		C51.555,31.447,50.148,33.683,48.92,35.801z M30.523,30.08c-0.086,0.03-0.39,0.609-0.377,0.685c0.02,0.116,0.56,0.515,0.719,0.48
		c0.275-0.062,0.283-0.691,0.548-0.857C31.066,30.501,30.812,29.981,30.523,30.08z M40.835,31.244
		c0.203,0.069,0.741-0.378,0.754-0.514s-0.309-0.629-0.445-0.651c-0.265-0.043-0.469,0.412-0.822,0.308
		C40.596,30.526,40.597,31.163,40.835,31.244z M29.632,31.21c0.057-0.26,0.001-0.556-0.137-0.719
		C29.514,30.757,29.524,31.033,29.632,31.21z M42.171,31.21c-0.026-0.255,0.143-0.495,0.034-0.719
		C42.164,30.738,41.979,31.012,42.171,31.21z M31.413,31.45c0.046,0.107,0.623,0.202,0.788,0.24
		c0.282,0.064,0.651,0.187,0.925,0.137c0.341-0.063,0.766-0.511,1.028-0.617c0.341-0.137,1.149-0.482,0.137-0.445
		c-0.622,0.023-1.752-0.204-2.056-0.137C32.108,30.656,31.334,31.265,31.413,31.45z M37.409,30.765
		c-0.971-0.028-0.055,0.343,0.206,0.445c0.282,0.111,0.644,0.554,1.028,0.617c0.271,0.044,1.606-0.217,1.679-0.343
		c0.14-0.242-0.782-0.851-0.857-0.856C38.986,30.593,38.086,30.785,37.409,30.765z M30.317,32.752
		c0.35-0.58,0.081-0.949-0.377-1.199C29.761,32.112,30.022,32.481,30.317,32.752z M41.417,32.752
		c0.314-0.268,0.617-0.703,0.343-1.199C41.317,31.936,41.092,32.063,41.417,32.752z M31.105,32.204
		c-0.094-0.02-0.455,0.742-0.411,0.925c0.025,0.103,0.528,0.498,0.617,0.48c0.051-0.011,0.427-0.518,0.514-0.617
		c0.214-0.245,0.406-0.424,0.48-0.617C31.881,32.282,31.448,32.276,31.105,32.204z M40.492,33.609
		c0.082,0.004,0.527-0.398,0.548-0.514c0.032-0.174-0.182-0.803-0.308-0.891c-0.336-0.232-0.847,0.286-1.302,0.171
		C39.642,32.458,40.2,33.594,40.492,33.609z M33.914,32.546c-0.202,0.148-0.159,0.651,0.034,0.719
		c0.242,0.086,1.087-0.482,0.822-0.857C34.476,32.54,34.164,32.364,33.914,32.546z M37.751,33.265
		c0.599-0.137-0.063-1.121-0.788-0.857C36.858,32.867,37.482,33.327,37.751,33.265z M33.024,32.957
		c-0.354,0.151-0.838,0.644-0.993,0.994C32.792,34.051,33.168,33.764,33.024,32.957z M39.738,33.917
		c-0.298-0.364-0.581-0.744-0.993-0.994C38.537,33.772,39.028,34.1,39.738,33.917z M29.975,33.917
		c0.132-0.375,0.07-0.634-0.206-0.822C29.773,33.433,29.848,33.7,29.975,33.917z M41.76,33.882c0.156-0.141,0.244-0.532,0.171-0.788
		C41.75,33.297,41.631,33.538,41.76,33.882z M30.728,35.013c0.102-0.565,0.343-0.977-0.274-1.13
		C30.309,34.353,30.164,34.916,30.728,35.013z M41.04,35.013c0.522-0.108,0.405-0.699,0.24-1.13
		C40.688,34,40.906,34.528,41.04,35.013z M31.688,35.527c0.216-0.102,0.153-1.018-0.172-0.891
		C31.207,34.756,31.155,35.777,31.688,35.527z M40.047,35.527c0.596,0.301,0.453-1.029,0.069-0.891
		C39.865,34.726,39.864,35.434,40.047,35.527z M32.784,35.63c0.319-0.17,0.311-0.684,0.068-0.959
		C32.548,34.887,32.456,35.368,32.784,35.63z M38.985,35.63c0.301-0.32,0.237-0.76-0.137-0.959
		C38.684,35.038,38.616,35.455,38.985,35.63z M30.694,36.212c0.127-0.665-0.283-0.791-0.514-1.097
		C30.104,35.729,30.419,35.951,30.694,36.212z M41.109,36.212c0.202-0.26,0.623-0.649,0.411-1.097
		C41.353,35.426,40.821,35.667,41.109,36.212z M31.208,36.794c0.225-0.078,0.327-1.22-0.069-0.891
		C31.013,36.008,30.931,36.891,31.208,36.794z M40.595,36.794c0.235-0.003,0.106-0.905-0.103-0.891
		C40.109,35.929,40.443,36.797,40.595,36.794z M32.236,46.73c-0.22,0.225-0.117,1.019,0.034,1.336
		c0.145,0.304,0.76,0.63,1.131,0.925c0.7,0.558,1.145,1.21,2.124,1.267c0.053-0.158-0.239-0.229-0.274-0.411
		c-0.006-0.033,0.138-0.196,0.137-0.24c-0.007-0.257-0.838-0.57-0.103-0.617c-0.105-0.464-0.354-0.585-0.788-0.617
		c-0.853-0.063-0.921-0.536-1.199-1.199c-0.161-0.383-0.471-0.635-0.377-1.062C32.877,46.567,32.454,46.507,32.236,46.73z
		 M38.471,47.072c-0.164,0.366-0.11,0.746-0.343,0.993c-0.45,0.48-1.67,0.044-1.679,0.925c0.724,0.027-0.072,0.442-0.103,0.651
		c-0.01,0.071,0.145,0.166,0.137,0.24c-0.021,0.194-0.355,0.194-0.274,0.377c0.989-0.082,1.451-0.688,2.124-1.233
		c0.387-0.314,0.978-0.655,1.13-0.959c0.158-0.316,0.266-1.104,0.034-1.336c-0.216-0.216-0.6-0.179-0.685-0.582
		C38.937,46.598,38.591,46.805,38.471,47.072z M34.908,47.14c0.087-0.165-0.201-0.241-0.205-0.239
		C34.306,46.986,34.761,47.419,34.908,47.14z M37.203,47.14c0.087-0.164-0.203-0.24-0.206-0.239
		C36.605,46.974,37.057,47.416,37.203,47.14z M33.195,51.697c0.312,0.046,0.628-0.255,0.685-0.514
		c0.238-1.066-0.615-1.976-1.576-1.987C32.47,49.884,32.57,51.606,33.195,51.697z M37.854,51.183
		c0.053,0.252,0.398,0.577,0.72,0.514c0.618-0.123,0.705-1.81,0.856-2.501C38.469,49.202,37.638,50.144,37.854,51.183z
		 M42.925,51.183c-0.407,0.153-0.792,0.483-1.199,0.548c-0.287,0.046-0.86-0.007-0.925-0.137c-0.145-0.293,0.756-1.566-0.171-1.405
		c-0.309,0.054-0.493,0.403-0.617,0.719c-0.418,1.066-0.998,2.173-2.398,1.576c-0.442-0.188-1.032-0.868-1.439-0.959
		c-0.573-0.128-0.903,0.258-1.302,0.514c-0.238,0.152-0.525,0.347-0.754,0.445c-1.133,0.487-1.82-0.269-2.193-1.096
		c-0.081-0.18-0.133-0.652-0.308-0.891c-0.153-0.208-0.744-0.406-0.925-0.103c-0.188,0.314,0.481,0.952,0.274,1.267
		c-0.057,0.087-0.845,0.185-1.028,0.172c-0.295-0.021-0.584-0.234-0.891-0.308c-2.093-0.51-5.109-0.308-7.468-0.275
		c1.662,1.013,3.581,1.699,5.619,2.604c1.393,0.619,2.874,1.263,4.385,1.782c0.424,0.146,1.241,0.532,1.576,0.514
		c-0.062,0.004,0.976-0.218,0.959-0.206c0.155-0.124-0.007-0.493,0.137-0.719c0.081-0.126,0.429-0.237,0.48-0.24
		c0.617-0.043,0.722,0.676,1.062,0.754c0.343,0.079,1.152-0.385,1.576-0.548c1.66-0.639,3.037-1.246,4.522-1.953
		c2.044-0.973,4.012-1.838,5.584-3.049C46.12,50.513,44.328,50.652,42.925,51.183z M45.734,53.17c-1.76,0.86-3.695,1.551-5.55,2.295
		c-0.612,0.246-1.276,0.448-1.815,0.823C40.635,55.322,43.854,54.338,45.734,53.17z"/>
</g>
</svg>
