<?xml version="1.0" encoding="utf-8"?>
<!-- Generator: Adobe Illustrator 17.0.0, SVG Export Plug-In . SVG Version: 6.00 Build 0)  -->
<!DOCTYPE svg PUBLIC "-//W3C//DTD SVG 1.1//EN" "http://www.w3.org/Graphics/SVG/1.1/DTD/svg11.dtd">
<svg version="1.1" id="Layer_1" xmlns="http://www.w3.org/2000/svg" xmlns:xlink="http://www.w3.org/1999/xlink" x="0px" y="0px"
	 width="72px" height="72px" viewBox="0 0 72 72" enable-background="new 0 0 72 72" xml:space="preserve">
<ellipse fill="#FFFFFF" cx="35.971" cy="35.645" rx="34.68" ry="34.355"/>
<g>
	<path d="M69.656,56.513c-0.323-0.106-0.656-0.23-1.007-0.36c-0.481-0.179-0.979-0.365-1.487-0.515
		c-1.793-0.565-3.189-0.07-4.042,1.431c0.568-0.114,0.951-0.136,1.713-0.14c0.204-0.001,0.353-0.168,0.497-0.329
		c0.083-0.093,0.169-0.189,0.265-0.253l0.07-0.047l-0.039,0.076c-0.099,0.192-0.2,0.395-0.298,0.604
		c0.323,0.037,0.638,0.077,0.938,0.12c0.048,0.007,0.277-0.123,0.481-0.239c0.185-0.105,0.394-0.225,0.552-0.293l0.154-0.067
		l-0.132,0.105c-0.215,0.171-0.427,0.357-0.631,0.552c0.405,0.055,0.828,0.106,1.289,0.155c0.153,0.016,0.333-0.076,0.506-0.165
		c0.095-0.049,0.192-0.099,0.287-0.133l0.124-0.044l-0.104,0.083c-0.12,0.095-0.24,0.194-0.356,0.296
		c0.769,0.048,1.409,0.02,2.011-0.087c-0.607,0.124-1.255,0.216-2.051,0.199c0.16,0.212,0.318,0.41,0.473,0.589l0.083,0.096
		l-0.109-0.062c-0.122-0.069-0.246-0.179-0.366-0.286c-0.19-0.169-0.385-0.345-0.577-0.355c-0.414-0.022-0.828-0.053-1.249-0.086
		c0.277,0.43,0.55,0.826,0.814,1.177l0.118,0.156l-0.148-0.126c-0.182-0.154-0.407-0.4-0.625-0.637
		c-0.27-0.295-0.548-0.6-0.645-0.607c-0.288-0.022-0.571-0.038-0.841-0.049c0.151,0.384,0.302,0.759,0.45,1.116l0.064,0.154
		l-0.101-0.131c-0.101-0.132-0.213-0.319-0.322-0.5c-0.179-0.299-0.383-0.638-0.502-0.65c-0.769-0.083-1.532-0.028-2.28,0.162
		c0.944-1.233,1.8-2.524,2.565-3.863c0.093-0.155,0.18-0.314,0.265-0.474c0.019-0.033,0.038-0.066,0.056-0.1l-0.002-0.005
		c0.42-0.818,0.73-1.689,0.913-2.596c0.036-0.183-0.369-0.641-0.727-1.046c-0.217-0.245-0.442-0.498-0.589-0.709l-0.148-0.211
		l0.198,0.166c0.458,0.385,0.942,0.783,1.44,1.185c0.11-0.405,0.217-0.831,0.319-1.267c0.034-0.147-0.287-0.702-0.597-1.238
		c-0.25-0.433-0.509-0.88-0.652-1.22l-0.116-0.28l0.176,0.248c0.396,0.554,0.854,1.144,1.361,1.753
		c0.148-0.639,0.295-1.265,0.455-1.887c0.073-0.287-0.094-0.659-0.256-1.018c-0.102-0.227-0.208-0.462-0.253-0.674l-0.04-0.191
		l0.103,0.167c0.192,0.312,0.411,0.639,0.649,0.973c0.346-1.186,0.785-2.1,1.251-2.94c-0.439,0.84-0.779,1.774-1.067,2.933
		c0.204-0.126,0.407-0.257,0.603-0.389l0.171-0.116l-0.123,0.164c-0.093,0.124-0.214,0.245-0.33,0.362
		c-0.213,0.215-0.433,0.437-0.48,0.671c-0.143,0.706-0.264,1.354-0.372,1.979c0.384-0.211,0.757-0.438,1.111-0.676l0.216-0.146
		l-0.17,0.196c-0.175,0.201-0.449,0.455-0.691,0.68c-0.265,0.246-0.565,0.525-0.577,0.599c-0.076,0.463-0.163,0.948-0.259,1.442
		c0.354-0.048,0.701-0.101,1.032-0.158l0.13-0.023l-0.101,0.082c-0.139,0.112-0.322,0.194-0.498,0.273
		c-0.306,0.137-0.622,0.279-0.719,0.581c-0.361,1.124-0.572,1.681-1.007,2.467c2.617-0.561,4.001-2.395,4.003-5.308
		c0.016-0.823-0.027-1.645-0.068-2.44c-0.03-0.58-0.058-1.129-0.063-1.656c-0.024-1.273,0.09-2.333,0.34-3.153
		c-1.735,1.03-4.002,2.772-5.123,5.293c-1.048,2.343-1.292,3.973,0.157,6.901c0.012,0.026,0.02,0.052,0.023,0.08
		c-1.255,1.989-2.726,3.855-4.398,5.559c-0.071-0.381-0.107-0.716,0.021-0.765c1.361-0.528,1.741-1.259,2.037-2.599
		c0.322-1.44,0.008-3.056-0.318-4.175c-0.146,0.42-0.409,0.877-0.783,1.359c-0.153,0.202-0.321,0.401-0.498,0.613
		c-0.243,0.29-0.494,0.59-0.725,0.914c-0.836,1.125-0.866,2.409-0.088,3.714c0.07-0.484,0.154-0.787,0.347-1.371
		c0.052-0.156-0.021-0.343-0.091-0.523c-0.04-0.104-0.083-0.211-0.1-0.313l-0.013-0.074l0.04,0.063
		c0.102,0.159,0.212,0.324,0.324,0.49c0.107-0.231,0.215-0.454,0.321-0.665c0.017-0.033-0.01-0.266-0.035-0.471
		c-0.022-0.187-0.047-0.4-0.052-0.55l-0.006-0.146l0.036,0.146c0.058,0.239,0.126,0.483,0.204,0.723
		c0.141-0.286,0.283-0.586,0.435-0.919c0.051-0.11,0.036-0.288,0.021-0.459c-0.008-0.094-0.017-0.19-0.015-0.277l0.003-0.114
		l0.028,0.116c0.032,0.133,0.067,0.268,0.104,0.401c0.229-0.567,0.376-1.069,0.459-1.576c-0.074,0.518-0.179,1.054-0.395,1.655
		c0.181-0.03,0.354-0.065,0.513-0.105l0.085-0.022l-0.069,0.057c-0.077,0.064-0.183,0.111-0.285,0.155
		c-0.161,0.071-0.328,0.145-0.384,0.287c-0.121,0.307-0.248,0.61-0.378,0.918c0.357-0.024,0.69-0.061,0.991-0.111l0.134-0.022
		l-0.122,0.059c-0.149,0.072-0.37,0.137-0.584,0.2c-0.265,0.078-0.54,0.159-0.57,0.23c-0.089,0.21-0.172,0.419-0.25,0.622
		c0.294,0.052,0.582,0.099,0.857,0.141l0.119,0.018l-0.114,0.02c-0.113,0.02-0.266,0.024-0.415,0.029
		c-0.244,0.008-0.522,0.016-0.561,0.101c-0.339,0.742-0.51,1.585-0.512,2.508c-2.628,2.613-5.739,4.83-9.284,6.502
		c-4.162,1.963-8.524,2.989-12.85,3.167c-0.788,0.054-1.583,0.082-2.385,0.082c-19.254,0-34.863-15.609-34.863-34.863
		c0-0.623,0.018-1.242,0.05-1.857C0.233,38.115,1.13,44.849,4.098,51.14c8.122,17.22,28.665,24.595,45.885,16.473
		c4.882-2.303,8.971-5.605,12.141-9.546c0.441-0.32,0.9-0.627,1.075-0.46c1.52,1.459,2.57,1.626,4.215,1.435
		c1.768-0.2,3.28-1.256,4.249-2.124C71.109,56.91,70.434,56.775,69.656,56.513z"/>
	<path d="M2.999,14.218c0.478,0.187,0.972,0.381,1.479,0.539c1.783,0.594,3.187,0.122,4.064-1.365
		c-0.57,0.105-0.953,0.121-1.714,0.112c-0.204-0.002-0.356,0.162-0.502,0.321c-0.084,0.092-0.172,0.187-0.269,0.249L5.986,14.12
		l0.04-0.075c0.103-0.191,0.206-0.392,0.308-0.599c-0.323-0.042-0.637-0.087-0.936-0.136c-0.047-0.008-0.28,0.119-0.484,0.231
		c-0.187,0.102-0.398,0.218-0.557,0.283l-0.155,0.065l0.133-0.102c0.218-0.168,0.433-0.35,0.641-0.542
		c-0.404-0.062-0.826-0.12-1.287-0.176c-0.154-0.019-0.334,0.07-0.509,0.157c-0.095,0.047-0.194,0.096-0.289,0.128l-0.125,0.042
		l0.106-0.081c0.121-0.093,0.242-0.19,0.361-0.29c-0.768-0.06-1.408-0.043-2.012,0.054c0.609-0.114,1.258-0.196,2.054-0.165
		c-0.156-0.214-0.311-0.415-0.463-0.596L2.731,12.22l0.108,0.064c0.121,0.071,0.243,0.183,0.361,0.292
		c0.187,0.173,0.38,0.351,0.571,0.365c0.413,0.029,0.826,0.067,1.248,0.107c-0.27-0.435-0.537-0.835-0.795-1.191l-0.115-0.158
		l0.147,0.128c0.179,0.157,0.4,0.406,0.614,0.648c0.265,0.299,0.538,0.609,0.635,0.618c0.287,0.026,0.57,0.048,0.84,0.063
		C6.2,12.77,6.056,12.392,5.914,12.033l-0.061-0.155l0.099,0.133c0.099,0.134,0.208,0.323,0.313,0.506
		c0.175,0.302,0.373,0.643,0.492,0.658c0.768,0.095,1.532,0.053,2.283-0.125c-0.964,1.217-1.841,2.494-2.627,3.821
		c-0.095,0.154-0.185,0.311-0.272,0.469c-0.019,0.033-0.039,0.066-0.057,0.099l0.002,0.005c-0.434,0.811-0.758,1.677-0.955,2.581
		c-0.04,0.182,0.359,0.647,0.71,1.058c0.212,0.248,0.433,0.505,0.577,0.719l0.144,0.213l-0.195-0.169
		c-0.452-0.392-0.929-0.799-1.42-1.209c-0.117,0.403-0.231,0.827-0.34,1.262c-0.037,0.147,0.275,0.706,0.576,1.248
		c0.243,0.436,0.494,0.888,0.632,1.231l0.112,0.281l-0.173-0.25c-0.387-0.56-0.834-1.157-1.332-1.775
		c-0.159,0.637-0.316,1.26-0.486,1.88c-0.078,0.286,0.083,0.661,0.24,1.022c0.098,0.229,0.2,0.465,0.241,0.678l0.037,0.191
		l-0.1-0.169c-0.188-0.315-0.401-0.646-0.634-0.984c-0.365,1.18-0.819,2.086-1.299,2.919c0.453-0.833,0.808-1.761,1.115-2.915
		c-0.206,0.123-0.411,0.25-0.609,0.379l-0.173,0.113l0.126-0.162c0.096-0.122,0.218-0.241,0.336-0.357
		c0.217-0.211,0.441-0.429,0.492-0.663c0.154-0.704,0.286-1.35,0.404-1.973c-0.387,0.204-0.764,0.426-1.123,0.658l-0.218,0.142
		L2.944,23.2c0.176-0.2,0.454-0.45,0.7-0.671c0.269-0.242,0.574-0.516,0.587-0.589c0.083-0.462,0.178-0.945,0.282-1.438
		c-0.354,0.042-0.702,0.09-1.034,0.141l-0.13,0.02l0.102-0.08c0.141-0.11,0.325-0.189,0.503-0.265
		c0.308-0.132,0.627-0.269,0.728-0.569c0.379-1.118,0.6-1.671,1.047-2.45c-2.627,0.518-4.04,2.329-4.089,5.242
		c-0.029,0.822,0,1.645,0.028,2.441c0.02,0.581,0.039,1.13,0.036,1.657c0.003,1.273-0.128,2.331-0.391,3.148
		c1.752-1.002,4.047-2.706,5.209-5.209c1.087-2.325,1.357-3.951-0.044-6.903c-0.012-0.026-0.019-0.053-0.021-0.081
		c1.287-1.969,2.789-3.81,4.489-5.486c0.065,0.382,0.094,0.718-0.034,0.765c-1.369,0.506-1.761,1.23-2.079,2.566
		c-0.345,1.434-0.058,3.055,0.25,4.179c0.153-0.418,0.423-0.871,0.805-1.346c0.157-0.199,0.328-0.396,0.508-0.605
		c0.247-0.286,0.504-0.581,0.739-0.902c0.854-1.111,0.905-2.394,0.149-3.712c-0.078,0.483-0.167,0.784-0.369,1.365
		c-0.055,0.156,0.015,0.343,0.082,0.524c0.039,0.105,0.079,0.213,0.095,0.314l0.012,0.074l-0.04-0.064
		c-0.1-0.161-0.206-0.328-0.316-0.495c-0.111,0.229-0.223,0.451-0.332,0.659c-0.017,0.033,0.006,0.266,0.027,0.471
		c0.019,0.188,0.041,0.4,0.044,0.551l0.002,0.146l-0.033-0.147c-0.054-0.24-0.119-0.485-0.192-0.727
		c-0.145,0.283-0.292,0.582-0.45,0.911c-0.053,0.109-0.04,0.287-0.028,0.459c0.007,0.094,0.013,0.19,0.011,0.277L9.79,17.489
		l-0.027-0.116C9.733,17.24,9.7,17.104,9.665,16.97c-0.239,0.563-0.393,1.063-0.485,1.568c0.082-0.517,0.196-1.051,0.422-1.648
		c-0.182,0.027-0.355,0.059-0.514,0.097l-0.085,0.021l0.07-0.056c0.078-0.062,0.184-0.107,0.287-0.151
		c0.162-0.068,0.33-0.14,0.389-0.28c0.126-0.305,0.258-0.606,0.393-0.912c-0.357,0.018-0.69,0.05-0.993,0.094l-0.134,0.02
		l0.123-0.057c0.15-0.07,0.372-0.131,0.587-0.19c0.266-0.074,0.542-0.15,0.572-0.221c0.093-0.209,0.179-0.417,0.26-0.618
		c-0.293-0.056-0.58-0.109-0.854-0.155l-0.118-0.02l0.114-0.019c0.114-0.018,0.267-0.02,0.416-0.022
		c0.244-0.004,0.521-0.007,0.562-0.092c0.352-0.736,0.536-1.576,0.553-2.499c2.671-2.57,5.818-4.736,9.389-6.35
		c4.193-1.895,8.572-2.85,12.9-2.956c0.789-0.041,1.584-0.056,2.386-0.043c19.252,0.315,34.603,16.177,34.289,35.428
		c-0.01,0.623-0.038,1.242-0.08,1.856c1-6.394,0.212-13.141-2.652-19.48C59.621,2.937,39.202-4.773,21.851,3.066
		c-4.919,2.223-9.061,5.458-12.295,9.347c-0.446,0.312-0.911,0.612-1.082,0.442c-1.496-1.484-2.544-1.667-4.19-1.504
		c-1.771,0.171-3.3,1.203-4.284,2.054c0.552,0.015,1.225,0.161,1.998,0.436C2.32,13.952,2.65,14.081,2.999,14.218z"/>
</g>
<path d="M28.283,41.27c-0.38,0.249-1.113,0.616-1.733,1.006c-0.62,0.39-0.885,0.736-1.347,0.989
	c-0.462,0.252-0.663,0.351-1.398,1.017c-0.736,0.667-1.149,1.19-2.207,1.519c-1.058,0.329-1.407,0.497-2.138,1.013
	c-0.731,0.517-1.713,1.226-2.402,1.641c-0.689,0.415-1.075,0.707-1.742,0.76c-0.668,0.053-0.795,0.009-1.034,0.083
	s-0.404,0.147-0.606,0.204s-0.436,0.121-0.436,0.121s0.262-0.22,0.528-0.393c0.266-0.172,0.348-0.349,0.45-0.474
	c0.103-0.124,0.221-0.253,0.539-0.346c0.318-0.093,1.71-0.794,2.619-1.154c0.909-0.36,2.186-0.85,2.953-1.318
	c0.767-0.467,1.599-1.356,2.104-1.636c0.506-0.279,1.504-0.612,1.923-0.837c0.419-0.225,0.92-0.695,1.495-1.099
	s1.193-0.769,1.448-0.913c0.322-0.182,0.797-0.549,1.09-0.678s0.847-0.345,0.847-0.345S28.663,41.02,28.283,41.27z"/>
<path d="M37.854,41.764c-0.039,0.356-0.059,0.717-0.059,1.083c0,5.449,4.417,9.866,9.866,9.866s9.866-4.417,9.866-9.866
	c0-3.662-1.995-6.857-4.957-8.56c-0.109-0.552-0.293-1.129-0.417-1.319c-0.177-0.269-0.797-2.032-1.152-2.805
	c-0.263-0.574-0.265-0.383-0.263-0.574c0.001-0.223,0.232-0.962,0.452-1.162c0.354-0.323,0.916-0.956,1.414-0.936
	c0.843,0.034,2.115,0.544,3.505-0.527c1.258-0.968,2.593-2.194,1.994-3.989c-0.375-1.125-1.326-2.593-3.524-2.593
	c-1.795,0-2.572,1.368-3.258,2.726c-0.423,0.837-0.516,1.757-1.081,2.208c-0.239,0.191-0.905,1.075-1.304,1.121
	c-0.175,0.02-0.684-0.325-0.808-0.428c-0.125-0.103-0.282-0.272-0.43-0.477c-0.149-0.205-0.202-0.217-0.242-0.348
	s-0.109-0.314-0.301-0.459c-0.193-0.144-0.228-0.186-0.387-0.538c-0.16-0.352-0.334-0.592-0.769-0.985s-0.975-0.603-1.441-0.848
	c-0.466-0.245-0.725-0.423-1.253-0.893s-0.965-1.146-1.487-1.659s-0.627-0.57-0.864-0.829c-0.237-0.258-0.301-0.318-0.371-0.608
	c-0.07-0.29-0.197-0.541-0.49-1.068c-0.293-0.527-1.031-1.387-1.545-2.176c-0.514-0.789-0.916-1.323-1.288-2.072
	c-0.371-0.749-0.406-1.098-0.438-1.372c-0.033-0.274-0.039-0.472-0.07-0.705c-0.031-0.234-0.037-0.464-0.061-0.666
	c-0.024-0.202-0.06-0.251-0.146-0.363c-0.085-0.112-0.256-0.237-0.452-0.397c-0.193-0.16-0.243-0.264-0.307-0.29
	s-0.162-0.26-0.19-0.444S35.391,8.72,35.391,8.72s-0.013-0.055-0.043-0.181s-0.121-0.502-0.214-0.786
	c-0.093-0.285-0.214-0.338-0.308-0.315c-0.094,0.023-0.114,0.11-0.114,0.11s-0.037-0.049-0.103-0.15
	c-0.066-0.1-0.155-0.095-0.291-0.038c-0.136,0.058,0.005,0.364,0.005,0.364l-0.079,0.019c0,0-0.008,0.002-0.039,0.043
	c-0.032,0.041-0.057,0.213-0.029,0.363C34.204,8.3,34.158,8.66,34.158,8.66s0,0-0.023,0.147s-0.067,0.306-0.08,0.633
	c-0.013,0.327,0.082,0.545,0.181,1.027c0.1,0.483,0.267,0.658,0.547,1.064c0.28,0.405,0.52,0.713,0.667,0.943
	s0.186,0.462,0.525,1.285s0.75,1.803,1.126,2.675s0.953,1.994,1.108,2.256c0.155,0.262,0.424,0.62,0.488,0.82
	c0.065,0.2,0.12,0.345,0.371,0.558c0.17,0.145,0.221,0.246,0.29,0.379c0.069,0.132,0.498,0.776,1.335,2.081
	c0.837,1.305,1.975,2.101,2.488,2.575s0.737,0.682,0.633,1.491c-0.104,0.81-0.828,1.109-1.519,1.549
	c-0.691,0.441-1.932,1.437-2.204,1.602c-0.272,0.165-0.53,0.538-0.725,0.66c-0.195,0.121-0.305,0.335-0.572,0.573
	c-0.266,0.238-1.064,0.493-1.24,0.535c-0.177,0.043-0.499,0.045-0.661,0.097s-0.171,0.116-0.421,0.164s-0.364-0.012-0.89,0.078
	s-1.38,0.42-1.934,0.652c-0.554,0.234-1.752,0.766-2.379,1.184c-0.693,0.462-1.662,1.421-1.662,1.421s-0.39,0.343-0.881,0.785
	c-0.491,0.442-1.97,1.735-2.243,2.059c-0.22,0.26-1.323,1.402-1.54,1.877c-0.218,0.476-0.879,0.901-1.5,1.424
	s-1.333,0.736-2.058,1.035s-1.879,1.225-2.81,2.013c-0.931,0.788-2.924,2.539-3.177,2.765c-0.252,0.227-0.711,0.528-1.011,0.625
	c-0.3,0.097-0.416,0.167-0.546,0.281c-0.13,0.114-0.094,0.263-0.205,0.356c-0.11,0.093-0.134,0.132-0.401,0.196
	s-0.563,0.385-0.884,0.636c-0.321,0.252-0.726,0.432-0.954,0.487c-0.227,0.055-0.461,0.327-0.593,0.466
	c-0.132,0.14-0.29,0.244-0.342,0.406s0,0.24,0,0.24s-0.046,0.086-0.051,0.203s0.006,0.165,0.006,0.165s-0.036,0.058-0.029,0.156
	s0.143,0.215,0.143,0.215s-0.003,0.125,0.014,0.196s0.261,0.119,0.363,0.095c0.102-0.025,0.135,0.009,0.172,0.092
	c0.036,0.082,0.186,0.188,0.421,0.231s0.354-0.011,0.354-0.011s0.016,0.029,0.066,0.1s0.197,0.027,0.309-0.025
	c0.112-0.052,0.113-0.118,0.113-0.118s0.068,0.075,0.177,0.148c0.109,0.073,0.205,0.058,0.205,0.058s0.015,0.063,0.061,0.151
	c0.046,0.089,0.218,0.114,0.218,0.114s0.064,0.059,0.304,0.159c0.24,0.1,0.547-0.173,0.744-0.254
	c0.196-0.08,0.336-0.189,0.727-0.358c0.391-0.169,0.459-0.368,0.705-0.552s0.347-0.142,0.587-0.183
	c0.239-0.041,0.292-0.095,0.556-0.308c0.264-0.213,0.619-0.29,1.377-0.556c0.758-0.265,1.157-0.262,2.213-0.458
	c1.057-0.197,0.918-0.321,2.193-0.678c1.275-0.357,1.794-0.681,2.457-1.065s1.518-0.938,1.873-1.289s0.91-0.493,1.471-0.819
	s1.315-0.673,1.706-0.876c0.391-0.202,1.184-0.46,2.288-0.875c1.103-0.416,2.11-0.923,2.11-0.923s2.996-1.466,3.114-1.519
	C37.548,41.926,37.695,41.85,37.854,41.764z"/>
</svg>
