<?xml version="1.0" encoding="utf-8"?>
<!-- Generator: Adobe Illustrator 17.0.0, SVG Export Plug-In . SVG Version: 6.00 Build 0)  -->
<!DOCTYPE svg PUBLIC "-//W3C//DTD SVG 1.1//EN" "http://www.w3.org/Graphics/SVG/1.1/DTD/svg11.dtd">
<svg version="1.1" id="Layer_1" xmlns="http://www.w3.org/2000/svg" xmlns:xlink="http://www.w3.org/1999/xlink" x="0px" y="0px"
	 width="72px" height="72px" viewBox="0 0 72 72" enable-background="new 0 0 72 72" xml:space="preserve">
<ellipse fill="#FFFFFF" cx="35.971" cy="35.645" rx="34.68" ry="34.355"/>
<ellipse fill="#FFFFFF" cx="35.971" cy="35.645" rx="34.68" ry="34.355"/>
<g>
	<path d="M69.357,56.27c-0.322-0.105-0.653-0.229-1.003-0.359c-0.479-0.179-0.975-0.363-1.481-0.513
		c-1.785-0.562-3.175-0.069-4.024,1.425c0.565-0.114,0.947-0.136,1.705-0.14c0.203-0.001,0.352-0.167,0.495-0.328
		c0.083-0.093,0.168-0.189,0.264-0.252l0.07-0.046l-0.039,0.075c-0.099,0.191-0.199,0.394-0.297,0.601
		c0.322,0.037,0.635,0.077,0.934,0.12c0.047,0.007,0.276-0.123,0.478-0.238c0.184-0.105,0.392-0.224,0.55-0.292l0.153-0.067
		l-0.131,0.104c-0.214,0.171-0.425,0.355-0.629,0.55c0.403,0.055,0.824,0.106,1.284,0.155c0.153,0.016,0.332-0.076,0.504-0.165
		c0.094-0.048,0.192-0.099,0.285-0.132l0.124-0.044l-0.103,0.082C68.377,56.901,68.257,57,68.141,57.1
		c0.765,0.048,1.403,0.02,2.002-0.087c-0.605,0.123-1.249,0.215-2.043,0.198c0.159,0.211,0.317,0.408,0.471,0.586l0.083,0.096
		l-0.109-0.062c-0.122-0.069-0.245-0.178-0.364-0.285c-0.189-0.169-0.384-0.343-0.574-0.354c-0.412-0.022-0.824-0.053-1.244-0.086
		c0.276,0.428,0.547,0.823,0.811,1.172l0.117,0.156l-0.148-0.126c-0.181-0.153-0.405-0.398-0.622-0.634
		c-0.269-0.294-0.546-0.597-0.643-0.605c-0.287-0.022-0.568-0.038-0.837-0.049c0.15,0.382,0.3,0.756,0.448,1.111l0.063,0.153
		l-0.101-0.131c-0.1-0.131-0.212-0.318-0.321-0.498c-0.179-0.298-0.381-0.635-0.5-0.648c-0.766-0.083-1.526-0.028-2.27,0.162
		c0.94-1.227,1.792-2.513,2.554-3.847c0.093-0.155,0.179-0.312,0.263-0.472c0.018-0.033,0.038-0.066,0.056-0.099l-0.002-0.005
		c0.419-0.814,0.727-1.682,0.909-2.585c0.036-0.182-0.368-0.639-0.724-1.042c-0.216-0.244-0.44-0.496-0.587-0.706l-0.147-0.21
		l0.197,0.165c0.456,0.383,0.938,0.78,1.434,1.18c0.109-0.403,0.216-0.827,0.317-1.261c0.034-0.147-0.285-0.699-0.594-1.233
		c-0.249-0.431-0.507-0.876-0.649-1.215l-0.116-0.278l0.175,0.246c0.395,0.552,0.85,1.139,1.355,1.746
		c0.148-0.636,0.294-1.26,0.453-1.879c0.073-0.286-0.093-0.656-0.255-1.014c-0.101-0.226-0.207-0.46-0.252-0.672l-0.04-0.19
		l0.103,0.167c0.192,0.311,0.409,0.636,0.647,0.969c0.344-1.181,0.782-2.091,1.246-2.927c-0.437,0.836-0.776,1.766-1.062,2.92
		c0.203-0.126,0.405-0.256,0.6-0.388l0.17-0.115l-0.123,0.163c-0.093,0.123-0.213,0.244-0.328,0.361
		c-0.212,0.214-0.431,0.435-0.478,0.669c-0.142,0.703-0.263,1.349-0.37,1.971c0.382-0.21,0.754-0.436,1.107-0.673l0.215-0.145
		l-0.17,0.195c-0.174,0.2-0.447,0.454-0.688,0.677c-0.264,0.245-0.563,0.523-0.574,0.597c-0.075,0.461-0.163,0.944-0.258,1.436
		c0.352-0.048,0.698-0.101,1.027-0.158l0.129-0.023l-0.1,0.087c-0.138,0.112-0.32,0.193-0.496,0.272
		c-0.304,0.137-0.619,0.278-0.716,0.578c-0.359,1.119-0.57,1.674-1.002,2.457c2.606-0.559,3.984-2.385,3.986-5.286
		c0.016-0.819-0.027-1.638-0.068-2.43c-0.029-0.578-0.057-1.124-0.063-1.649c-0.024-1.267,0.09-2.323,0.338-3.14
		c-1.728,1.025-3.985,2.76-5.101,5.271c-1.044,2.333-1.286,3.956,0.157,6.872c0.012,0.025,0.02,0.052,0.022,0.08
		c-1.25,1.981-2.714,3.839-4.379,5.535c-0.071-0.38-0.106-0.713,0.021-0.762c1.355-0.526,1.733-1.254,2.028-2.588
		c0.321-1.433,0.008-3.042-0.317-4.157c-0.145,0.419-0.407,0.874-0.78,1.353c-0.153,0.201-0.319,0.4-0.496,0.611
		c-0.242,0.289-0.492,0.587-0.722,0.91c-0.832,1.12-0.862,2.399-0.088,3.698c0.07-0.482,0.154-0.783,0.346-1.365
		c0.052-0.156-0.021-0.341-0.091-0.521c-0.04-0.103-0.082-0.211-0.099-0.311l-0.013-0.073l0.04,0.063
		c0.102,0.159,0.211,0.323,0.323,0.488c0.107-0.23,0.214-0.452,0.319-0.662c0.017-0.033-0.01-0.265-0.035-0.469
		c-0.022-0.187-0.047-0.398-0.052-0.548l-0.006-0.146l0.036,0.145c0.058,0.238,0.126,0.48,0.203,0.72
		c0.14-0.285,0.282-0.584,0.433-0.915c0.051-0.11,0.036-0.287,0.021-0.457c-0.008-0.093-0.016-0.189-0.015-0.275l0.003-0.114
		l0.028,0.115c0.032,0.132,0.067,0.266,0.104,0.399c0.228-0.565,0.374-1.064,0.457-1.569c-0.074,0.516-0.178,1.049-0.394,1.648
		c0.181-0.03,0.352-0.065,0.511-0.105l0.084-0.022l-0.069,0.057c-0.077,0.063-0.182,0.11-0.283,0.155
		c-0.16,0.071-0.327,0.144-0.382,0.285c-0.121,0.305-0.247,0.607-0.377,0.914c0.356-0.024,0.687-0.061,0.987-0.11l0.134-0.022
		l-0.122,0.059c-0.148,0.072-0.368,0.136-0.581,0.199c-0.264,0.078-0.537,0.158-0.567,0.229c-0.088,0.209-0.172,0.417-0.248,0.619
		c0.293,0.051,0.579,0.099,0.853,0.141l0.118,0.018l-0.113,0.02c-0.113,0.02-0.265,0.024-0.413,0.028
		c-0.243,0.008-0.519,0.016-0.559,0.101c-0.338,0.739-0.508,1.578-0.51,2.497c-2.617,2.602-5.715,4.81-9.244,6.474
		c-4.144,1.954-8.487,2.977-12.794,3.153c-0.785,0.053-1.576,0.082-2.375,0.082c-19.172,0-34.714-15.542-34.714-34.713
		c0-0.62,0.017-1.237,0.05-1.849c-0.891,6.382,0.002,13.087,2.957,19.35c8.087,17.146,28.542,24.489,45.688,16.402
		c4.861-2.293,8.933-5.581,12.089-9.505c0.439-0.318,0.897-0.624,1.07-0.458c1.514,1.453,2.559,1.619,4.197,1.429
		c1.76-0.199,3.266-1.251,4.231-2.115C70.803,56.666,70.131,56.531,69.357,56.27z"/>
	<path d="M2.986,14.157c0.476,0.186,0.968,0.379,1.473,0.537c1.775,0.591,3.174,0.121,4.046-1.359
		c-0.567,0.105-0.949,0.121-1.707,0.112c-0.203-0.002-0.355,0.161-0.5,0.32c-0.084,0.091-0.171,0.186-0.267,0.248L5.96,14.059
		L6,13.984c0.102-0.19,0.205-0.39,0.307-0.596c-0.321-0.042-0.635-0.087-0.932-0.135c-0.047-0.008-0.278,0.119-0.482,0.23
		c-0.186,0.102-0.397,0.217-0.554,0.282l-0.154,0.064l0.133-0.102c0.217-0.167,0.431-0.349,0.638-0.54
		c-0.402-0.061-0.822-0.119-1.281-0.176c-0.153-0.019-0.333,0.07-0.507,0.156c-0.095,0.047-0.193,0.096-0.288,0.128l-0.124,0.042
		l0.105-0.081c0.12-0.093,0.241-0.19,0.359-0.288c-0.764-0.06-1.402-0.043-2.003,0.054c0.606-0.113,1.252-0.195,2.045-0.165
		c-0.156-0.213-0.31-0.413-0.461-0.594L2.72,12.166l0.108,0.063c0.121,0.071,0.242,0.183,0.36,0.291
		c0.186,0.172,0.378,0.349,0.568,0.363c0.412,0.029,0.823,0.067,1.242,0.106c-0.269-0.433-0.534-0.832-0.792-1.185l-0.115-0.157
		l0.146,0.128c0.178,0.156,0.398,0.405,0.611,0.645c0.263,0.298,0.536,0.606,0.633,0.615c0.286,0.026,0.567,0.048,0.837,0.063
		c-0.144-0.385-0.288-0.761-0.43-1.118l-0.061-0.154l0.098,0.132c0.098,0.133,0.207,0.321,0.312,0.503
		c0.174,0.3,0.371,0.641,0.49,0.655C7.492,13.212,8.252,13.17,9,12.993c-0.96,1.212-1.833,2.483-2.616,3.804
		c-0.095,0.153-0.185,0.31-0.271,0.467c-0.019,0.033-0.038,0.065-0.057,0.098l0.002,0.005c-0.432,0.807-0.754,1.67-0.951,2.57
		c-0.04,0.181,0.357,0.645,0.707,1.054c0.211,0.247,0.431,0.503,0.574,0.716l0.144,0.212L6.337,21.75
		c-0.45-0.391-0.925-0.796-1.414-1.204c-0.116,0.402-0.23,0.824-0.338,1.256c-0.037,0.146,0.273,0.703,0.573,1.242
		c0.242,0.435,0.492,0.884,0.629,1.225l0.112,0.28L5.727,24.3c-0.385-0.558-0.83-1.152-1.326-1.767
		c-0.158,0.634-0.314,1.255-0.484,1.872C3.839,24.69,4,25.063,4.156,25.423c0.098,0.228,0.199,0.463,0.24,0.675l0.037,0.191
		l-0.099-0.168c-0.187-0.314-0.4-0.643-0.631-0.98c-0.364,1.175-0.816,2.077-1.294,2.906c0.451-0.829,0.804-1.753,1.11-2.903
		c-0.205,0.122-0.409,0.249-0.607,0.378L2.74,25.635l0.125-0.161c0.095-0.122,0.217-0.24,0.334-0.355
		c0.216-0.21,0.439-0.427,0.49-0.661c0.154-0.701,0.285-1.344,0.402-1.964c-0.386,0.204-0.761,0.424-1.118,0.655L2.757,23.29
		l0.172-0.192c0.177-0.197,0.454-0.446,0.699-0.666c0.267-0.241,0.572-0.514,0.584-0.587c0.083-0.46,0.178-0.941,0.281-1.432
		c-0.353,0.042-0.699,0.089-1.03,0.141l-0.13,0.02l0.102-0.08c0.14-0.109,0.323-0.188,0.5-0.264
		c0.307-0.132,0.624-0.268,0.725-0.567c0.378-1.113,0.597-1.664,1.043-2.44c-2.615,0.516-4.022,2.319-4.072,5.22
		c-0.029,0.819,0,1.638,0.028,2.43C1.681,25.453,1.7,26,1.697,26.525c0.003,1.267-0.128,2.321-0.389,3.134
		c1.744-0.997,4.029-2.695,5.186-5.187c1.082-2.315,1.351-3.935-0.044-6.873c-0.012-0.026-0.019-0.053-0.021-0.08
		c1.282-1.96,2.777-3.794,4.469-5.462c0.065,0.381,0.094,0.715-0.034,0.762c-1.363,0.504-1.754,1.225-2.07,2.555
		c-0.344,1.428-0.058,3.042,0.249,4.161c0.152-0.416,0.421-0.867,0.801-1.34C10,17.996,10.17,17.8,10.35,17.591
		c0.246-0.285,0.502-0.579,0.736-0.898c0.85-1.107,0.901-2.384,0.148-3.696c-0.078,0.48-0.166,0.781-0.368,1.359
		c-0.055,0.155,0.015,0.342,0.082,0.522c0.039,0.104,0.079,0.212,0.094,0.313l0.012,0.074l-0.039-0.063
		c-0.099-0.16-0.205-0.326-0.315-0.493c-0.111,0.228-0.222,0.449-0.33,0.657c-0.017,0.033,0.006,0.265,0.027,0.469
		c0.019,0.187,0.041,0.399,0.043,0.549l0.002,0.146l-0.033-0.146c-0.054-0.239-0.118-0.483-0.192-0.723
		c-0.145,0.282-0.291,0.579-0.448,0.907c-0.052,0.109-0.04,0.286-0.028,0.457c0.007,0.093,0.013,0.189,0.011,0.276l-0.005,0.114
		L9.72,17.3c-0.03-0.133-0.063-0.267-0.097-0.401C9.385,17.46,9.232,17.957,9.14,18.46c0.082-0.514,0.195-1.046,0.42-1.641
		c-0.181,0.027-0.353,0.059-0.512,0.096l-0.085,0.02l0.07-0.056c0.078-0.062,0.183-0.107,0.285-0.15
		c0.161-0.068,0.328-0.139,0.387-0.279c0.126-0.304,0.257-0.603,0.391-0.908c-0.356,0.018-0.688,0.05-0.989,0.094l-0.134,0.02
		l0.123-0.057c0.149-0.069,0.37-0.13,0.585-0.19c0.265-0.073,0.539-0.149,0.57-0.22c0.092-0.208,0.179-0.415,0.259-0.615
		c-0.292-0.056-0.578-0.108-0.851-0.154L9.544,14.4l0.113-0.018c0.113-0.018,0.266-0.02,0.414-0.022
		c0.243-0.004,0.519-0.007,0.56-0.092c0.35-0.733,0.534-1.57,0.55-2.488c2.659-2.559,5.793-4.716,9.348-6.322
		c4.175-1.887,8.535-2.837,12.844-2.944c0.786-0.04,1.578-0.056,2.376-0.043C54.918,2.784,70.204,18.578,69.89,37.747
		c-0.01,0.62-0.038,1.236-0.08,1.848c0.995-6.367,0.211-13.085-2.64-19.396C59.365,2.924,39.033-4.752,21.758,3.053
		C16.86,5.266,12.736,8.487,9.516,12.36c-0.444,0.311-0.907,0.61-1.077,0.44c-1.49-1.478-2.533-1.66-4.172-1.498
		C2.502,11.473,0.979,12.5,0,13.348c0.55,0.015,1.22,0.161,1.99,0.434C2.31,13.892,2.639,14.021,2.986,14.157z"/>
	<path d="M37.75,7.379c0.542,0.17,0.756,0.576,0.816,1.107c0.051,0.454,0.133,0.904,0.183,1.357c0.105,0.948,0.49,1.76,1.204,2.39
		c0.425,0.376,0.523,0.779,0.268,1.278c-0.016,0.032-0.02,0.07-0.038,0.101c-0.484,0.826-0.471,1.705-0.334,2.62
		c0.216,1.449,0.383,2.905,0.575,4.358c0.009,0.066,0.03,0.153,0.077,0.187c0.318,0.23,0.28,0.543,0.252,0.878
		c-0.202,2.395-0.441,4.789-0.563,7.188c-0.058,1.145,0.109,2.302,0.179,3.454c0.075,1.223,0.155,2.446,0.234,3.669
		c0.004,0.07,0.02,0.139,0.034,0.232c0.525-0.034,1.039-0.088,1.552-0.095c1.032-0.015,2.065,0.016,3.096-0.01
		c0.948-0.023,1.896-0.084,2.843-0.148c1.284-0.086,2.274,0.713,2.328,1.997c0.049,1.187-0.009,2.377-0.008,3.566
		c0,0.516,0.042,1.033,0.037,1.549c-0.001,0.11-0.116,0.226-0.195,0.326c-0.077,0.097-0.228,0.16-0.258,0.264
		c-0.463,1.597-0.717,3.214-0.367,4.872c0.172,0.815,0.563,1.495,1.247,2.002c0.327,0.242,0.587,0.58,0.929,0.793
		c0.271,0.17,0.614,0.24,0.934,0.311c0.362,0.081,0.737,0.101,1.102,0.174c0.12,0.024,0.225,0.128,0.337,0.195
		c0,0.072,0,0.144,0,0.217c-0.221,0.456-0.609,0.595-1.089,0.616c-0.901,0.039-1.786,0.011-2.686-0.134
		c-0.643-0.103-1.331,0.07-1.998,0.116c-0.238,0.016-0.486,0.069-0.713,0.023c-0.671-0.134-0.965-0.589-0.86-1.27
		c0.02-0.13,0.036-0.268,0.091-0.385c0.538-1.127,0.424-2.322,0.359-3.507c-0.063-1.152-0.159-2.302-0.259-3.451
		c-0.012-0.141-0.145-0.268-0.204-0.409c-0.057-0.136-0.133-0.283-0.129-0.423c0.028-0.888,0.077-1.775,0.118-2.662
		c0.004-0.083,0.001-0.166,0.001-0.285c-0.646,0.309-1.259,0.641-1.901,0.9c-1.189,0.479-2.376,0.981-3.603,1.338
		c-0.534,0.156-0.896,0.363-1.213,0.801c-0.95,1.311-2.262,1.625-3.804,1.349c-0.556-0.099-1.145-0.076-1.713-0.035
		c-0.575,0.042-1.022,0.335-1.361,0.835c-0.655,0.964-1.337,1.911-2.038,2.842c-0.234,0.312-0.568,0.547-0.839,0.833
		c-0.193,0.203-0.358,0.433-0.589,0.716c0.728,0.115,1.371,0.147,1.971,0.324c1.642,0.487,3.338,0.305,5.003,0.49
		c0.978,0.109,1.95,0.263,2.925,0.396c0.784,0.107,1.567,0.22,2.352,0.312c0.293,0.034,0.593,0.021,0.89,0.016
		c1.2-0.02,2.332,0.269,3.423,0.742c0.086,0.038,0.131,0.171,0.195,0.26c-0.1,0.07-0.193,0.188-0.3,0.201
		c-0.917,0.11-1.834,0.238-2.755,0.283c-0.546,0.027-1.097-0.108-1.648-0.13c-0.585-0.023-1.173-0.003-1.759,0.006
		c-1.021,0.017-2.041,0.053-3.062,0.058c-0.9,0.005-1.801-0.063-2.699-0.023c-1.87,0.081-3.737,0.278-5.607,0.3
		c-1.279,0.015-2.561-0.186-3.841-0.291c-0.082-0.007-0.164-0.02-0.345-0.042c0.171,0.093,0.256,0.138,0.358,0.194
		c-0.638,0.034-1.249,0.025-1.846,0.113c-0.469,0.069-0.953,0.194-1.372,0.408c-0.753,0.385-1.542,0.535-2.366,0.526
		c-0.709-0.007-1.427,0.003-2.123-0.11c-0.98-0.159-1.858-0.578-2.479-1.403c-0.332-0.441-0.682-0.878-0.948-1.358
		c-0.18-0.325-0.313-0.722-0.317-1.089c-0.013-1.169,0.225-2.275,1.16-3.096c0.172-0.151,0.403-0.24,0.613-0.344
		c0.193-0.095,0.39-0.186,0.594-0.251c0.418-0.134,0.84-0.26,1.266-0.364c0.082-0.02,0.188,0.094,0.289,0.11
		c0.135,0.021,0.275,0.005,0.417,0.005c-0.034,0.212,0.168,0.22,0.347,0.121c0.216-0.12,0.405-0.294,0.588-0.464
		c0.304-0.282,0.457-0.276,0.595,0.107c0.093,0.259,0.197,0.202,0.398,0.149c0.189-0.05,0.408,0.011,0.613,0.028
		c0.096,0.008,0.195,0.052,0.284,0.036c0.598-0.111,0.991,0.16,0.965,0.771c-0.02,0.47-0.173,0.935-0.269,1.416
		c0.406-0.061,0.863-0.116,1.311-0.212c0.065-0.014,0.114-0.218,0.129-0.339c0.078-0.644,0.137-1.29,0.214-1.934
		c0.051-0.426,0.25-0.778,0.609-1.021c0.388-0.262,0.792-0.499,1.178-0.763c0.513-0.35,1.022-0.707,1.522-1.077
		c1.003-0.742,1.936-1.605,3.015-2.209c1.002-0.562,1.864-1.312,2.858-1.862c0.648-0.358,1.334-0.651,2.018-0.937
		c0.195-0.082,0.274-0.15,0.297-0.365c0.261-2.51,0.511-5.027,1.147-7.475c0.318-1.221,0.365-2.466,0.553-3.698
		c0.19-1.245,0.495-2.473,0.693-3.717c0.078-0.489-0.017-1.004,0.001-1.506c0.006-0.166,0.113-0.332,0.186-0.492
		c0.061-0.134,0.193-0.255,0.203-0.388c0.086-1.198,0.197-2.398,0.209-3.598c0.008-0.813-0.138-1.627-0.199-2.441
		c-0.111-1.489-0.114-2.974,0.076-4.463c0.084-0.661-0.001-1.342,0.013-2.013c0.004-0.181,0.089-0.361,0.137-0.541
		C37.557,7.379,37.653,7.379,37.75,7.379z"/>
</g>
</svg>
