<?xml version="1.0" encoding="utf-8"?>
<!-- Generator: Adobe Illustrator 17.0.0, SVG Export Plug-In . SVG Version: 6.00 Build 0)  -->
<!DOCTYPE svg PUBLIC "-//W3C//DTD SVG 1.1//EN" "http://www.w3.org/Graphics/SVG/1.1/DTD/svg11.dtd">
<svg version="1.1" id="Layer_1" xmlns="http://www.w3.org/2000/svg" xmlns:xlink="http://www.w3.org/1999/xlink" x="0px" y="0px"
	 width="72px" height="72px" viewBox="0 0 72 72" enable-background="new 0 0 72 72" xml:space="preserve">
<ellipse fill="#FFFFFF" cx="35.971" cy="35.645" rx="34.68" ry="34.355"/>
<g>
	<path d="M69.725,56.569c-0.324-0.106-0.656-0.23-1.008-0.361c-0.482-0.18-0.98-0.365-1.489-0.515
		c-1.794-0.565-3.192-0.07-4.046,1.433c0.568-0.114,0.952-0.136,1.714-0.14c0.204-0.001,0.353-0.168,0.497-0.33
		c0.083-0.093,0.169-0.19,0.265-0.254l0.07-0.047l-0.039,0.076c-0.099,0.192-0.2,0.396-0.298,0.604
		c0.323,0.037,0.639,0.077,0.939,0.121c0.048,0.007,0.278-0.124,0.481-0.239c0.185-0.105,0.394-0.225,0.553-0.293l0.154-0.067
		l-0.132,0.105c-0.215,0.171-0.428,0.357-0.632,0.553c0.405,0.055,0.828,0.106,1.291,0.156c0.154,0.016,0.333-0.076,0.507-0.166
		c0.095-0.049,0.193-0.099,0.287-0.133l0.125-0.044l-0.104,0.083c-0.12,0.095-0.24,0.195-0.357,0.296
		c0.769,0.048,1.41,0.02,2.013-0.087c-0.608,0.124-1.256,0.217-2.053,0.199c0.16,0.212,0.319,0.41,0.473,0.589l0.083,0.096
		l-0.11-0.062c-0.122-0.069-0.246-0.179-0.366-0.286c-0.19-0.17-0.386-0.345-0.577-0.356c-0.414-0.022-0.829-0.054-1.251-0.086
		c0.277,0.431,0.55,0.827,0.815,1.178l0.118,0.157L67.5,58.622c-0.182-0.154-0.407-0.4-0.625-0.638
		c-0.27-0.295-0.549-0.6-0.646-0.608c-0.288-0.022-0.571-0.039-0.842-0.049c0.151,0.384,0.302,0.76,0.45,1.117l0.064,0.154
		L65.8,58.466c-0.101-0.132-0.213-0.32-0.322-0.501c-0.18-0.299-0.383-0.638-0.503-0.651c-0.77-0.083-1.534-0.028-2.282,0.163
		c0.945-1.234,1.802-2.526,2.567-3.867c0.093-0.155,0.18-0.314,0.265-0.474c0.019-0.034,0.038-0.066,0.056-0.1l-0.002-0.005
		c0.421-0.819,0.731-1.691,0.913-2.599c0.036-0.183-0.37-0.642-0.728-1.047c-0.218-0.245-0.442-0.499-0.59-0.71l-0.148-0.211
		l0.198,0.166c0.459,0.385,0.943,0.784,1.442,1.187c0.11-0.406,0.217-0.832,0.319-1.268c0.034-0.147-0.287-0.703-0.597-1.239
		c-0.25-0.433-0.509-0.881-0.652-1.222l-0.117-0.28l0.176,0.248c0.397,0.555,0.854,1.145,1.362,1.755
		c0.149-0.639,0.295-1.267,0.456-1.889c0.073-0.288-0.094-0.66-0.256-1.019c-0.102-0.227-0.208-0.462-0.253-0.675l-0.04-0.191
		l0.103,0.167c0.193,0.313,0.412,0.64,0.65,0.974c0.346-1.187,0.786-2.102,1.252-2.943c-0.44,0.841-0.78,1.775-1.068,2.936
		c0.204-0.126,0.407-0.257,0.604-0.39l0.171-0.116l-0.124,0.164c-0.093,0.124-0.214,0.245-0.33,0.362
		c-0.213,0.215-0.434,0.437-0.481,0.672c-0.143,0.707-0.265,1.356-0.372,1.981c0.384-0.211,0.758-0.439,1.112-0.677l0.216-0.146
		l-0.17,0.196c-0.175,0.201-0.45,0.456-0.692,0.681c-0.265,0.247-0.566,0.526-0.577,0.6c-0.076,0.463-0.163,0.949-0.26,1.444
		c0.354-0.048,0.702-0.101,1.033-0.159l0.13-0.023l-0.101,0.082c-0.139,0.113-0.322,0.194-0.498,0.274
		c-0.306,0.137-0.623,0.28-0.719,0.581c-0.361,1.125-0.573,1.683-1.008,2.47c2.62-0.562,4.005-2.397,4.007-5.314
		c0.016-0.823-0.027-1.647-0.068-2.442c-0.03-0.581-0.058-1.13-0.063-1.658c-0.024-1.274,0.09-2.335,0.34-3.157
		c-1.737,1.031-4.006,2.775-5.128,5.299c-1.049,2.345-1.293,3.977,0.157,6.908c0.012,0.026,0.02,0.053,0.023,0.08
		c-1.257,1.991-2.729,3.859-4.402,5.564c-0.072-0.382-0.107-0.717,0.021-0.766c1.362-0.529,1.742-1.26,2.039-2.602
		c0.322-1.441,0.008-3.059-0.318-4.179c-0.146,0.421-0.409,0.878-0.784,1.36c-0.153,0.202-0.321,0.402-0.499,0.614
		c-0.243,0.29-0.494,0.59-0.725,0.915c-0.836,1.126-0.866,2.411-0.088,3.717c0.07-0.484,0.155-0.788,0.348-1.372
		c0.052-0.156-0.021-0.343-0.091-0.523c-0.04-0.104-0.083-0.212-0.1-0.313l-0.013-0.074l0.04,0.063
		c0.102,0.159,0.212,0.325,0.325,0.49c0.107-0.231,0.216-0.455,0.321-0.665c0.017-0.033-0.01-0.266-0.035-0.471
		c-0.022-0.188-0.047-0.4-0.052-0.551l-0.006-0.147l0.036,0.146c0.058,0.24,0.127,0.483,0.204,0.724
		c0.141-0.286,0.283-0.587,0.435-0.919c0.051-0.11,0.036-0.288,0.021-0.46c-0.008-0.094-0.017-0.19-0.015-0.277l0.003-0.115
		l0.028,0.116c0.032,0.133,0.067,0.268,0.104,0.401c0.229-0.568,0.376-1.07,0.46-1.577c-0.074,0.519-0.179,1.055-0.396,1.657
		c0.182-0.03,0.354-0.065,0.514-0.105l0.085-0.022l-0.069,0.057c-0.077,0.064-0.183,0.111-0.285,0.156
		c-0.161,0.071-0.328,0.145-0.384,0.287c-0.121,0.307-0.248,0.611-0.379,0.919c0.358-0.024,0.691-0.061,0.992-0.111l0.134-0.022
		l-0.122,0.059c-0.149,0.072-0.37,0.137-0.584,0.2c-0.266,0.078-0.54,0.159-0.57,0.23c-0.089,0.21-0.173,0.42-0.25,0.622
		c0.295,0.052,0.582,0.099,0.858,0.141l0.119,0.018l-0.114,0.02c-0.113,0.02-0.267,0.024-0.415,0.029
		c-0.244,0.008-0.522,0.016-0.562,0.102c-0.34,0.743-0.51,1.586-0.512,2.51c-2.631,2.616-5.745,4.835-9.293,6.509
		c-4.166,1.965-8.532,2.992-12.862,3.17c-0.789,0.054-1.585,0.082-2.387,0.082C16.705,68.49,1.08,52.866,1.08,33.592
		c0-0.624,0.018-1.243,0.05-1.859c-0.896,6.416,0.002,13.156,2.972,19.453c8.13,17.237,28.694,24.619,45.93,16.489
		c4.887-2.305,8.98-5.611,12.153-9.556c0.441-0.32,0.901-0.628,1.076-0.461c1.522,1.461,2.573,1.627,4.219,1.437
		c1.77-0.2,3.283-1.258,4.254-2.126C71.179,56.967,70.504,56.831,69.725,56.569z"/>
	<path d="M3.002,14.232c0.478,0.187,0.973,0.381,1.48,0.539c1.785,0.594,3.19,0.122,4.068-1.367
		c-0.57,0.105-0.954,0.121-1.716,0.113c-0.204-0.002-0.356,0.162-0.502,0.321c-0.084,0.092-0.172,0.187-0.269,0.249l-0.071,0.046
		l0.04-0.075c0.103-0.191,0.206-0.392,0.308-0.6c-0.323-0.042-0.638-0.088-0.937-0.136c-0.047-0.008-0.28,0.119-0.484,0.232
		c-0.187,0.102-0.399,0.218-0.557,0.284l-0.155,0.065L4.34,13.8c0.218-0.168,0.434-0.351,0.641-0.543
		c-0.405-0.062-0.826-0.12-1.288-0.177c-0.154-0.019-0.335,0.07-0.509,0.157c-0.096,0.047-0.194,0.096-0.289,0.128L2.77,13.407
		l0.106-0.081c0.121-0.093,0.243-0.191,0.361-0.29c-0.769-0.06-1.409-0.043-2.014,0.054c0.609-0.114,1.259-0.196,2.056-0.166
		c-0.156-0.214-0.311-0.415-0.464-0.597L2.734,12.23l0.108,0.064c0.121,0.071,0.244,0.184,0.362,0.292
		c0.187,0.173,0.38,0.351,0.571,0.365c0.414,0.029,0.827,0.067,1.249,0.107c-0.27-0.435-0.537-0.836-0.796-1.192l-0.115-0.158
		l0.147,0.128c0.179,0.157,0.4,0.407,0.615,0.648c0.265,0.3,0.539,0.609,0.636,0.619c0.288,0.026,0.57,0.048,0.841,0.063
		c-0.145-0.387-0.29-0.765-0.432-1.124l-0.061-0.155l0.099,0.133c0.099,0.134,0.208,0.323,0.314,0.506
		c0.175,0.302,0.373,0.644,0.492,0.659c0.769,0.095,1.533,0.053,2.285-0.125c-0.965,1.218-1.843,2.497-2.63,3.825
		c-0.096,0.154-0.186,0.311-0.273,0.47c-0.019,0.033-0.039,0.066-0.058,0.099L6.09,17.46c-0.434,0.812-0.758,1.678-0.956,2.583
		c-0.04,0.182,0.359,0.648,0.711,1.059c0.213,0.248,0.433,0.506,0.577,0.719l0.144,0.213L6.37,21.865
		c-0.452-0.393-0.93-0.8-1.422-1.21c-0.117,0.404-0.231,0.828-0.34,1.263c-0.037,0.147,0.275,0.707,0.577,1.249
		c0.243,0.437,0.495,0.889,0.632,1.232l0.112,0.282L5.758,24.43c-0.387-0.561-0.835-1.158-1.333-1.777
		c-0.159,0.637-0.316,1.261-0.486,1.882c-0.078,0.286,0.083,0.661,0.24,1.023c0.098,0.229,0.2,0.465,0.242,0.679l0.037,0.192
		l-0.1-0.169c-0.188-0.316-0.402-0.647-0.635-0.985c-0.366,1.181-0.82,2.088-1.301,2.922c0.454-0.833,0.809-1.762,1.116-2.918
		c-0.206,0.123-0.411,0.25-0.61,0.38l-0.173,0.113l0.126-0.162c0.096-0.122,0.218-0.242,0.336-0.357
		c0.217-0.211,0.441-0.43,0.492-0.664c0.155-0.705,0.286-1.351,0.405-1.975c-0.388,0.205-0.765,0.426-1.124,0.659l-0.218,0.142
		l0.173-0.193c0.178-0.198,0.457-0.449,0.703-0.67c0.269-0.242,0.575-0.516,0.587-0.59c0.083-0.462,0.179-0.946,0.283-1.439
		c-0.355,0.042-0.703,0.09-1.035,0.141l-0.13,0.02l0.103-0.08c0.141-0.11,0.325-0.189,0.503-0.265
		c0.308-0.133,0.627-0.27,0.729-0.57c0.38-1.119,0.6-1.673,1.048-2.453c-2.629,0.518-4.044,2.332-4.093,5.247
		c-0.029,0.823,0,1.647,0.028,2.443c0.02,0.581,0.039,1.131,0.036,1.659c0.003,1.274-0.128,2.333-0.391,3.151
		c1.753-1.003,4.051-2.709,5.214-5.214c1.088-2.328,1.358-3.955-0.044-6.91c-0.012-0.026-0.019-0.053-0.021-0.081
		c1.289-1.971,2.792-3.814,4.493-5.491c0.065,0.383,0.094,0.718-0.034,0.766c-1.37,0.506-1.763,1.232-2.081,2.568
		c-0.346,1.436-0.058,3.058,0.25,4.183c0.153-0.419,0.424-0.872,0.806-1.347c0.157-0.199,0.328-0.396,0.509-0.606
		c0.247-0.286,0.504-0.582,0.74-0.903c0.855-1.112,0.906-2.397,0.149-3.715c-0.078,0.483-0.167,0.785-0.37,1.367
		c-0.055,0.156,0.015,0.343,0.082,0.525c0.039,0.105,0.079,0.213,0.095,0.315l0.012,0.074l-0.04-0.064
		c-0.1-0.161-0.206-0.328-0.317-0.496c-0.112,0.229-0.223,0.451-0.332,0.66c-0.017,0.033,0.006,0.266,0.027,0.472
		c0.019,0.188,0.041,0.401,0.044,0.552l0.002,0.147l-0.033-0.147c-0.054-0.24-0.119-0.485-0.193-0.727
		c-0.145,0.283-0.293,0.582-0.45,0.912c-0.053,0.109-0.04,0.288-0.028,0.46c0.007,0.094,0.013,0.19,0.011,0.277L9.8,17.507
		l-0.027-0.116c-0.03-0.133-0.063-0.269-0.098-0.403c-0.239,0.564-0.393,1.064-0.485,1.57c0.082-0.517,0.196-1.052,0.422-1.65
		c-0.182,0.027-0.355,0.059-0.515,0.097l-0.085,0.021l0.07-0.056c0.078-0.062,0.184-0.107,0.287-0.151
		c0.162-0.068,0.33-0.14,0.389-0.28c0.126-0.305,0.258-0.606,0.393-0.913c-0.358,0.018-0.691,0.05-0.994,0.094l-0.134,0.02
		l0.123-0.058c0.15-0.07,0.372-0.131,0.588-0.191c0.266-0.074,0.542-0.15,0.573-0.221c0.093-0.209,0.18-0.417,0.26-0.618
		c-0.293-0.056-0.581-0.109-0.855-0.155l-0.118-0.02l0.114-0.019c0.114-0.018,0.268-0.02,0.416-0.022
		c0.244-0.004,0.522-0.007,0.563-0.092c0.352-0.737,0.537-1.578,0.553-2.501c2.674-2.573,5.823-4.741,9.398-6.356
		c4.197-1.897,8.58-2.852,12.912-2.959c0.79-0.041,1.586-0.056,2.389-0.043C55.21,2.8,70.577,18.677,70.262,37.948
		c-0.01,0.624-0.038,1.243-0.08,1.858c1.001-6.4,0.212-13.154-2.654-19.499C59.68,2.94,39.24-4.778,21.873,3.069
		c-4.924,2.225-9.07,5.463-12.307,9.356c-0.446,0.313-0.912,0.613-1.083,0.443c-1.498-1.486-2.546-1.669-4.195-1.506
		C2.515,11.534,0.985,12.567,0,13.419c0.553,0.015,1.226,0.162,2,0.436C2.323,13.966,2.653,14.095,3.002,14.232z"/>
	<path d="M47.548,16.594c0,0,0.074-1.951-2.606-2.249c0,0-1.404-0.255-2.595,1.042c0,0-0.776,1.346-0.34,2.298
		c0.537,1.171,0.011,1.526,0.011,1.526s-0.319,0.404,0.234,0.468c0.263,0.03,0.314,0.431,0.517,0.745
		c0.196,0.303,0.647,0.117,0.685,0.261c0.085,0.319-0.106,0.659-0.106,0.659l-0.447-0.106c0,0-1.596-0.255-2.521-0.559
		c-0.618-0.203-2-0.425-3.659,0.851c0,0-0.638,0.34-1.085,0.34s-1.723,0.064-2.276,0.34c-0.553,0.277-0.638,0-0.638,0
		s-1.298-1.234-2.255-1.915c-0.957-0.681-1.787-2.086-1.787-2.086s-0.149-0.764,0.106-1.424c0,0,0-1.319-0.553-0.979l-0.234,0.362
		l-0.553-0.34c0,0-0.383-0.085-0.298,0.255c0,0-0.574-0.17-0.489,0.298c0,0-0.659,0.021-0.383,0.553c0,0-0.412-0.128-0.068,0.532
		s0.791,1.064,0.791,1.064s0.362,0.021,0.915,1.127s1.915,3.17,3.297,4.148c0,0,0.213,0.34,0.851,0.362
		c0.638,0.021,3.893,0.383,4.616-0.085c0.723-0.468,1.744-0.532,1.744-0.532s-0.099,2.17-1.613,3.085s-2.45,0.085-3.408,0.489
		s-7.658,0.021-7.744,0c-0.085-0.021-0.638,0.043-1.553-0.532c-0.915-0.574-2.978-1.851-5.127-2.17l-1.978-0.957
		c0,0-0.808-0.34-1.234-0.085c-0.425,0.255-2.106,1.021-1.425,1.787s1.851,0.681,1.851,0.681l1.34,0.085c0,0-0.808,1-0.723,1.766
		c0.085,0.766-0.362,1.255,1.596,1.34c1.957,0.085,3.468,0.723,3.68,0.851c0.213,0.128,1.872,0.723,2.978,0.936
		c1.106,0.213,5.106,1.851,5.169,1.893c0.064,0.043,2.276,0.234,2.064,2.808c0,0,1.127,6.02,1,9.169
		c-0.128,3.148-0.34,4.255-0.511,5.063c-0.17,0.808-0.255,3.489-0.255,4.51s-0.34,3.702-0.34,4.085s-0.511,0.936,1.276,0.936
		c0,0,0.128,0.213-0.128,0.808c-0.255,0.596-0.255,1.064,1.489,1.276c1.744,0.213,2.595,0.213,2.851,0
		c0.255-0.213-0.383-0.34-1.149-0.681c-0.766-0.34-0.893-1.234-0.893-1.234s1.489,0.511,1.319-2.17
		c-0.17-2.68,0.638-5.914,0.128-11.232c0,0,0-2.34,0.34-3.234c0.34-0.893,0.596-6.339,0.596-6.339s-0.128-1.106,1.574-2.212
		c1.702-1.106,2.978-3.319,3.872-3.446c0,0,0.383,0.468,0.936,0.085c0.553-0.383,1.532-0.893,1.532-0.893s1.659-0.383,2.468-2.212
		s2.425-1.872,0.723-3.616c-0.528-0.541-1.723-1.834-1.723-1.834s-0.525-0.635-0.327-1.18c0.454-1.245,0.461-1.849,0.55-2.873
		C47.707,17.324,47.548,16.594,47.548,16.594z"/>
</g>
</svg>
