<?xml version="1.0" encoding="utf-8"?>
<!-- Generator: Adobe Illustrator 17.0.0, SVG Export Plug-In . SVG Version: 6.00 Build 0)  -->
<!DOCTYPE svg PUBLIC "-//W3C//DTD SVG 1.1//EN" "http://www.w3.org/Graphics/SVG/1.1/DTD/svg11.dtd">
<svg version="1.1" id="Layer_1" xmlns="http://www.w3.org/2000/svg" xmlns:xlink="http://www.w3.org/1999/xlink" x="0px" y="0px"
	 width="72px" height="72px" viewBox="0 0 72 72" enable-background="new 0 0 72 72" xml:space="preserve">
<circle fill="#3A3A3A" cx="36.496" cy="35.625" r="35.496"/>
<circle fill="#FFFFFF" cx="36.496" cy="35.625" r="31.582"/>
<path id="Twitter__x28_alt_x29__2_" fill="#3A3A3A" d="M56.169,33.238c2.863-0.236,4.804-1.538,5.552-3.304
	c-1.033,0.634-4.239,1.326-6.009,0.667c-0.087-0.416-0.184-0.811-0.279-1.168c-1.35-4.954-5.968-8.945-10.808-8.463
	c0.392-0.158,0.789-0.305,1.185-0.438c0.532-0.191,3.658-0.7,3.166-1.803c-0.416-0.97-4.234,0.733-4.953,0.956
	c0.949-0.357,2.519-0.971,2.687-2.061c-1.455,0.199-2.882,0.887-3.985,1.887c0.398-0.429,0.7-0.951,0.764-1.513
	c-3.88,2.477-6.145,7.473-7.978,12.319c-1.44-1.395-2.716-2.494-3.861-3.104c-3.212-1.722-7.051-3.519-13.079-5.757
	c-0.185,1.995,0.987,4.646,4.361,6.41c-0.731-0.098-2.068,0.121-3.137,0.377c0.436,2.285,1.857,4.167,5.709,5.077
	c-1.76,0.116-2.669,0.517-3.494,1.379c0.801,1.589,2.757,3.459,6.275,3.075c-3.911,1.686-1.594,4.809,1.589,4.343
	c-5.429,5.609-13.991,5.197-18.907,0.506c12.836,17.49,40.737,10.343,44.894-6.503c3.115,0.027,4.947-1.079,6.082-2.298
	C60.15,34.126,57.549,33.812,56.169,33.238z"/>
</svg>
