<?xml version="1.0" encoding="utf-8"?>
<!-- Generator: Adobe Illustrator 17.0.0, SVG Export Plug-In . SVG Version: 6.00 Build 0)  -->
<!DOCTYPE svg PUBLIC "-//W3C//DTD SVG 1.1//EN" "http://www.w3.org/Graphics/SVG/1.1/DTD/svg11.dtd">
<svg version="1.1" id="Layer_1" xmlns="http://www.w3.org/2000/svg" xmlns:xlink="http://www.w3.org/1999/xlink" x="0px" y="0px"
	 width="72px" height="72px" viewBox="0 0 72 72" enable-background="new 0 0 72 72" xml:space="preserve">
<ellipse fill="#FFFFFF" cx="35.971" cy="35.645" rx="34.68" ry="34.355"/>
<ellipse fill="#FFFFFF" cx="35.971" cy="35.645" rx="34.68" ry="34.355"/>
<g>
	<path d="M26.483,48.007c0.211-1.251,0.388-2.44,0.624-3.617c0.069-0.343,0.32-0.646,0.459-0.98
		c0.758-1.818,0.895-3.691,0.509-5.639c-1.915,0.672-3.795,1.301-5.651,1.997c-0.815,0.306-1.255,0.09-1.544-0.703
		c-0.583-1.6-0.215-3.175,0.309-4.644c1.094-3.068,2.323-6.092,3.601-9.09c0.494-1.159,1.244-2.015,2.845-1.884
		c2.229,0.183,4.147-1.206,4.666-3.407c0.332-1.41,0.065-2.808-0.999-4.12c-0.619-0.763-0.542-2.132-0.66-3.24
		c-0.051-0.475,0.283-0.98,0.293-1.475C30.99,8.614,33.962,6.358,36.709,7c0.504,0.118,1.107,0.31,1.415,0.676
		c1.24,1.473,2.146,3.069,1.586,5.152c-0.224,0.833-0.153,1.743-0.251,2.614c-0.029,0.258-0.104,0.644-0.279,0.731
		c-1.01,0.506-1.001,1.578-1.416,2.406c-0.594,1.183-0.33,2.333,0.677,3.127c0.705,0.556,1.391,1.139,2.123,1.657
		c0.182,0.129,0.511,0.086,0.768,0.065c1.845-0.148,3.395,0.214,4.248,2.119c1.511,3.378,3.16,6.696,4.579,10.111
		c0.579,1.393,0.971,3.011-0.511,4.205c-2.647-0.887-5.239-1.757-7.955-2.667c-0.055,0.834-0.024,1.836-0.211,2.796
		c-0.19,0.972,0.249,1.569,0.772,2.282c0.365,0.497,0.389,1.24,0.579,1.87c0.319,1.058,0.607,2.128,1.005,3.156
		c0.087,0.225,0.597,0.434,0.884,0.401c0.452-0.051,0.869-0.412,1.321-0.463c0.67-0.074,1.361-0.031,2.035,0.038
		c0.53,0.054,1.043,0.286,1.572,0.327c0.709,0.055,1.145,0.237,0.886,0.857c1.628,0.866,3.215,1.642,4.733,2.537
		c1.454,0.856,1.464,1.503,1.095,3.111c-0.207,0.9-0.765,1.629-1.891,2.181c-3.285,1.613-6.472,0.427-9.638,0.063
		c-3.566-0.41-7.059-1.427-10.614-1.989c-1.062-0.168-2.239,0.243-3.339,0.497c-1.803,0.415-3.569,1.008-5.382,1.362
		c-2.357,0.46-4.749,0.504-7.037-0.36c-1.275-0.481-2.197-1.448-2.103-2.901c0.096-1.478,0.702-2.783,2.273-3.26
		c1.348-0.409,2.732-0.696,4.104-1.024c0.277-0.066,0.73,0.122,0.55-0.466c0.238-0.068,0.474-0.186,0.714-0.194
		C24.763,47.991,25.531,48.007,26.483,48.007z M43.447,30.721c-1.424,0.745-0.934,2.113-1.16,3.302
		c1.024,0.269,1.977,0.52,3.098,0.814c-0.271-0.63-0.438-1.06-0.637-1.474C44.314,32.461,43.865,31.568,43.447,30.721z
		 M25.282,34.751c0.045,0.087,0.089,0.175,0.134,0.262c0.727-0.298,1.644-0.42,2.125-0.943c0.47-0.512-0.213-2.386-0.803-2.717
		C26.251,32.49,25.766,33.621,25.282,34.751z"/>
	<path d="M70.781,57.345c-0.328-0.107-0.665-0.233-1.022-0.366c-0.488-0.182-0.993-0.37-1.509-0.522
		c-1.819-0.573-3.236-0.071-4.101,1.453c0.576-0.116,0.965-0.138,1.738-0.142c0.207-0.001,0.358-0.17,0.504-0.334
		c0.084-0.095,0.171-0.192,0.269-0.257l0.071-0.047l-0.04,0.077c-0.101,0.195-0.203,0.401-0.302,0.613
		c0.328,0.037,0.647,0.078,0.951,0.122c0.048,0.007,0.281-0.125,0.488-0.242c0.187-0.107,0.4-0.228,0.56-0.297l0.156-0.068
		l-0.134,0.106c-0.218,0.174-0.433,0.362-0.641,0.56c0.411,0.056,0.84,0.108,1.308,0.158c0.156,0.017,0.338-0.077,0.514-0.168
		c0.096-0.049,0.195-0.101,0.291-0.135l0.126-0.045l-0.105,0.084c-0.122,0.097-0.243,0.197-0.362,0.3
		c0.78,0.048,1.43,0.02,2.04-0.088c-0.616,0.125-1.273,0.22-2.082,0.202c0.162,0.215,0.323,0.416,0.48,0.597l0.084,0.098
		l-0.111-0.063c-0.124-0.07-0.25-0.182-0.371-0.29c-0.192-0.172-0.391-0.35-0.585-0.36c-0.42-0.022-0.84-0.054-1.268-0.087
		c0.281,0.437,0.558,0.838,0.826,1.195l0.119,0.159l-0.151-0.128c-0.185-0.156-0.413-0.405-0.634-0.647
		c-0.274-0.299-0.557-0.609-0.655-0.616c-0.292-0.022-0.579-0.039-0.853-0.05c0.153,0.39,0.306,0.771,0.456,1.132l0.065,0.156
		L66.8,59.268c-0.102-0.134-0.216-0.324-0.327-0.508c-0.182-0.303-0.388-0.647-0.51-0.66c-0.78-0.084-1.555-0.028-2.314,0.165
		c0.958-1.251,1.827-2.561,2.602-3.92c0.095-0.158,0.183-0.318,0.268-0.481c0.019-0.034,0.038-0.067,0.057-0.101l-0.002-0.005
		c0.427-0.83,0.741-1.714,0.926-2.634c0.037-0.186-0.375-0.651-0.738-1.062c-0.221-0.248-0.448-0.506-0.598-0.72l-0.15-0.214
		l0.201,0.168c0.465,0.391,0.956,0.795,1.462,1.203c0.111-0.411,0.22-0.843,0.323-1.286c0.035-0.149-0.291-0.712-0.605-1.256
		c-0.254-0.439-0.516-0.893-0.661-1.238l-0.118-0.284l0.179,0.251c0.402,0.562,0.866,1.16,1.381,1.779
		c0.151-0.648,0.299-1.284,0.462-1.915c0.075-0.292-0.095-0.669-0.26-1.033c-0.103-0.23-0.211-0.468-0.257-0.684l-0.041-0.194
		l0.105,0.17c0.195,0.317,0.417,0.649,0.659,0.988c0.351-1.203,0.797-2.131,1.27-2.983c-0.446,0.852-0.79,1.8-1.082,2.976
		c0.207-0.128,0.412-0.261,0.612-0.395l0.173-0.117l-0.125,0.166c-0.095,0.126-0.217,0.249-0.335,0.367
		c-0.216,0.218-0.44,0.443-0.487,0.681c-0.145,0.717-0.268,1.374-0.377,2.008c0.39-0.214,0.768-0.445,1.128-0.686l0.219-0.148
		l-0.173,0.199c-0.177,0.204-0.456,0.462-0.701,0.69c-0.269,0.25-0.573,0.533-0.585,0.608c-0.077,0.469-0.166,0.962-0.263,1.464
		c0.359-0.049,0.712-0.103,1.047-0.161l0.132-0.023l-0.103,0.083c-0.141,0.114-0.326,0.197-0.505,0.277
		c-0.31,0.139-0.631,0.283-0.729,0.589c-0.366,1.14-0.581,1.706-1.021,2.504c2.656-0.569,4.06-2.43,4.062-5.386
		c0.016-0.835-0.027-1.669-0.069-2.476c-0.03-0.589-0.058-1.145-0.064-1.681c-0.025-1.291,0.092-2.367,0.345-3.2
		c-1.761,1.045-4.061,2.813-5.199,5.371c-1.063,2.377-1.311,4.031,0.16,7.003c0.012,0.026,0.02,0.053,0.023,0.082
		c-1.274,2.019-2.766,3.912-4.462,5.64c-0.073-0.387-0.108-0.726,0.021-0.777c1.381-0.536,1.766-1.278,2.067-2.637
		c0.327-1.461,0.009-3.1-0.323-4.236c-0.148,0.427-0.415,0.89-0.795,1.379c-0.156,0.204-0.326,0.407-0.505,0.622
		c-0.246,0.294-0.501,0.598-0.735,0.927c-0.848,1.142-0.878,2.444-0.089,3.768c0.071-0.491,0.157-0.798,0.353-1.391
		c0.053-0.159-0.021-0.348-0.093-0.53c-0.041-0.105-0.084-0.215-0.101-0.317l-0.013-0.075l0.041,0.064
		c0.104,0.162,0.215,0.329,0.329,0.497c0.109-0.234,0.219-0.461,0.326-0.675c0.017-0.033-0.01-0.27-0.036-0.478
		c-0.023-0.19-0.048-0.406-0.053-0.558l-0.006-0.149l0.037,0.148c0.059,0.243,0.128,0.49,0.207,0.734
		c0.143-0.29,0.287-0.595,0.441-0.932c0.052-0.112,0.036-0.292,0.021-0.466c-0.008-0.095-0.017-0.193-0.015-0.281l0.003-0.116
		l0.029,0.117c0.032,0.135,0.068,0.271,0.106,0.407c0.232-0.576,0.381-1.085,0.466-1.599c-0.076,0.526-0.182,1.069-0.401,1.68
		c0.184-0.03,0.359-0.066,0.521-0.107l0.086-0.022l-0.07,0.058c-0.078,0.064-0.186,0.112-0.289,0.158
		c-0.163,0.072-0.333,0.147-0.39,0.291c-0.123,0.311-0.252,0.619-0.384,0.931c0.362-0.024,0.7-0.062,1.006-0.112l0.136-0.022
		l-0.124,0.06c-0.151,0.073-0.376,0.139-0.592,0.203c-0.269,0.079-0.547,0.161-0.578,0.233c-0.09,0.213-0.175,0.425-0.253,0.631
		c0.299,0.052,0.59,0.101,0.869,0.143l0.121,0.018l-0.115,0.021c-0.115,0.02-0.27,0.025-0.421,0.029
		c-0.248,0.008-0.529,0.016-0.569,0.103c-0.344,0.753-0.517,1.608-0.519,2.544c-2.667,2.652-5.824,4.902-9.42,6.598
		c-4.223,1.992-8.649,3.033-13.039,3.213c-0.8,0.054-1.606,0.083-2.42,0.083c-19.538,0-35.376-15.838-35.376-35.376
		c0-0.632,0.018-1.26,0.051-1.884C0.34,38.673,1.25,45.505,4.261,51.889c8.241,17.473,29.087,24.956,46.56,16.715
		c4.954-2.336,9.103-5.688,12.319-9.687c0.447-0.325,0.914-0.636,1.091-0.467c1.543,1.481,2.608,1.65,4.277,1.457
		c1.794-0.203,3.328-1.275,4.312-2.155C72.254,57.747,71.57,57.61,70.781,57.345z"/>
	<path d="M3.143,14.427c0.485,0.19,0.987,0.387,1.501,0.547c1.809,0.603,3.234,0.123,4.124-1.385
		c-0.578,0.107-0.967,0.123-1.74,0.114c-0.208-0.003-0.362,0.164-0.51,0.325c-0.086,0.093-0.175,0.189-0.273,0.252l-0.072,0.046
		l0.041-0.076c0.104-0.193,0.209-0.398,0.312-0.608c-0.327-0.043-0.647-0.089-0.95-0.138c-0.048-0.008-0.284,0.121-0.491,0.235
		c-0.189,0.104-0.404,0.221-0.565,0.288l-0.157,0.066l0.135-0.104c0.221-0.17,0.44-0.355,0.65-0.55
		c-0.41-0.063-0.838-0.121-1.306-0.179c-0.156-0.019-0.339,0.071-0.516,0.159c-0.097,0.048-0.197,0.098-0.293,0.13l-0.127,0.043
		l0.107-0.082c0.123-0.094,0.246-0.193,0.366-0.294C2.6,13.155,1.95,13.172,1.338,13.271c0.618-0.115,1.276-0.199,2.084-0.168
		c-0.159-0.217-0.315-0.421-0.47-0.605L2.87,12.399l0.11,0.065c0.123,0.072,0.247,0.186,0.367,0.296
		c0.19,0.175,0.386,0.356,0.579,0.37c0.419,0.029,0.838,0.068,1.266,0.108c-0.274-0.441-0.545-0.847-0.807-1.208l-0.117-0.16
		L4.418,12c0.182,0.159,0.406,0.412,0.623,0.657c0.268,0.304,0.546,0.618,0.645,0.627c0.292,0.027,0.578,0.048,0.853,0.064
		c-0.147-0.392-0.294-0.775-0.438-1.139l-0.062-0.157l0.1,0.135c0.1,0.136,0.211,0.327,0.318,0.513
		c0.178,0.306,0.378,0.653,0.499,0.668c0.779,0.097,1.554,0.054,2.316-0.127c-0.978,1.235-1.868,2.531-2.666,3.877
		c-0.097,0.156-0.188,0.316-0.276,0.476c-0.019,0.034-0.039,0.067-0.058,0.1l0.002,0.005c-0.44,0.823-0.769,1.701-0.969,2.619
		c-0.04,0.185,0.364,0.657,0.721,1.074c0.215,0.252,0.439,0.513,0.585,0.729l0.146,0.216l-0.198-0.172
		c-0.459-0.398-0.943-0.811-1.441-1.227C5,21.347,4.884,21.777,4.774,22.218c-0.038,0.149,0.279,0.717,0.584,1.266
		c0.247,0.443,0.502,0.901,0.641,1.249l0.114,0.285l-0.175-0.254c-0.392-0.569-0.846-1.174-1.351-1.801
		c-0.161,0.646-0.32,1.279-0.493,1.907c-0.079,0.29,0.085,0.67,0.243,1.037c0.099,0.232,0.203,0.472,0.245,0.688l0.038,0.194
		L4.516,26.62c-0.191-0.32-0.407-0.655-0.643-0.998c-0.371,1.197-0.831,2.117-1.318,2.962c0.46-0.845,0.82-1.787,1.131-2.958
		c-0.209,0.124-0.417,0.254-0.618,0.385l-0.175,0.115l0.128-0.164c0.097-0.124,0.221-0.245,0.341-0.362
		c0.22-0.214,0.447-0.436,0.499-0.673c0.157-0.714,0.29-1.37,0.41-2.002c-0.393,0.207-0.776,0.432-1.139,0.668l-0.221,0.144
		l0.176-0.195c0.181-0.201,0.463-0.455,0.713-0.679c0.273-0.245,0.582-0.523,0.595-0.598c0.085-0.468,0.181-0.959,0.287-1.459
		c-0.36,0.042-0.713,0.091-1.049,0.143L3.501,20.97l0.104-0.081c0.143-0.112,0.33-0.192,0.51-0.269
		c0.312-0.134,0.636-0.273,0.739-0.577c0.385-1.134,0.609-1.696,1.063-2.486c-2.665,0.526-4.099,2.364-4.149,5.319
		c-0.03,0.835,0,1.669,0.029,2.477c0.02,0.589,0.04,1.146,0.036,1.681c0.003,1.292-0.13,2.365-0.397,3.194
		c1.777-1.016,4.106-2.746,5.285-5.286c1.103-2.36,1.377-4.01-0.045-7.005c-0.012-0.026-0.019-0.054-0.022-0.082
		c1.306-1.998,2.83-3.866,4.555-5.567c0.066,0.388,0.095,0.728-0.035,0.776c-1.389,0.513-1.787,1.249-2.11,2.603
		c-0.35,1.455-0.059,3.1,0.254,4.241c0.155-0.424,0.429-0.884,0.817-1.365c0.159-0.202,0.332-0.402,0.516-0.614
		c0.251-0.29,0.511-0.59,0.75-0.915c0.867-1.128,0.918-2.43,0.151-3.766c-0.079,0.49-0.169,0.796-0.375,1.385
		c-0.056,0.158,0.015,0.348,0.084,0.532c0.04,0.106,0.08,0.216,0.096,0.319l0.012,0.075l-0.04-0.064
		c-0.101-0.164-0.209-0.333-0.321-0.503c-0.113,0.233-0.226,0.458-0.337,0.669c-0.018,0.033,0.007,0.27,0.028,0.478
		c0.02,0.191,0.041,0.406,0.044,0.559l0.002,0.149l-0.034-0.149c-0.055-0.244-0.12-0.492-0.195-0.737
		c-0.147,0.287-0.297,0.59-0.456,0.925c-0.053,0.111-0.041,0.292-0.028,0.466c0.007,0.095,0.013,0.193,0.011,0.281l-0.005,0.116
		l-0.027-0.118c-0.03-0.135-0.064-0.273-0.099-0.409c-0.242,0.572-0.399,1.079-0.492,1.591c0.084-0.524,0.199-1.066,0.428-1.673
		c-0.184,0.027-0.36,0.06-0.522,0.098L9.24,17.259l0.071-0.057c0.079-0.063,0.187-0.109,0.291-0.153
		c0.164-0.069,0.335-0.142,0.394-0.284c0.128-0.309,0.262-0.615,0.399-0.925c-0.363,0.019-0.701,0.051-1.008,0.096l-0.136,0.021
		l0.125-0.058c0.152-0.071,0.378-0.133,0.596-0.193c0.27-0.075,0.55-0.152,0.581-0.224c0.094-0.212,0.182-0.423,0.264-0.627
		c-0.297-0.057-0.589-0.11-0.867-0.157l-0.12-0.02l0.115-0.019c0.115-0.018,0.271-0.02,0.422-0.022
		c0.248-0.004,0.529-0.007,0.57-0.094c0.357-0.747,0.544-1.6,0.561-2.535c2.71-2.608,5.903-4.806,9.527-6.443
		c4.255-1.923,8.698-2.891,13.089-3c0.801-0.041,1.608-0.057,2.421-0.044C56.07,2.84,71.647,18.936,71.328,38.471
		c-0.01,0.632-0.039,1.26-0.081,1.883c1.014-6.488,0.215-13.335-2.691-19.766C60.598,2.98,39.878-4.843,22.272,3.111
		c-4.992,2.255-9.195,5.538-12.476,9.485c-0.452,0.317-0.924,0.621-1.098,0.449c-1.518-1.506-2.581-1.692-4.252-1.526
		c-1.797,0.174-3.349,1.22-4.347,2.084c0.56,0.015,1.243,0.164,2.028,0.442C2.454,14.157,2.789,14.288,3.143,14.427z"/>
</g>
</svg>
